<svg width="266" height="40" viewBox="0 0 266 40" fill="none" xmlns="http://www.w3.org/2000/svg">
<path fill-rule="evenodd" clip-rule="evenodd" d="M16.1226 6.77655L38.7391 13.5982L38.7008 13.4395L18.5627 0L16.1226 6.77655Z" fill="#344054"/>
<path fill-rule="evenodd" clip-rule="evenodd" d="M197.961 13.103L197.82 13.0585C196.455 13.0585 196.415 12.1292 194.662 12.8146C193.969 13.0856 192.766 13.9713 192.748 14.7857H192.532V12.9507H189.294V26.3352H192.748V23.7447C192.748 21.5089 192.861 19.7708 193.094 17.8311C193.418 15.1423 196.435 15.5387 196.741 16.2967L196.958 16.2973L197.961 13.103Z" fill="#344054"/>
<path fill-rule="evenodd" clip-rule="evenodd" d="M242.501 23.0972C242.478 22.8906 241.796 21.6811 241.663 21.0214C241.589 20.6563 241.608 18.6967 241.631 18.2329C241.763 15.5552 244.197 15.5616 244.336 15.2176H244.66L246.394 15.9539L247.076 17.4647L250.484 16.8185C249.974 15.4172 249.188 13.9579 247.824 13.3479C246.382 12.7024 244.565 12.3125 242.794 12.8121C240.973 13.3257 239.988 13.9034 239.076 15.2457C238.566 15.9953 237.656 18.7091 237.869 20.0653C238.46 23.8175 239.7 26.0992 243.481 26.6508C245.381 26.928 247.399 26.1398 248.468 25.5027C249.204 25.0637 250.715 22.6716 250.487 21.694L247.048 21.271C247.034 22.5883 246.099 23.7449 244.875 23.7449H244.12C243.15 23.7449 243.269 23.1612 242.501 23.0972Z" fill="#344054"/>
<path fill-rule="evenodd" clip-rule="evenodd" d="M251.999 12.9506C252.163 13.107 257.071 25.8545 257.071 26.4432C257.071 27.281 256.255 28.4435 255.754 28.6879C254.517 29.2907 253.946 28.8179 252.862 28.8179L253.182 31.6248L254.586 31.757L255.452 31.7322C258.223 31.7322 258.946 30.6529 259.875 28.8156C260.692 27.2006 261.196 25.3964 261.865 23.5745C262.462 21.9498 263.209 20.0582 263.841 18.3182C264.475 16.5722 265.284 14.7579 265.705 12.9506H262.143L259.063 22.4303L258.906 22.4493L255.777 12.9502L251.999 12.9506Z" fill="#344054"/>
<path fill-rule="evenodd" clip-rule="evenodd" d="M15.3365 4.10612L15.2077 4.01001L0.705078 21.9822L7.83294 24.3779L15.3365 4.10612Z" fill="#676767"/>
<path fill-rule="evenodd" clip-rule="evenodd" d="M59.4696 12.1987L59.6764 12.1955L62.1486 18.959L56.9775 18.9554L59.4696 12.1987ZM54.3881 26.3355C54.3881 25.951 55.0731 24.1766 55.201 23.8025C55.511 22.8953 55.5213 22.1073 56.756 22.1195C58.952 22.1413 61.1494 22.126 63.3458 22.126L64.9763 26.3311L68.958 26.3355L61.5107 7.76996L57.6258 7.76978L50.3921 26.2925L50.5028 26.3355H54.3881Z" fill="#344054"/>
<path fill-rule="evenodd" clip-rule="evenodd" d="M74.786 26.3354C74.786 24.1407 74.7868 21.9458 74.786 19.7511C74.7859 18.8551 74.8866 17.376 75.1536 16.7724C75.4825 16.0293 76.7782 15.3622 76.8366 15.2176H78.2397L78.1774 15.3151L78.8328 15.7344C78.9427 16.3146 79.319 16.1059 79.319 17.1604V26.3354H82.8804C82.8804 23.4694 82.5257 19.8925 83.1258 17.4057C83.7955 14.631 87.5212 14.2077 87.5212 17.7001V26.3354H91.0828C91.0828 23.5545 91.3354 16.3488 90.5811 14.7478C90.0322 13.5825 88.3218 12.5154 86.7658 12.5164C85.5319 12.5171 82.9989 13.7216 82.7726 14.5698C82.1194 14.5155 82.1381 14.2527 81.8762 13.847C81.7805 13.6987 81.2692 13.3573 81.0343 13.178C80.8151 13.0106 78.9828 12.4646 78.5979 12.5366C77.7951 12.6872 76.9368 13.0242 76.2183 13.3038C75.313 13.6566 74.9835 14.5129 74.4623 14.5698V12.9508H71.2246V26.3354H74.786Z" fill="#344054"/>
<path fill-rule="evenodd" clip-rule="evenodd" d="M110.077 26.3352H113.638V7.76929H110.077V26.3352Z" fill="#344054"/>
<path fill-rule="evenodd" clip-rule="evenodd" d="M122.273 24.0686C121.275 24.0686 120.967 23.6268 120.606 22.9271C120.162 22.0655 120.732 21.6379 121.168 21.1295C121.501 20.7413 124.683 19.9189 125.402 19.8591C125.402 21.8875 125.053 24.0686 123.136 24.0686H122.273ZM120.654 16.9446C120.673 16.0667 121.665 15.4365 122.314 15.2595C123.517 14.9319 124.351 15.5876 125.079 15.7572L125.279 16.6552L125.402 16.6208V17.5923C125.11 17.6243 123.488 18.2267 122.909 18.3366C121.807 18.5458 121.187 18.7506 120.253 18.9184C118.685 19.1999 117.092 20.3044 117.092 22.2336V23.5289C117.092 24.2818 117.907 25.2049 118.322 25.6454C118.79 26.1431 119.928 26.4386 120.593 26.6119C122.155 27.0188 125.104 25.7568 125.402 24.9321H125.726L126.085 26.3254L129.504 26.3354C129.391 25.3064 128.845 24.8985 128.855 23.2065C128.862 21.9473 128.856 20.6865 128.856 19.4273C128.856 16.8473 128.967 14.4288 127.346 13.4896C125.966 12.69 123.131 12.2838 121.133 12.7826C119.494 13.1916 117.416 14.4706 117.416 16.5128L120.654 16.9446Z" fill="#344054"/>
<path fill-rule="evenodd" clip-rule="evenodd" d="M143.966 10.8996H147.419C148.986 10.8996 150.549 11.743 150.549 13.1664V13.5981L150.426 14.7837C150.077 14.8704 149.382 16.0489 148.387 16.1852C147.509 16.3054 146.111 16.2966 145.153 16.2966H143.966V10.8996ZM145.693 19.3191C148.717 19.3191 151.169 19.2378 152.777 17.7692C154.231 16.4407 154.808 13.4848 153.935 11.1836C153.296 9.50078 153.21 9.70907 152.089 8.71254C151.445 8.14127 149.81 7.78522 148.723 7.76095C145.916 7.69826 143.008 7.76933 140.188 7.76933V26.3351H143.966V19.3191H145.693Z" fill="#344054"/>
<path fill-rule="evenodd" clip-rule="evenodd" d="M161.45 26.3351C161.45 23.9388 161.094 20.2416 161.612 18.2944C162.028 16.7339 161.652 16.3864 163.044 15.6244C164.977 14.5659 165.172 15.6714 166.198 15.7568C166.214 16.4649 166.748 16.2826 166.738 18.0232C166.733 18.9584 166.738 19.8949 166.738 20.8301C166.738 22.6651 166.738 24.5001 166.738 26.3351H170.3C170.3 23.2559 170.557 17.8935 170.012 15.5053C169.679 14.0516 168.501 13.2179 167.094 12.8106C164.409 12.0333 164.15 13.351 162.745 13.3823L162.613 13.808L162.553 13.7123L161.478 14.6036L161.45 7.76929H157.996V26.3351L161.45 26.3351Z" fill="#344054"/>
<path fill-rule="evenodd" clip-rule="evenodd" d="M177.098 23.0974C177.098 21.1488 177.15 21.2113 178.639 20.645C179.261 20.4088 181.139 20.024 181.847 19.8593C181.847 22.3747 181.76 24.0689 179.257 24.0689H178.393C177.49 24.0689 177.556 23.2197 177.098 23.0974ZM176.99 16.9448C177.525 16.1463 177.865 15.2774 179.142 15.2101C181.325 15.0953 181.282 16.0693 181.847 16.2971V17.5925C181.413 17.6399 180.001 18.2653 179.272 18.363C178.14 18.5143 177.542 18.7194 176.554 18.991C174.788 19.4761 173.537 20.4201 173.537 22.6656C173.537 24.1633 173.913 24.4744 174.53 25.3425C175.158 26.2276 175.773 26.1785 176.936 26.4977C179.737 27.2664 180.694 25.4669 182.171 24.9323L182.57 26.314L186.056 26.3356C185.9 25.9052 185.602 25.4593 185.505 24.944C185.415 24.4687 185.491 23.6895 185.331 23.1751C185.08 22.3737 185.035 20.4476 185.3 19.6433C185.689 18.4675 185.195 17.1315 185.189 16.1925C185.18 14.6865 184.809 14.3161 184.002 13.6018C181.747 11.607 173.968 12.3205 173.968 16.5131L176.99 16.9448Z" fill="#344054"/>
<path fill-rule="evenodd" clip-rule="evenodd" d="M203.216 24.8244C203.7 24.6291 203.252 17.7711 203.61 16.7985C203.848 16.1504 205.188 15.1512 206.241 15.2034C207.476 15.2647 207.965 16.3679 207.965 17.7002V26.3355H211.418V20.7227C211.418 18.932 211.433 17.146 212.288 16.1955C213.088 15.307 214.943 14.6839 215.714 16.1024C216.447 17.4502 216.167 23.9718 216.167 26.3355H219.513V16.9447C219.513 14.6028 218.38 12.8888 216.269 12.741C214.716 12.6325 214.872 12.4158 213.342 13.0396C212.84 13.2439 211.314 14.1514 211.203 14.5699H210.879C210.775 13.6206 208.111 12.3338 207.028 12.5367C205.33 12.8552 204.106 13.518 203.108 14.5699V12.9509H199.871V26.3355L203.219 26.3043L203.313 26.1197V25.3642L203.216 24.8244Z" fill="#344054"/>
<path fill-rule="evenodd" clip-rule="evenodd" d="M227.715 24.0686C226.688 24.0686 225.405 21.9414 227.17 20.9322C227.609 20.6809 230.874 19.873 231.277 19.9668C231.277 22.0211 230.814 24.0686 228.795 24.0686H227.715ZM226.42 16.9446C226.964 15.8106 227.142 15.2069 228.906 15.2099C231.156 15.2139 230.913 16.7974 231.277 16.9446V17.4843L230.899 17.7542L230.198 17.8081C230.128 17.9801 225.566 19.0695 224.984 19.2857C223.521 19.8292 222.345 21.7514 222.913 23.583C223.644 25.9449 224.323 26.0141 226.577 26.6102C228.237 27.0492 230.698 25.6567 231.385 24.9321L231.977 26.3142L235.378 26.3354C234.363 23.5296 234.623 23.2768 234.623 19.8591V18.1319C234.623 16.3276 234.646 14.7955 233.622 13.9511C231.699 12.365 231.774 13.2901 229.766 12.6269C228.697 12.2738 226.333 12.9861 225.479 13.3044C224.712 13.5901 223.29 15.148 223.29 16.189V16.5128L226.42 16.9446Z" fill="#344054"/>
<path fill-rule="evenodd" clip-rule="evenodd" d="M97.8814 18.4556C97.8814 14.1559 103.17 14.2271 103.17 18.4556H97.8814ZM100.687 24.0684C98.9412 24.0684 97.4703 22.2711 97.8814 20.5064L104.142 20.5253L104.141 20.7224H104.357L104.353 20.5465L106.731 20.4877C106.731 17.9753 105.931 14.7829 104.362 13.9173C102.92 13.122 103.283 13.0236 101.132 12.7218C99.717 12.5232 98.8558 12.7016 97.6192 13.2281C95.2273 14.2463 94.8213 16.0725 94.1532 18.6127C93.8558 19.7438 94.3447 21.6837 94.5883 22.5046C94.832 23.3255 96.1531 25.3447 96.1546 25.3638C96.8117 25.4185 97.5957 26.2138 98.8721 26.4238C100.459 26.6849 100.475 26.7612 102.103 26.4559C103.443 26.2046 103.895 26.1203 104.742 25.3174C105.031 25.0433 106.38 23.3241 106.407 23.3129V22.7731L106.148 22.6004L102.949 22.1562C102.872 23.1116 101.792 24.0684 100.687 24.0684Z" fill="#344054"/>
<path fill-rule="evenodd" clip-rule="evenodd" d="M40.1152 16.6002L33.0906 14.4725L33.1267 14.354H32.803L32.9306 14.3987L25.4307 35.89L40.1152 16.6002Z" fill="#676767"/>
<path fill-rule="evenodd" clip-rule="evenodd" d="M2.26025 25.7957V26.0117L2.34264 25.8879L22.9701 39.6283L25.2672 32.8902L25.3561 32.594L2.26025 25.7957Z" fill="#344054"/>
</svg>
