<svg width="65" height="65" viewBox="0 0 65 65" fill="none" xmlns="http://www.w3.org/2000/svg">
<path fill-rule="evenodd" clip-rule="evenodd" d="M46.8779 7.26437H47.2686C47.7623 8.0016 47.7895 9.16999 47.7895 10.3896C47.7895 18.1001 44.7207 24.9009 41.1484 29.0105L39.5859 30.5732L38.4139 31.8754L37.5817 32.7333L37.3722 32.7869L36.07 33.8286L35.1586 34.4797L33.3355 35.6516C32.8105 35.7739 32.7285 36.0422 32.424 36.0422H32.1636C31.7388 36.0422 31.7347 35.975 31.5124 35.7818L30.0801 34.8703H29.9498L27.0851 32.7869L25.262 31.094L24.8715 30.7035C23.4829 28.8081 22.0182 27.8311 20.8348 25.3645L20.1836 24.3228C17.921 19.6072 16.7981 16.2052 16.7981 9.21766V8.56664C17.4045 7.61061 16.3678 7.59987 18.342 6.98535C19.1012 6.74906 19.9812 6.57932 20.7453 6.26357C21.8001 5.8277 24.8748 5.07114 25.5225 4.66007L27.9967 3.74859H28.5175C28.8707 3.51208 31.7538 2.57666 32.2938 2.57666C32.983 2.57666 33.9992 2.89906 34.3772 3.22769L39.8788 4.95176L45.1852 6.61335L45.5759 6.74358L46.8779 7.26437ZM29.0022 9.3977H29.2909V15.1542H29.4748V9.3977H29.6948V15.5163H29.8787V9.3977H30.0988V15.9634H30.2825V9.3977H30.5026V16.5156H30.6865V9.3977H30.9066V16.8384H31.0904V9.3977H31.3105V17.1972H31.4944V9.3977H31.7144V17.5957H31.8983V9.3977H32.1184V18.0387H32.3022V9.3977H35.4721V14.9104H40.9848V15.2009H35.3602V15.3848H40.9848V15.6047H34.9981V15.7886H40.9848V16.0087H34.5509V16.1926H40.9848V16.4126H33.9989V16.5965H40.9848V16.8166H33.676V17.0004H40.9848V17.2205H33.3174V17.4044H40.9848V17.6245H32.9187V17.8083H40.9848V18.0284H32.4758V18.2122H40.9848V21.3803H35.4721V26.8931H35.3136V21.2703H35.1297V26.8931H34.9097V20.908H34.7258V26.8931H34.5057V20.461H34.3218V26.8931H34.1017V19.9088H33.9179V26.8931H33.6978V19.586H33.5139V26.8931H33.294V19.2273H33.1101V26.8931H32.89V18.8287H32.7062V26.8931H32.4861V18.3857H32.3022V26.8931H29.0022V21.3803H23.4894V21.2236H29.2442V21.0397H23.4894V20.8197H29.6064V20.6358H23.4894V20.4157H30.0536V20.2318H23.4894V20.0118H30.6056V19.8279H23.4894V19.6078H30.9284V19.424H23.4894V19.2039H31.2871V19.02H23.4894V18.7999H31.6857V18.6161H23.4894V18.3961H32.1287V18.2122H23.4894V14.9104H29.0022L29.0022 9.3977ZM35.8096 36.9537L36.7212 36.4328L36.8514 36.3026L40.6276 33.3077L41.6693 32.2659C41.8925 31.9325 43.4849 30.1014 43.7528 29.922V29.7918L45.9665 26.5363L47.0082 24.3227C48.2148 22.9345 48.5594 19.3864 49.3521 18.2025L50.0032 14.1658C50.1744 12.1082 50.1155 10.9105 50.1338 8.82657C50.1582 6.05284 50.3652 5.69943 48.2572 5.1039C46.9426 4.73244 40.5452 2.7595 39.8463 2.31612L36.2003 1.27442L35.4189 1.01397L35.2776 0.760384C34.1223 0.753513 33.0884 -0.296458 31.8858 0.0824113C30.6441 0.473734 29.7974 0.682444 28.6099 1.1064C27.7469 1.41442 22.7037 3.08481 22.1369 3.09748L21.8765 3.2276L18.7512 4.39963C18.3548 4.43259 16.0487 5.10197 15.7103 5.26516C14.6974 5.75353 14.4541 6.47487 14.4541 7.91541V13.5147C14.4541 14.875 15.2672 18.8642 15.7563 19.6349C15.8441 20.6895 16.976 23.5116 17.4491 24.1925V24.453L17.6045 24.6371L18.7512 26.6666L19.9232 28.6199V28.7501C20.1852 28.8201 22.2417 31.6827 22.9182 32.1357V32.3961L24.0901 33.5681H24.3505L26.5643 35.6516L31.1218 38.5163C31.4139 38.5844 31.4212 38.6465 31.7729 38.6465H32.6845C33.1331 38.6465 33.3584 38.4624 33.596 38.2559L33.9264 38.1692L34.5074 37.7351L35.2888 37.3444H35.4189L35.6729 37.1946L35.6794 36.9537L35.8096 36.9537ZM29.9498 34.0889H30.2103V34.3494H30.4707C30.889 34.6295 31.5129 35.2609 32.1636 35.2609C32.8784 35.2609 33.9748 34.4706 34.3772 34.0889L34.7679 33.6982L35.4189 33.3077H35.6794L36.8514 32.2659L37.1117 32.0054L37.5024 31.6149L37.8931 31.3544L38.9348 30.1825L39.1953 30.0522L39.5859 29.5313L40.6276 28.3594C42.3809 25.7411 44.3308 23.3933 45.3441 19.924C46.5821 15.6856 46.878 13.9296 46.878 8.30607C45.6795 7.50346 45.9238 7.79966 44.4847 7.31376C43.7582 7.06855 42.6442 6.5425 41.9298 6.48303L39.1953 5.57155L34.6377 4.13916C33.9307 3.97447 33.2654 3.48803 32.424 3.48803H32.2938C31.6275 3.48803 30.6667 3.52345 30.4707 4.00893H30.0801C29.983 4.00893 24.1155 5.88718 23.4556 6.10888C22.3742 6.47218 21.2936 6.83086 20.1347 7.21541C19.3011 7.49197 17.4491 7.90413 17.4491 8.82698V11.3011L17.97 15.5982V15.9889C18.2553 16.5836 18.4618 18.3204 18.8041 19.1914C19.1637 20.1065 19.4654 21.3874 19.9232 22.109V22.4997L20.3045 22.6541L20.4441 23.2809L20.8348 24.1925L21.4858 25.2342C22.0169 26.2379 25.4979 30.8022 26.3038 31.0939H26.4341C26.825 31.8327 29.1669 33.5647 29.9498 34.0889ZM15.3656 17.4213L15.5705 18.0869L15.3656 17.4213ZM15.3656 17.8118V17.4213V17.8118Z" fill="#344054"/>
<path fill-rule="evenodd" clip-rule="evenodd" d="M17.8399 38.9068H19.2723V39.1671H20.0536L19.7931 38.2557C19.4307 38.0129 19.3431 37.7349 18.7514 37.7349H18.1004C16.9674 37.7349 16.142 38.2557 14.7147 38.2557H14.1938V38.6463C14.1938 39.014 14.4926 39.1487 14.7147 39.2974H16.0169C16.0169 40.868 15.3189 43.0054 15.0921 44.4928C14.8966 45.7745 14.3008 48.2085 13.4126 48.8032C13.1331 48.9973 12.9824 49.0637 12.501 49.0637H12.2406C11.7592 49.0637 11.6085 48.9973 11.3291 48.8032C10.864 48.6348 10.9344 48.3032 10.8083 47.7614L10.0269 48.1521L9.63623 48.5428V48.9335L10.0269 49.4543L10.4176 49.9752C10.9678 50.1034 11.3596 50.3659 11.9802 50.3659H12.1104C12.4621 50.3659 12.4694 50.3037 12.7614 50.2356C13.0479 49.8447 14.068 49.5058 14.7892 48.7475C15.3079 48.2024 15.8324 47.3812 16.0169 46.5895L16.1471 46.0687L17.7097 39.0369L17.8399 38.9068ZM26.6947 46.5895V47.2406L26.4342 47.3708V47.6313L26.0409 47.7543L25.7831 47.7614H25.6529C25.3529 47.7614 25.2622 47.6709 25.2622 47.3708C25.2622 47.1391 25.4575 47.1572 25.6529 47.1104L25.7831 46.8499H26.0435V46.5895L26.6947 46.5895ZM24.8716 46.5895L24.7414 46.7197C24.5193 46.8684 24.2205 47.003 24.2205 47.3708C24.2205 47.8439 24.375 47.8275 24.4809 48.2823H24.7414C25.8721 48.9998 27.0724 47.7774 27.4759 47.6313V47.5011L27.7364 46.1989L27.7839 45.7591L28.7781 45.1571H28.9083C28.9083 47.5691 28.8454 46.3706 29.6897 47.6313L30.7947 47.4839L30.8612 47.5022L31.6428 47.3708L32.1637 46.8499C32.6184 46.5455 32.6847 46.4239 32.6847 45.678H32.294L31.7731 46.1989L31.2522 46.5895L30.3407 46.4594L30.0868 46.3096L30.0802 45.8082C30.0802 44.4349 30.7109 43.34 30.7314 42.4226H33.7264L33.8566 42.2924L34.089 42.2644L34.5076 41.9017V41.5111H31.2522L31.1219 41.3809L31.6006 39.978L30.4709 40.0787L30.1083 40.3443L29.95 41.2507L29.5594 41.5111H29.0385L28.127 41.9017V42.4226H29.4292C29.4112 43.2302 29.147 43.9114 28.6479 44.2457L27.5018 45.0655L27.0853 44.8967L26.5115 43.6167C26.7493 43.245 27.2155 42.7877 27.2155 42.5528V42.4226C27.2155 42.0016 26.7428 41.7716 26.304 41.7716C26.0378 41.7716 25.3377 42.5792 25.2131 42.8943C24.9378 43.5914 25.3492 44.0608 24.7414 44.5061L24.6112 44.7665L23.1122 46.395L22.5277 46.1989L22.3974 46.0687L22.934 42.0346L21.7464 42.0319C21.3664 42.7503 21.4271 43.2551 20.8969 44.1774C20.6256 44.6493 19.8875 45.5854 19.7931 45.9385L19.5328 46.0687L19.2723 46.1989L19.0119 46.5895H18.491L18.3608 46.3292L18.7514 43.3342L18.8817 42.5528H18.6212V42.2924L17.7211 42.2945L17.5795 43.2039L17.4493 43.855V43.9852L17.0586 46.0687V46.4594C17.0586 46.8566 17.1837 46.9848 17.3191 47.2406L17.84 47.7614H18.491H18.6212L19.6629 47.1104L20.314 46.4594V46.3291H20.4443C20.6896 45.8655 20.586 45.6838 21.0953 45.5478L21.2255 46.3291C21.3784 46.9851 21.8894 47.5011 22.6579 47.5011C23.7275 47.5011 25.0357 45.6239 25.5227 44.8967C25.8466 45.0681 26.1738 45.1892 26.1738 45.678C26.1738 45.9209 25.1416 46.3548 24.8716 46.5895ZM33.2054 45.4176V45.5478V47.7614H34.1169L34.3774 46.8499L34.8983 45.8082L36.7213 43.4644H37.8933C38.238 43.2335 38.5443 43.0011 38.5443 42.4226C38.5443 42.0559 38.488 42.1815 38.2838 42.0319L37.3714 42.0304L36.8516 42.2924L36.5911 42.4226L35.1587 44.1154L34.6378 44.7665C34.6378 44.1182 34.6217 43.9926 34.8983 43.5946V42.683L34.6378 42.5528H34.1169L33.5961 42.683V42.8132V44.2456L33.2054 45.4176ZM47.1386 47.1104C47.8559 47.7339 47.6749 47.7614 48.9616 47.7614L49.8674 47.6206L51.1753 46.9802L52.8681 45.1571L54.1702 43.7247L54.04 43.4644C53.9196 43.3836 53.7272 43.2039 53.6494 43.2039C53.4402 43.2039 52.4763 44.5226 52.3473 44.7665L49.5188 46.9003L48.4407 46.7197L48.0502 46.3291L47.7897 46.1989V45.678L48.0502 45.5478H48.3106H48.571H49.2221L50.8801 44.4459C51.0457 43.9446 51.3055 43.7927 51.3055 43.0737C51.3055 42.5608 50.8882 42.1636 50.5242 42.0319C48.8843 42.0319 48.8922 42.0074 47.9199 42.683L47.2688 43.2039L46.6178 45.4176L46.4876 45.678H45.9666L45.7062 46.0687H45.5761C45.4514 46.5349 45.1326 46.5895 44.5343 46.5895H44.404C44.1121 46.5895 44.1181 46.4864 43.8832 46.3291L44.0134 44.5061L44.5343 42.4226L47.6653 42.4304L48.3106 42.0319V41.5111H45.0552H44.9249L45.0552 40.86L45.4459 39.9485L45.3156 39.8183C44.3531 39.8397 44.147 40.1413 43.753 40.7297V41.1204L41.7843 41.8522L41.7997 42.4226H43.2321L42.6462 44.6172C41.9578 45.1409 41.1102 46.8499 39.9767 46.8499C39.7943 46.8499 39.7163 46.6725 39.7163 46.4594V45.678L39.8465 42.9435L38.8029 42.8911L38.8048 44.3758C38.8048 45.2071 38.4141 45.5753 38.4141 46.8499C38.6667 47.1405 38.9454 47.7614 39.4559 47.7614L40.5939 47.7261L42.1904 46.0687H42.5811C42.6 46.919 43.1891 47.7614 44.0134 47.7614H44.1436C44.6649 47.7614 44.7909 47.493 45.3156 47.3708L45.7062 47.1104L46.5872 46.3468L47.1386 47.1104ZM48.5709 43.2039C48.8164 42.9216 48.9392 42.683 49.4825 42.683H50.0033C50.0894 43.0524 50.1336 42.9057 50.1336 43.2039C50.1336 43.9716 49.2093 44.7665 48.4407 44.7665H47.9199V44.3758L48.5709 43.2039ZM40.8883 40.2089L39.0837 40.7334L38.935 41.1204L38.9512 42.3541L40.2371 42.0319L41.93 40.4694L42.5188 39.3277L42.414 39.2334L40.8883 40.2089Z" fill="#344054"/>
<path fill-rule="evenodd" clip-rule="evenodd" d="M60.4204 64.0386L60.9423 64.0402L61.4622 63.7781L62.2435 62.7364V62.3457L65 54.2797L63.0247 54.2724C62.4902 54.2724 62.5347 55.0252 62.2435 55.4443V55.835L62.1132 56.3559L61.7226 57.9184L61.5658 58.5628L61.332 58.5695L61.2018 57.9184C61.1485 57.2786 60.9413 57.4414 60.9413 56.8767C60.9413 56.5848 60.8382 56.5909 60.6809 56.3559V55.9652L60.2902 54.4026C59.947 54.2323 60.3974 54.2724 59.8995 54.2724H57.8161C57.8347 55.1052 58.7456 56.9066 58.9862 57.79C59.1173 58.2707 60.2902 61.0286 60.2902 61.1738C60.2902 61.6093 59.8092 62.2155 59.3787 62.2155H58.0765L58.2367 63.9051L60.4204 64.0386ZM45.8361 61.1738L46.2268 60.9134L46.6175 60.5228H46.7477L47.1383 60.9134V61.1738L49.245 61.1719L49.0916 58.9602V55.7047C48.3316 55.4297 48.8726 54.1421 46.7477 54.1421H44.4037C43.9307 54.1421 43.947 54.2966 43.4923 54.4026L42.711 55.3141V55.4443L42.4506 56.2256L44.5587 56.5101L45.3153 55.7047L46.6175 55.9652L46.7742 56.6096L45.4456 57.0069L43.7527 57.3976L43.362 57.5278C42.8455 57.7147 42.1901 58.52 42.1901 59.2206V59.4811C42.1901 60.5405 43.1752 61.304 44.2735 61.304H44.9247C45.3735 61.304 45.4288 61.2077 45.8361 61.1738ZM46.357 59.6112L45.0549 59.8717L44.6642 59.6112V59.2206C44.6642 58.8689 44.7264 58.8615 44.8179 58.6226L45.5758 58.3091L46.7354 57.8761L46.7477 59.2206H46.4873L46.357 59.6112ZM20.444 59.4811H20.3137L20.1724 59.7346L19.9231 59.7414L19.1418 59.8717H19.0116L18.6209 59.6112V59.2206C18.6209 58.4138 20.0371 58.0739 20.7044 57.9184L20.5742 59.2206L20.444 59.4811ZM16.4073 58.5695C16.2141 58.7916 16.1468 58.7957 16.1468 59.2206V60.0019C16.5307 60.1568 16.8559 61.304 17.7094 61.304H18.3605C19.5261 61.304 20.0771 61.0681 20.7044 60.5228L21.095 61.1738H23.3087C22.8615 59.2539 23.3662 56.4002 22.6576 54.9234L22.3971 54.663C22.0121 54.4592 21.7171 54.1421 21.2252 54.1421H18.3605C17.655 54.1421 16.8165 54.8868 16.6677 55.4443L16.4073 56.2256L17.8397 56.3559H18.7511V55.9652H19.0116L19.1418 55.835L20.5902 55.7022L20.7044 56.6162C20.0209 56.6314 16.9759 57.4775 16.798 57.9184L16.4073 58.5695ZM40.7578 55.1838C40.4908 54.6793 40.0889 54.1421 39.3254 54.1421H38.2836C37.9136 54.1421 37.2989 54.6438 37.1116 54.9234H36.9814V55.1838L36.5908 55.0536V54.9234C36.4303 54.6839 35.7167 54.1421 35.4188 54.1421H34.6376C33.8186 54.1421 33.2697 54.5685 32.9447 55.0536H32.6844V54.5328V54.2724H30.8613C30.5613 54.2724 30.4706 54.363 30.4706 54.6631V61.1738H32.8145V57.3976C32.8145 56.9727 32.8818 56.9687 33.075 56.7465L33.3354 56.2257H33.8563C35.2406 56.2257 34.0485 60.2455 34.6376 61.1738C37.067 61.1738 36.9823 61.7362 36.9814 59.4811C36.9811 58.3721 36.6542 56.2257 37.7628 56.2257C38.3706 56.2257 38.6743 56.5293 38.6743 57.1371V61.1738H41.0181C41.0181 59.6705 41.3476 56.1135 40.7578 55.1838ZM56.2535 60.653L56.4917 60.6328L56.9045 60.1321C57.0033 59.9455 57.2952 59.3408 57.2952 59.0904C57.2952 58.7922 57.2511 58.9389 57.165 58.5695H55.0816L55.076 59.0805L54.6909 59.3509C54.5413 59.5549 54.6669 59.6112 54.3002 59.6112H53.6492C53.1631 59.6112 52.8583 58.8581 52.6075 58.5695V57.0069L52.8678 56.7465C52.9894 56.2915 53.4714 55.9652 54.0398 55.9652C54.5529 55.9652 54.8468 56.2975 54.9513 56.7465L55.3452 56.7765L57.0347 56.6162C57.4591 56.445 57.3905 56.4509 57.165 56.0954V55.7048L56.7744 55.4443V55.1838C56.0304 54.6857 55.7837 54.1421 54.5607 54.1421H53.3887C52.7305 54.1421 52.697 54.3518 52.0866 54.4026H51.9564C51.2365 55.0283 50.2635 55.6791 50.2635 57.0069V58.5695C50.2635 59.0508 50.3299 59.2016 50.524 59.4811L50.6542 59.6112L51.4354 60.653C51.8982 60.8978 52.0856 61.304 52.7376 61.304H53.9095C55.0613 61.304 55.6509 61.2246 56.2535 60.653ZM12.5007 56.4861C12.5679 57.293 12.631 57.9575 12.631 58.9602C12.631 59.5929 12.372 61.1738 13.0216 61.1738H15.1052V56.8767C15.1052 55.885 14.925 55.4372 14.5842 54.7933L13.9332 54.2724C13.5259 54.2384 13.4706 54.1421 13.0216 54.1421H12.8914C11.2614 54.1421 11.5624 54.7806 10.808 55.0536V54.4026V51.5378H8.46405V61.1738H10.808C11.5061 60.0736 10.301 57.3693 11.3288 56.6162C11.4063 56.326 11.3593 56.2256 11.7195 56.2256H11.8497C12.2729 56.2256 11.9481 56.3385 12.5007 56.4861ZM26.9548 61.1738C26.9548 60.3057 26.9566 59.4375 26.9548 58.5695C26.9515 57.0366 27.3283 57.1301 27.3454 56.3559C27.6375 56.2878 27.6449 56.2257 27.9966 56.2257H28.7778C28.9542 55.4687 29.5315 55.029 29.1685 54.2724C28.8765 54.2043 28.8691 54.1422 28.5174 54.1422H28.2569C27.185 54.1422 27.2845 54.9703 26.6944 55.1839V54.2724H24.6109V61.1738H26.9548ZM2.47407 55.4443V53.4911H3.77633L4.02562 53.498L4.1669 53.7515C4.3185 53.9258 4.55758 54.0857 4.55758 54.4026V55.0537C4.55758 55.4657 4.23733 55.4975 3.90656 55.5745L2.6043 55.7048L2.47407 55.4443ZM28.3872 54.4026C20.4356 54.4026 28.6195 54.4026 28.3872 54.4026V54.4026ZM2.60431 57.6581C5.19616 57.6581 7.16191 57.39 7.16191 54.7933V53.8817C7.16191 52.8659 6.13008 51.7447 5.20873 51.6681H0V61.0436H2.08351V60.7832H2.34386V58.5695C2.34386 58.0883 2.4102 57.9374 2.60431 57.6581Z" fill="#344054"/>
</svg>
