<svg width="47" height="48" viewBox="0 0 47 48" fill="none" xmlns="http://www.w3.org/2000/svg">
<path fill-rule="evenodd" clip-rule="evenodd" d="M21.3457 2.8231L23.2535 3.30196V7.29502C23.2535 8.24826 23.8293 7.90434 24.3724 7.76064L24.6628 3.30197H25.8373C26.2217 3.30197 26.5419 3.16137 26.5419 2.8323C26.5419 1.73622 22.8073 1.89274 21.6381 1.90182L21.3457 2.8231Z" fill="#344054"/>
<path fill-rule="evenodd" clip-rule="evenodd" d="M9.16075 23.7369C9.16075 16.0363 15.5924 9.40886 23.2539 9.40886C31.0423 9.40886 37.5819 15.7866 37.5819 23.5021C37.5819 30.7167 31.6601 37.5952 24.7452 37.584L24.1934 33.1324C23.7924 30.2118 26.7341 28.2075 27.1576 26.6873L24.1934 29.3743C24.1475 28.8218 23.9811 28.1998 23.4888 28.1998C22.7182 28.1998 22.6075 28.6736 22.5461 29.3778L19.2609 26.7904C20.3149 28.3644 22.5492 29.8256 22.5492 32.6626C22.5492 33.5998 22.2199 37.5952 21.6097 37.5952C15.2583 37.5952 9.16075 30.4205 9.16075 23.7369ZM29.3609 6.82523C29.3609 6.16058 30.1065 5.18095 30.7702 5.18095H31.7098C32.3735 5.18095 33.1191 6.16057 33.1191 6.82523C33.1191 7.89064 32.3879 8.70424 31.2401 8.70424C30.1038 8.70424 29.3609 7.96138 29.3609 6.82523ZM28.1865 6.59029V7.2949C28.1865 8.56994 29.0784 8.93747 29.5958 9.64379C27.6812 9.48449 26.3434 8.4694 23.4888 8.4694H23.2539C15.0912 8.4694 8.22119 15.3542 8.22119 23.5021V23.7369C8.22119 31.8848 15.0912 38.7696 23.2539 38.7696H23.4888C31.4348 38.7696 38.5215 32.0156 38.5215 24.2067V23.0323C38.5215 19.8986 37.1195 16.8982 35.8007 14.9483C33.7193 11.871 32.4271 11.9312 30.0656 9.87873C32.0762 9.9235 34.2936 9.76195 34.2936 7.2949V6.59028C34.2936 5.13725 32.6821 3.77173 31.2401 3.77173C29.6648 3.77173 28.1865 5.04324 28.1865 6.59029Z" fill="#344054"/>
<path fill-rule="evenodd" clip-rule="evenodd" d="M7.75146 8.93947C8.12199 9.63992 10.833 13.1674 11.5096 13.1674C12.0521 13.1674 14.2406 11.0652 14.6134 10.5333L13.8 9.81118L11.5437 11.7298L10.991 11.0058L12.7343 9.12398L11.9409 8.42193L10.072 9.9131L9.32512 9.33392L11.2746 7.76497C11.2631 7.24722 11.3464 6.59058 10.805 6.59058C10.1993 6.59058 8.34016 8.54523 7.75146 8.93947Z" fill="#344054"/>
<path fill-rule="evenodd" clip-rule="evenodd" d="M39.4609 11.5227C39.4609 12.064 39.2974 12.2274 38.7562 12.2274C38.098 12.2274 37.4003 11.2487 37.112 10.818C38.0212 10.5753 37.9302 10.1134 38.2864 10.1134C38.5175 10.1134 39.4609 11.0155 39.4609 11.5227ZM34.2935 11.5227C34.3049 12.0406 34.2217 12.6971 34.7631 12.6971C35.1807 12.6971 36.0694 11.984 36.3571 11.8079L37.0702 12.4514L36.4356 15.0119L37.0837 15.5498L37.3448 15.6064L38.0516 13.4019C39.1301 13.6531 40.6353 13.1229 40.6353 11.9925V11.5227C40.6353 10.6107 38.7915 8.46924 38.5214 8.46924C37.577 8.46924 35.4697 11.2086 34.2935 11.5227Z" fill="#344054"/>
<path fill-rule="evenodd" clip-rule="evenodd" d="M22.7839 17.6298L23.0188 15.2809V17.6298C23.8878 17.0478 24.8979 15.9849 24.8979 14.5763C24.8979 13.2891 23.8023 11.3249 22.7839 11.053C22.4656 12.2452 21.818 12.5087 21.4973 14.4825C21.318 15.5856 21.7721 17.3596 22.7839 17.6298Z" fill="#344054"/>
<path fill-rule="evenodd" clip-rule="evenodd" d="M3.52344 15.751C4.58896 15.9993 7.5961 18.0999 8.22111 18.0999C8.76268 18.0999 8.67946 17.4434 8.64633 17.0083L7.04041 16.2176L8.1929 13.9061L7.35591 13.2968L6.07414 15.5778L4.93276 15.0464C5.21546 14.6243 6.10715 13.291 6.10715 12.6975C6.10715 12.3131 5.96656 11.9929 5.63738 11.9929C4.8911 11.9929 3.54577 14.7483 3.52344 15.751Z" fill="#344054"/>
<path fill-rule="evenodd" clip-rule="evenodd" d="M38.0713 16.7454L39.226 20.6833H40.1656C40.4311 19.43 38.9339 17.3949 39.9306 17.3949C41.0681 17.3949 40.6837 19.5089 41.5749 19.5089C41.9593 19.5089 42.2795 19.3683 42.2795 19.0391C42.2795 18.3335 41.769 17.5238 41.5883 16.7415L42.5202 16.4531L43.454 19.0391L44.3497 19.0223L44.6227 18.3368L43.222 14.9478L42.9681 15.0006L38.0713 16.7454Z" fill="#344054"/>
<path fill-rule="evenodd" clip-rule="evenodd" d="M2.11419 19.744L7.48785 20.9093L7.75154 19.9788C6.91412 19.5358 3.80088 18.5696 2.58398 18.5696C1.63086 18.5696 1.97476 19.1453 2.11419 19.744Z" fill="#344054"/>
<path fill-rule="evenodd" clip-rule="evenodd" d="M11.7441 18.0997C12.7143 20.1214 13.3237 21.8579 16.4974 21.7843L15.5308 20.8559L16.6768 21.388C16.6288 19.2362 15.0769 17.8647 12.9187 17.8647C12.5486 17.8647 12.0284 17.9893 11.7441 18.0997Z" fill="#344054"/>
<path fill-rule="evenodd" clip-rule="evenodd" d="M29.5957 21.623L30.6166 20.9691L30.0655 21.8579C32.5653 21.8579 34.0585 20.7605 34.0585 18.3345V17.1602C31.6603 17.7189 29.8187 18.9433 29.5957 21.623Z" fill="#676767"/>
<path fill-rule="evenodd" clip-rule="evenodd" d="M16.9118 18.0997C16.9118 20.9256 18.1733 21.8783 19.2606 23.5021C18.2083 23.2211 17.6352 22.0927 15.7373 22.0927C14.1025 22.0927 11.9462 23.2036 11.2744 24.2067C12.6319 25.1157 14.2714 26.7904 16.442 26.7904H17.6164C18.6601 26.7904 19.7473 26.4689 20.1803 25.9272L16.909 24.9474L20.4441 25.1395L19.5324 23.6712L21.3405 24.6906L19.9897 20.9036L22.0792 23.9718C24.0146 19.9381 20.8182 15.3681 16.9118 15.281V18.0997Z" fill="#344054"/>
<path fill-rule="evenodd" clip-rule="evenodd" d="M23.2539 21.6232C23.2539 22.8577 23.7258 25.0421 24.6632 25.3813V24.6767C24.6632 23.2987 25.0301 22.2124 25.6056 21.3885L25.368 25.3813C27.0251 24.5046 29.1261 22.4344 29.1261 19.9789C29.1261 17.6534 27.9485 15.74 27.0121 14.3418C25.24 15.5285 23.2539 18.6269 23.2539 21.6232Z" fill="#344054"/>
<path fill-rule="evenodd" clip-rule="evenodd" d="M5.63764 23.2674V25.1465H1.87953C1.49501 25.1465 1.1748 25.2871 1.1748 25.6163C1.1748 26.1576 1.33827 26.3209 1.87953 26.3209H6.34237C6.88363 26.3209 7.04699 26.1576 7.04699 25.6163V23.2674C7.04699 22.6393 6.70798 22.5728 6.34237 22.3279C5.97676 22.5728 5.63764 22.6393 5.63764 23.2674Z" fill="#344054"/>
<path fill-rule="evenodd" clip-rule="evenodd" d="M26.7769 25.8511L29.3976 25.2151L27.2465 26.5558C29.3104 27.6478 31.6888 27.7119 33.4184 26.1508C35.2948 24.4574 36.7958 22.5627 32.6489 22.5627H32.1791C29.8701 22.5627 27.242 24.1095 26.7769 25.8511Z" fill="#344054"/>
<path fill-rule="evenodd" clip-rule="evenodd" d="M18.9772 28.3553C18.6157 27.8755 18.1217 27.7302 17.1464 27.7302C15.1436 27.7302 13.4305 29.3607 13.3882 31.2535H15.972C17.3316 31.2535 18.9486 29.8376 19.2605 28.6698L17.8064 29.0658L18.9772 28.3553Z" fill="#344054"/>
<path fill-rule="evenodd" clip-rule="evenodd" d="M27.7163 27.7302V28.2L28.937 28.5386L27.4893 28.3994C28.266 31.8022 30.3509 31.2489 33.1187 31.0187C32.7731 29.5348 30.7793 27.7302 28.8908 27.7302L27.7163 27.7302Z" fill="#344054"/>
<path fill-rule="evenodd" clip-rule="evenodd" d="M4.46289 30.0792V30.7838C4.46289 31.4504 5.2737 31.9583 5.87222 31.9583C6.47074 31.9583 7.28144 31.4504 7.28144 30.7838V30.0792C7.28144 29.4126 6.47074 28.9048 5.87222 28.9048C5.2737 28.9048 4.46289 29.4126 4.46289 30.0792Z" fill="#344054"/>
<path fill-rule="evenodd" clip-rule="evenodd" d="M39.2261 30.3139C39.2261 30.9784 39.9717 31.958 40.6354 31.958C41.5843 31.958 42.2796 31.4466 42.2796 30.5487C42.2796 29.5999 41.7682 28.9045 40.8703 28.9045C40.1673 28.9045 39.2261 29.7738 39.2261 30.3139Z" fill="#344054"/>
<path fill-rule="evenodd" clip-rule="evenodd" d="M39.4606 35.7162C39.4606 35.0581 38.4818 34.3603 38.0384 34.0671L37.7725 34.7599C38.6229 34.9921 38.9121 35.2413 38.9908 36.186L37.1543 35.1789C37.2788 35.8721 37.7715 36.6558 38.521 36.6558C39.0708 36.6558 39.4606 36.266 39.4606 35.7162Z" fill="#344054"/>
<path fill-rule="evenodd" clip-rule="evenodd" d="M8.45587 36.8906C9.29917 36.6654 9.88561 35.5797 10.1 34.7766L7.51514 35.4778C8.37018 36.6469 8.95567 34.7453 8.45587 36.8906Z" fill="#344054"/>
<path fill-rule="evenodd" clip-rule="evenodd" d="M36.6422 38.2999C36.3774 38.1225 35.7027 37.7484 35.7027 37.3604C35.7027 37.1514 35.9635 36.8906 36.1725 36.8906C36.4584 36.8906 36.8771 37.3765 36.8771 37.8302C36.8771 37.8618 36.646 38.2954 36.6422 38.2999ZM37.5818 37.8302C37.3856 37.4593 36.8804 36.4209 36.4074 36.4209C36.0095 36.4209 35.5296 36.7336 35.2329 36.8906V37.3603C35.2329 37.9578 35.948 38.7697 36.6422 38.7697C37.0302 38.7697 37.4043 38.0951 37.5818 37.8302Z" fill="#344054"/>
<path fill-rule="evenodd" clip-rule="evenodd" d="M12.0845 36.7056C11.1141 36.8869 10.5629 37.6818 10.335 38.535C11.1441 38.319 10.9567 38.0652 11.2745 38.0652C11.3061 38.0652 11.7398 38.2963 11.7443 38.3001L11.1694 39.4249C12.1397 39.2435 12.6909 38.4486 12.9188 37.5954L12.1508 37.9648L11.5456 37.8474L12.0845 36.7056Z" fill="#344054"/>
<path fill-rule="evenodd" clip-rule="evenodd" d="M32.6494 39.0044C33.4493 39.218 34.0771 39.6028 34.2937 40.4137C35.2468 39.7154 34.5285 40.2527 34.5285 39.0044C34.5285 38.3701 34.4163 38.3568 34.2937 37.8301L33.7286 38.9744C33.6065 38.8588 33.2595 38.5347 33.1192 38.5347C32.8023 38.5347 32.7668 38.7954 32.6494 39.0044Z" fill="#344054"/>
<path fill-rule="evenodd" clip-rule="evenodd" d="M14.0117 39.0553L15.0257 39.4871C14.9205 38.4499 14.7629 38.7786 13.8582 38.2998L12.6001 40.3633L14.0728 40.9322L13.4389 40.1194C13.9401 39.4149 13.2836 39.8376 14.5656 39.9423L14.0117 39.0553Z" fill="#344054"/>
<path fill-rule="evenodd" clip-rule="evenodd" d="M16.1949 41.3055L16.5278 42.3572C16.7995 41.7661 16.9116 41.7529 16.9116 41.1186V39.7092L15.0347 41.5967L16.1949 41.3055Z" fill="#344054"/>
<path fill-rule="evenodd" clip-rule="evenodd" d="M30.5351 40.6488V40.179H31.0048V40.6488H30.5351ZM31.7095 41.8232C32.4297 41.3032 31.7747 40.9975 31.4746 39.7092L29.7886 39.9591L30.6172 42.2635C31.1847 41.8171 31.1744 41.9615 30.7699 41.1186C31.8909 41.2411 31.1663 40.7964 31.7095 41.8232Z" fill="#344054"/>
<path fill-rule="evenodd" clip-rule="evenodd" d="M19.0428 40.4188L18.3209 40.4136L17.8447 42.526C18.6886 42.9295 19.0859 43.0946 19.4953 42.5276L18.4876 42.2723L19.0428 40.4188Z" fill="#344054"/>
<path fill-rule="evenodd" clip-rule="evenodd" d="M29.0853 40.7897L29.126 40.4138L27.4912 40.6993L28.028 42.9799L29.3496 42.7064L29.3607 42.2931H28.4212V41.8231H29.126V41.3533L28.1222 41.2043L29.0853 40.7897Z" fill="#344054"/>
<path fill-rule="evenodd" clip-rule="evenodd" d="M20.2002 40.8838V41.3535H20.9049L20.6114 43.2233C21.2445 43.0247 21.3747 42.9625 21.3747 42.0582V41.3535L22.0625 41.6322C21.9396 41.0649 22.0244 40.8838 21.3747 40.8838H20.2002Z" fill="#344054"/>
<path fill-rule="evenodd" clip-rule="evenodd" d="M26.542 40.8838H25.8374C25.9299 41.6056 26.0722 41.7278 26.0722 42.528V43.2326H26.7769C26.6542 42.7058 26.542 42.6926 26.542 42.0582V40.8838Z" fill="#344054"/>
<path fill-rule="evenodd" clip-rule="evenodd" d="M22.7842 41.1187C22.8668 41.3036 23.019 41.9931 23.019 42.293V43.4674H23.4888V42.528H24.1934V43.4674H24.8981L24.6199 41.1246L24.1934 41.1187V42.0582H23.4888V41.1187H22.7842Z" fill="#344054"/>
<path fill-rule="evenodd" clip-rule="evenodd" d="M14.5629 4.24149C14.5629 5.85136 16.0202 6.1206 17.6164 6.1206H18.3211C18.2608 8.8289 15.2676 6.02562 15.2676 7.99971C15.2676 8.44171 16.134 8.70433 16.6769 8.70433C18.0737 8.70433 19.7304 7.86339 19.7304 6.59038C19.7304 4.57334 17.2026 5.17955 15.7373 4.47644L16.21 3.5387C18.0973 3.53688 18.2855 4.19363 18.3211 2.59733L16.442 2.36249C17.4619 1.65371 20.3211 1.18799 22.0792 1.18799H24.663C35.8859 1.18799 45.8026 11.6584 45.8026 23.2672C45.2989 22.6877 45.0279 22.0928 43.9236 22.0928C42.6096 22.0928 42.0722 24.2542 41.8097 25.3812C41.1465 25.326 40.87 25.3867 40.87 24.6766V24.2068C40.87 23.1908 41.3398 23.2601 41.3398 22.5626C41.3398 22.021 40.6833 22.1044 40.1654 22.0928C39.9743 22.9132 39.6956 22.8838 39.6956 23.737V24.6766C39.6956 25.5349 40.3438 26.5557 41.105 26.5557H41.8097C43.6139 26.5557 42.668 23.7279 44.3933 23.2672C44.663 23.811 44.6843 23.1608 44.6283 23.9719L44.4624 26.3093L44.7617 26.4525L45.8111 25.3895C45.8026 35.7007 35.1576 46.0512 24.663 46.0512H22.0792C11.1362 46.0512 0.939547 35.5486 0.939547 24.4416V22.7974C0.939547 13.7694 8.47522 4.23456 15.5025 2.59732C15.1502 3.1233 14.5629 3.42256 14.5629 4.00666V4.24149ZM0 25.1464C0 31.4288 4.08666 37.9097 7.45404 40.9459C10.6394 43.8181 18.1611 48.0194 24.2406 47.0431C28.974 46.2831 29.8451 46.6492 33.668 44.7213C36.5648 43.2605 38.1688 42.0393 40.3421 39.886C43.5299 36.7277 47.153 29.908 46.995 23.5022C46.825 16.6088 43.6741 10.6776 40.107 7.11853C37.9522 4.96847 36.1684 3.771 33.3554 2.36091C29.6471 0.501994 28.5876 0.970277 24.0463 0.148993C18.2904 -0.891955 10.0991 3.77025 7.33485 6.40888C4.00858 9.58408 5.17607e-05 15.7274 5.17607e-05 22.0929L0 25.1464Z" fill="#344054"/>
</svg>
