<svg width="121" height="38" viewBox="0 0 121 38" fill="none" xmlns="http://www.w3.org/2000/svg">
<path fill-rule="evenodd" clip-rule="evenodd" d="M11.7399 6.28109H11.9052C13.1302 4.60923 18.4468 1.32235 21.4924 1.32235H22.8148C23.6867 1.32235 25.1873 1.99512 25.7901 2.31412L25.8231 6.4795L26.1207 6.11582L25.9554 1.32236C25.5643 0.738341 25.2628 0 24.3024 0H13.3929C11.0801 0 11.7399 3.98346 11.7399 6.28109Z" fill="#475367"/>
<path fill-rule="evenodd" clip-rule="evenodd" d="M31.4097 5.7851L31.5749 5.28931H30.418L31.4097 5.4545V5.7851Z" fill="#B6557A"/>
<path fill-rule="evenodd" clip-rule="evenodd" d="M11.9051 6.28127V12.0666H6.11981L0.00390625 17.3559V24.6289C1.71867 24.2294 11.776 17.3314 13.1872 15.9933C14.4455 14.8002 17.8594 12.357 19.4117 11.3084C21.8753 9.64417 23.5877 8.53545 26.2859 7.10774L27.2776 6.61185H27.6082C28.0547 6.61185 28.064 6.533 28.4347 6.44656C28.0926 6.91345 27.3233 7.01318 26.7818 7.27303C26.0338 7.77391 25.225 8.7622 25.1343 9.87591L26.7818 10.083C28.8253 10.3541 30.0216 8.52439 30.7488 7.43834L30.7208 7.08919L31.2447 6.44657L31.41 5.78539V5.4548L30.4182 5.28959C29.7399 5.13153 29.3418 4.79362 28.4347 4.79362C27.55 4.79362 26.3126 5.39691 26.1206 6.11598L25.823 6.47966L25.79 2.31428C25.1872 1.99529 23.6866 1.32251 22.8147 1.32251H21.4923C18.4467 1.32251 13.1301 4.60942 11.9051 6.28127Z" fill="#344054"/>
<path fill-rule="evenodd" clip-rule="evenodd" d="M30.7488 7.43807L31.2445 6.44629L30.7207 7.08891L30.7488 7.43807Z" fill="#D1538A"/>
<path fill-rule="evenodd" clip-rule="evenodd" d="M6.11963 12.0665H11.905V6.28125H11.7397V11.8934L6.11963 12.0665Z" fill="#D93778"/>
<path fill-rule="evenodd" clip-rule="evenodd" d="M78.0234 23.6368C76.6254 23.6368 75.0481 22.3334 75.0481 20.9921V20.8268C75.0481 19.1249 75.7309 17.5209 77.3622 17.5209H78.6845C79.9115 17.5209 80.9987 18.9989 80.9987 20.331V20.4962C80.9987 22.3344 79.7293 23.6368 78.0234 23.6368ZM81.3293 16.3639C80.1987 15.6068 79.9185 14.711 77.6928 14.711H77.1969C74.7111 14.711 72.0728 17.334 72.0728 19.6698V20.6615C72.0728 23.8491 74.5924 26.2815 77.8581 26.2815H78.1887C79.8537 26.2815 80.4621 25.2639 81.3293 24.6286C81.3293 25.3646 81.1089 26.1162 81.8251 26.1162H83.6434C84.0243 26.1162 84.1393 26.0012 84.1393 25.6204V10.9092C84.1393 10.5283 84.0243 10.4133 83.6434 10.4133H81.3293L81.3293 16.3639Z" fill="#344054"/>
<path fill-rule="evenodd" clip-rule="evenodd" d="M8.10304 22.6451L8.26834 22.8104C9.56804 22.5076 12.3393 21.0523 14.0174 20.4601C15.928 19.7858 17.9279 18.964 20.0382 18.3815C23.9795 17.2934 28.9743 15.8681 33.8891 15.8681H37.6909V13.554C37.4196 13.0412 37.3301 12.7275 36.5338 12.7275H33.8891C31.8991 12.7275 27.8619 13.5486 26.2632 14.0275C23.6595 14.8076 21.8984 15.6191 19.6748 16.365C17.5212 17.0875 9.5666 21.373 8.10304 22.6451Z" fill="#475367"/>
<path fill-rule="evenodd" clip-rule="evenodd" d="M0.0038111 17.3559L6.11971 12.0666C-0.36372 12.0666 0.0038111 10.9798 0.0038111 17.3559Z" fill="#475367"/>
<path fill-rule="evenodd" clip-rule="evenodd" d="M86.9489 20.4963C86.9489 17.9613 88.7209 16.0334 91.2466 16.0334C93.8935 16.0334 95.5442 17.6362 95.5442 20.3311V20.8269C95.5442 22.9087 93.9001 24.9593 92.073 24.9593H90.5854C88.7161 24.9593 86.9489 22.6592 86.9489 20.4963ZM86.9489 17.0251V15.0417H85.6265V30.5792H86.9489V24.1328C87.6258 24.3779 88.6511 26.1163 90.2548 26.1163H92.2384C94.644 26.1163 96.8666 23.4045 96.8666 20.8269V19.8351C96.8666 17.6254 94.8823 15.4454 93.0586 15.0479C89.2357 14.2144 89.0742 15.602 86.9489 17.0251Z" fill="#344054"/>
<path fill-rule="evenodd" clip-rule="evenodd" d="M109.595 24.4635L108.768 23.637C107.966 24.1745 107.597 24.9594 106.123 24.9594H105.132C100.102 24.9594 103.282 14.8765 101.66 14.8765H100.834V21.1576C100.834 23.7077 102.552 26.1163 104.966 26.1163H106.454C108.088 26.1163 108.708 25.0571 109.595 24.4635Z" fill="#344054"/>
<path fill-rule="evenodd" clip-rule="evenodd" d="M6.11963 23.8022L8.26847 22.8104L8.10318 22.6453L6.11963 23.8022Z" fill="#B6B131"/>
<path fill-rule="evenodd" clip-rule="evenodd" d="M98.0239 26.1161H99.3462V10.4133H98.0239V26.1161Z" fill="#344054"/>
<path fill-rule="evenodd" clip-rule="evenodd" d="M8.26878 22.8104L6.11994 23.8021L1.90283 25.949L1.98758 26.1162H11.74V28.265C14.413 27.6423 17.3259 26.3453 20.3705 25.6555C23.4933 24.9481 26.6249 24.4633 30.4184 24.4633L33.3973 24.4093L37.6913 24.7939V13.554V15.8681H33.8896C28.9748 15.8681 23.98 17.2934 20.0387 18.3814C17.9283 18.964 15.9284 19.7857 14.0179 20.46C12.3398 21.0523 9.56847 22.5075 8.26878 22.8104Z" fill="#344054"/>
<path fill-rule="evenodd" clip-rule="evenodd" d="M108.768 23.637L109.595 24.4635C109.595 25.2295 109.357 26.1163 110.091 26.1163H110.421C110.802 26.1163 110.917 26.0013 110.917 25.6205V15.3723C110.917 14.9914 110.802 14.8765 110.421 14.8765H109.595V21.3229C109.595 22.1537 109.107 23.1316 108.768 23.637Z" fill="#344054"/>
<path fill-rule="evenodd" clip-rule="evenodd" d="M44.4682 26.1161C46.0559 26.1161 43.3739 17.5209 46.7823 17.5209H47.6088C50.5515 17.5209 48.0652 26.1161 49.5924 26.1161H52.0718V20.3309C52.0718 18.9145 52.709 17.5208 54.0553 17.5208H54.5512C55.7754 17.5208 56.2041 18.5817 56.2041 19.835V26.1161H58.6836C59.0645 26.1161 59.1794 26.0011 59.1794 25.6203V20.0003C59.1794 17.2467 57.7078 14.8762 55.0471 14.8762H54.0553C52.0971 14.8762 51.7404 16.0308 50.7494 16.6944C50.4829 15.6962 48.9031 14.7109 47.6088 14.7109C46.0741 14.7109 45.608 15.4914 44.7988 16.0332L44.6414 15.0399L41.9888 15.0415V26.1161L44.4682 26.1161Z" fill="#344054"/>
<path fill-rule="evenodd" clip-rule="evenodd" d="M113.231 17.6864C113.231 16.426 114.869 16.0334 116.206 16.0334H116.702C118.645 16.0334 119.444 17.0252 119.843 17.0252C120.235 17.0252 119.845 16.7679 120.504 16.5293C120.214 15.4444 117.801 14.7112 116.372 14.7112C114.612 14.7112 112.074 15.694 112.074 17.3558V18.3476C112.074 21.6933 119.677 20.1447 119.677 22.8105V23.1411C119.677 24.2667 118.318 24.9593 117.198 24.9593H115.876C113.986 24.9593 113.065 23.3616 112.239 23.1411L111.542 23.9298C112.235 24.9487 113.956 26.1163 115.545 26.1163H117.694C119.018 26.1163 121 24.7007 121 23.3064V22.9758C121 18.6133 113.231 20.8109 113.231 17.8517L113.231 17.6864Z" fill="#344054"/>
<path fill-rule="evenodd" clip-rule="evenodd" d="M63.3118 19.1741C63.9435 16.8082 68.2698 16.3324 68.9318 19.1741H63.3118ZM65.9565 23.637C64.5838 23.637 63.4195 22.7826 63.3118 21.4882H71.7419V19.3394C71.7419 16.7435 68.907 14.5459 66.1218 14.5459C63.1728 14.5459 60.3364 16.895 60.3364 19.8352V21.1576C60.3364 23.8856 62.9716 26.2817 65.7912 26.2817H67.4442C68.3562 26.2817 70.6676 25.0273 71.0807 24.4635L69.1985 22.5408C68.8536 23.318 67.6624 23.637 66.783 23.637L65.9565 23.637Z" fill="#344054"/>
<path fill-rule="evenodd" clip-rule="evenodd" d="M11.7398 28.2649V29.2567L18.5169 28.4302L22.3214 28.391L25.7899 28.5955V25.9509H36.0382C36.4846 25.9509 36.494 25.8719 36.8646 25.7856L37.6911 24.7938L33.3971 24.4092L30.4181 24.4632C26.6247 24.4632 23.4931 24.948 20.3703 25.6554C17.3257 26.3452 14.4128 27.6422 11.7398 28.2649Z" fill="#475367"/>
<path fill-rule="evenodd" clip-rule="evenodd" d="M11.7397 29.2571V34.7118C12.1289 34.7442 15.267 35.4534 15.6411 35.6041C16.3552 35.8919 18.5117 36.7268 19.0128 36.8606L19.3292 36.8693L19.5087 37.1912L24.6327 37.3727L25.6246 36.3648L25.7899 28.5959L22.3214 28.3914L18.5169 28.4306L11.7397 29.2571Z" fill="#344054"/>
<path fill-rule="evenodd" clip-rule="evenodd" d="M28.4346 36.6951H28.7652L28.7983 36.3315L29.0957 36.6951H29.4263L29.261 36.3646C29.3743 36.1629 29.4263 36.1878 29.4263 35.8687C29.4263 35.4578 28.8491 35.5381 28.4346 35.5381V36.6951Z" fill="#424242"/>
<path fill-rule="evenodd" clip-rule="evenodd" d="M28.4346 35.5381C28.5227 35.4114 28.5235 35.2075 28.7652 35.2075C29.1864 35.2075 29.757 35.5649 29.757 36.034V36.1993V36.5299L29.4264 36.6952L29.2611 37.0258H28.9305L28.614 37.017L28.4346 36.6952L28.1128 36.5157L28.104 36.1993V36.034V35.7034L28.4346 35.5381ZM29.0958 37.3564C29.4938 37.3564 30.0876 36.7625 30.0876 36.3646V36.1993C30.0876 35.5952 29.6314 34.877 29.0958 34.877H28.9305C28.1589 34.877 27.7734 35.2623 27.7734 36.034V36.5299C27.7734 37.0642 28.3735 37.3564 28.9305 37.3564H29.0958Z" fill="#344054"/>
<path fill-rule="evenodd" clip-rule="evenodd" d="M19.5087 37.1909L19.3292 36.869L19.0127 36.8604L19.1921 37.1821L19.5087 37.1909Z" fill="#B6557A"/>
</svg>
