<svg width="155" height="48" viewBox="0 0 155 48" fill="none" xmlns="http://www.w3.org/2000/svg">
<path fill-rule="evenodd" clip-rule="evenodd" d="M134.423 20.197C134.423 15.4307 139.586 13.373 143.148 11.9645C145.137 11.178 147.131 10.2309 148.789 9.12694C149.715 8.51025 150.312 8.00878 151.024 7.17013C151.397 6.73113 151.61 6.47739 151.934 5.9844C152.163 5.63719 152.446 4.76953 152.714 4.57317C152.714 10.3747 149.851 12.8681 145.855 14.6721C143.934 15.5396 141.749 16.2104 139.718 17.0137C138.818 17.3698 137.64 17.8919 136.88 18.3676C135.867 19.002 135.247 19.6448 134.423 20.197ZM134.613 17.3389C135.011 12.5578 138.255 9.71618 141.918 8.16256C143.85 7.34318 145.792 6.56344 147.664 5.71569C148.654 5.26728 149.472 4.86237 150.333 4.28763C151.234 3.68529 151.937 2.83814 152.619 2.38188C152.619 6.99671 147.887 9.33856 144.647 10.8914C142.75 11.8002 140.847 12.5158 138.995 13.4328C137.999 13.9267 137.358 14.4373 136.518 15.0524C135.641 15.6953 135.009 17.0489 134.613 17.3389ZM134.042 20.7687L134.327 20.8638C135.039 20.3875 135.673 19.6027 136.632 18.9763C137.51 18.402 138.489 17.9747 139.472 17.5296C141.427 16.6437 143.698 16.0361 145.664 15.1478C147.651 14.2499 149.509 13.325 150.791 11.7004C151.982 10.1911 153.095 8.08699 153.095 5.43051V3.52521C153.095 3.31157 153.02 3.31605 152.904 3.14406C153.022 3.04627 153 3.29939 153 2.95356V1.71509C152.263 1.73159 152.191 2.38161 151.723 2.72512C151.218 3.09594 150.951 3.40135 150.39 3.77294C149.261 4.52028 148.551 4.83325 147.316 5.46244C145.216 6.53201 142.833 7.27657 140.677 8.35108C135.997 10.6847 134.042 13.8472 134.042 20.7687Z" fill="#F2F3F6"/>
<path fill-rule="evenodd" clip-rule="evenodd" d="M134.613 17.3389C135.009 17.0489 135.641 15.6953 136.519 15.0524C137.358 14.4373 137.999 13.9267 138.996 13.4328C140.847 12.5158 142.75 11.8002 144.647 10.8914C147.887 9.33852 152.619 6.99669 152.619 2.38184C151.938 2.83811 151.234 3.68525 150.333 4.28759C149.472 4.86233 148.654 5.26724 147.664 5.71565C145.792 6.5634 143.85 7.34314 141.918 8.16252C138.255 9.71612 135.011 12.5577 134.613 17.3389Z" fill="#6F6F6F"/>
<path fill-rule="evenodd" clip-rule="evenodd" d="M134.423 20.1971C135.247 19.6449 135.867 19.0021 136.88 18.3677C137.64 17.892 138.818 17.3698 139.718 17.0138C141.749 16.2105 143.934 15.5397 145.856 14.6722C149.851 12.8682 152.714 10.3747 152.714 4.57324C152.446 4.7696 152.163 5.63726 151.934 5.98448C151.61 6.47746 151.397 6.7312 151.024 7.1702C150.312 8.00885 149.715 8.51032 148.789 9.12701C147.132 10.231 145.137 11.1781 143.148 11.9646C139.586 13.3731 134.423 15.4308 134.423 20.1971Z" fill="#D7D7D7"/>
<path fill-rule="evenodd" clip-rule="evenodd" d="M36.6783 22.3879H35.8208C35.4407 22.6424 34.9144 22.9752 34.8682 23.531H36.4876C36.1312 25.0616 35.3445 28.0626 35.3445 29.7235C35.3445 30.316 35.6642 31.0572 36.2971 31.0572H36.8688C37.4705 31.0572 38.7954 30.2791 39.2111 29.9699C39.8881 29.4665 40.5842 29.0484 40.5842 27.9134C39.9391 27.9671 39.3838 29.1519 38.4883 29.1519H38.2978C38.0783 29.1519 38.0119 29.0856 38.0119 28.8661V28.2944C38.0119 27.4221 38.6539 24.4559 38.8694 23.531C40.2214 23.531 41.5634 23.4054 41.8216 22.2734L39.4411 22.3878H39.1552C39.2924 21.7989 39.3937 21.233 39.5376 20.6743C39.7113 19.9997 39.9795 19.5339 40.1079 19.0536C40.106 19.052 39.9302 18.9583 39.9174 18.9583C39.3396 18.9583 38.0764 19.7446 37.6666 20.0419C36.934 20.5731 37.0948 21.6006 36.6783 22.3879Z" fill="#344054"/>
<path fill-rule="evenodd" clip-rule="evenodd" d="M112.987 29.0566H112.892C112.567 29.0566 112.32 28.5261 112.32 28.1992V27.6276C112.32 25.8434 113.236 23.04 114.897 23.2087L116.512 23.4359C116.363 25.2267 114.684 29.0566 112.987 29.0566ZM109.653 29.0566V29.2472C109.653 29.9028 110.227 31.0572 110.987 31.0572H111.272C112.428 31.0572 115.078 28.9329 115.274 28.1992L115.44 28.1952L115.178 30.1999V30.3904C115.178 30.8351 115.401 31.0572 115.845 31.0572H116.036C117.007 31.0572 119.37 29.5363 119.37 28.6756L119.353 28.2667L118.036 29.0566C117.949 28.9984 117.751 28.9015 117.751 28.7707C117.751 27.7697 118.062 26.2813 118.284 25.3984C118.427 24.8295 118.501 24.4405 118.646 23.8546C118.783 23.2964 119.065 22.881 119.185 22.3506L117.179 22.1021H116.512C112.788 22.1021 109.653 25.2315 109.653 29.0566Z" fill="#FBFAFC"/>
<path fill-rule="evenodd" clip-rule="evenodd" d="M128.897 24.7695V25.1506C129.488 25.1014 129.779 24.2932 130.421 24.2932C131.285 24.2932 131.945 29.5969 131.945 30.962V31.4384C131.945 32.0262 130.724 33.439 130.04 33.439C128.817 33.439 129.008 32.7988 128.229 33.9139C128.045 34.1761 127.277 35.3008 127.277 35.6301C127.277 35.7461 127.474 35.9159 127.658 35.9159H127.944C130.861 35.9159 137.852 26.4763 137.852 23.15V22.9595C137.852 22.5497 137.741 22.4431 137.661 22.1021H137.376C136.944 22.1021 135.47 22.7976 135.47 23.15C135.47 23.5893 135.851 23.9524 135.851 24.579V25.3412C135.851 26.0933 134.523 28.7869 134.041 28.9614C134.041 27.3333 133.506 22.1021 132.231 22.1021C131.249 22.1021 128.897 23.8935 128.897 24.7695Z" fill="#FBFAFC"/>
<path fill-rule="evenodd" clip-rule="evenodd" d="M55.6362 29.9141H54.9694C52.2789 29.9141 54.5191 23.9122 57.0653 23.9122C57.7014 23.9122 57.9226 24.6299 57.9226 25.246C57.9226 26.9663 57.082 29.9141 55.6362 29.9141ZM28.6756 27.2466V27.8181C28.6756 28.5065 29.2713 29.3424 29.9141 29.3424H30.7714C31.9699 29.3424 32.7104 28.273 33.3436 28.1039V28.4851C33.3436 29.6756 30.4965 31.0572 29.0566 31.0572H28.2944C27.0123 31.0572 26.1986 29.8175 26.1986 28.4851V27.7229C26.1986 26.0453 27.0294 24.6623 27.8894 23.793C28.577 23.0978 30.594 22.1021 31.9147 22.1021C32.7398 22.1021 33.6295 22.6518 33.6295 23.4359V23.531C33.6295 26.0734 28.6756 26.6339 28.6756 27.2466ZM18.4039 25.0578C19.8548 24.0723 20.8221 22.1021 23.2454 22.1021C23.6216 22.1021 24.0075 22.5348 24.0075 22.9596V23.4359C24.0075 25.4055 23.0547 27.1022 23.0547 28.7708C23.0547 29.5806 24.3722 28.3751 24.6858 28.2963L24.579 29.1519C23.6521 29.7726 22.7689 31.0572 21.0541 31.0572H20.8636C20.5557 31.0572 20.3873 30.7114 20.3873 30.3904V29.5329C20.3873 28.4723 21.5306 25.8061 21.5306 24.579V24.198C21.5306 23.9785 21.4643 23.9122 21.2448 23.9122C19.3558 23.9122 17.434 27.8798 17.434 30.295C17.1963 30.4209 15.6014 31.0572 15.3381 31.0572H15.1476C14.3519 31.0572 16.1955 25.343 16.1955 24.579V24.4838C16.1955 24.3279 16.1385 24.198 16.005 24.198C15.4036 24.198 15.1349 24.741 14.6712 24.8648V24.2932C14.6712 23.7083 17.3552 22.1021 18.2913 22.1021C18.4559 22.1021 18.709 22.5147 18.7314 22.7774L18.4039 25.0578ZM36.6781 22.3879C37.0945 21.6006 36.9338 20.5732 37.6664 20.0419C38.0762 19.7447 39.3394 18.9583 39.9172 18.9583C39.93 18.9583 40.1058 19.0521 40.1077 19.0536C39.9793 19.534 39.7111 19.9998 39.5374 20.6743C39.3935 21.233 39.2921 21.799 39.155 22.3879H39.4409L41.8214 22.2734C41.5632 23.4055 40.2212 23.531 38.8692 23.531C38.6537 24.4559 38.0117 27.4222 38.0117 28.2944V28.8661C38.0117 29.0856 38.078 29.1519 38.2975 29.1519H38.488C39.3836 29.1519 39.9389 27.9671 40.584 27.9135C40.584 29.0484 39.8879 29.4666 39.2109 29.9699C38.7952 30.2792 37.4703 31.0572 36.8686 31.0572H36.2969C35.664 31.0572 35.3443 30.3161 35.3443 29.7236C35.3443 28.0626 36.1309 25.0617 36.4874 23.5311H34.868C34.9142 22.9753 35.4405 22.6424 35.8206 22.3879L36.6781 22.3879ZM45.3474 29.1519C46.6008 29.1519 46.9336 27.9901 47.6339 27.9135C47.6066 29.1346 46.7327 29.7692 45.9189 30.1999C45.5725 30.5012 44.4474 31.0572 43.8231 31.0572H43.3468C42.7137 31.0572 42.3941 30.3161 42.3941 29.7236C42.3941 28.913 42.7043 27.3322 42.8743 26.5837C43.0232 25.9287 43.5235 24.1502 43.5373 23.5311H42.2035C41.8393 23.5311 42.1689 23.5604 41.9178 23.4359C41.9939 23.1508 42.6664 22.3879 42.9656 22.3879H43.8231C43.8412 21.5761 44.2182 20.4362 44.7354 20.0611C45.1819 19.7373 46.3244 18.9583 46.9669 18.9583C47.3466 18.9583 46.6979 20.146 46.6035 20.5002C46.4397 21.1146 46.3459 21.782 46.2047 22.3879L47.2549 22.4101L48.6817 22.2926V1.71484H1.71484V45.6331H48.6817V36.1063C48.6817 35.5523 52.7434 35.4395 53.5404 35.4395H54.5884C54.638 35.2259 54.6836 35.2205 54.6836 34.9632V34.6774C54.0838 34.6774 52.9688 34.6514 52.9688 34.1057L52.9353 33.5288L53.3467 30.8888L54.7789 31.0571C55.7954 31.2037 58.0804 29.7145 58.6135 29.1757C59.5211 28.2584 60.3996 26.9366 60.3996 25.1506V24.0074C60.3996 23.1933 59.6601 22.102 58.8753 22.102C58.003 22.102 56.9347 22.6954 56.3982 23.0545C56.0027 23.3189 54.7166 24.4981 54.493 24.5789C54.618 24.0426 54.9694 22.4395 54.9694 21.9115C54.9694 21.8328 54.667 21.5305 54.5884 21.5305C53.6774 21.5305 50.5871 23.5868 50.5871 24.3884V24.4837C50.5871 24.8479 50.5578 24.5183 50.6823 24.7694C52.1714 23.7724 52.3838 23.47 51.9562 25.6622C51.703 26.9602 51.5723 28.0454 51.2894 29.2825C51.0136 30.4876 50.8871 31.6075 50.6457 32.8307C50.3221 34.4705 50.2723 34.7832 48.6817 35.1537V22.8641C47.9158 23.377 47.1822 23.531 45.9189 23.531C45.9189 25.0088 45.0616 26.9092 45.0616 28.7707C45.0616 29.0827 45.1765 29.0901 45.3474 29.1519Z" fill="#FEFEFE"/>
<path fill-rule="evenodd" clip-rule="evenodd" d="M128.897 24.7697C128.897 23.8937 131.25 22.1022 132.231 22.1022C133.506 22.1022 134.041 27.3335 134.041 28.9616C134.523 28.7871 135.852 26.0934 135.852 25.3413V24.5792C135.852 23.9526 135.47 23.5895 135.47 23.1502C135.47 22.7977 136.944 22.1022 137.376 22.1022H137.662C137.741 22.4433 137.852 22.5498 137.852 22.9597V23.1502C137.852 26.4764 130.861 35.9161 127.944 35.9161H127.658C127.474 35.9161 127.278 35.7463 127.278 35.6303C127.278 35.3009 128.045 34.1763 128.229 33.9141C129.008 32.799 128.817 33.4391 130.04 33.4391C130.724 33.4391 131.946 32.0264 131.946 31.4385V30.9622C131.946 29.5971 131.285 24.2933 130.421 24.2933C129.779 24.2933 129.488 25.1016 128.897 25.1508V24.7697ZM96.4995 25.0545C97.3971 24.4588 97.9364 23.5915 99.1707 22.8614C99.8771 22.4436 102.352 21.3243 102.152 23.3436L101.936 25.0555C103.288 24.1505 104.496 22.1022 106.7 22.1022C107.171 22.1022 107.557 22.4888 107.557 22.9597V23.436C107.557 25.3701 106.604 27.0856 106.604 28.7709C106.604 28.9268 106.661 29.0567 106.795 29.0567C107.438 29.0567 107.711 28.4315 108.224 28.2946C108.224 29.3974 107.624 29.7115 106.947 30.1621C106.368 30.548 105.503 31.0573 104.604 31.0573H104.413C104.04 31.0573 103.937 30.5861 103.937 30.2V30.1047C103.937 28.4025 105.08 26.0067 105.08 24.5792V24.1982C105.08 24.0422 105.023 23.9123 104.889 23.9123C102.851 23.9123 100.888 28.0615 100.888 30.3905C100.439 30.4952 98.4113 31.5224 98.4113 30.8668V30.581C98.4113 29.9344 98.9587 28.4305 99.0864 27.6359C99.2242 26.7781 99.6498 25.6381 99.6498 24.5791V24.1981C99.6498 24.0422 99.5928 23.9123 99.4593 23.9123C97.4852 23.9123 95.458 27.9379 95.458 30.2952C95.0667 30.5023 93.8072 31.0573 93.2669 31.0573H92.9811C92.9515 30.9456 92.8859 30.7977 92.8859 30.7715C92.8859 30.4932 93.5253 27.983 93.6351 27.6149C93.8163 27.0081 94.3149 25.022 94.3149 24.3886C94.3149 24.3038 94.2091 24.1981 94.1244 24.1981C93.6484 24.1981 93.1918 24.6601 92.8859 24.865C92.8205 24.7488 92.7906 24.7631 92.7906 24.5791V24.2933C92.7906 23.6731 95.378 22.1802 96.3155 22.1022C96.5415 22.2219 96.8456 22.504 96.8261 22.8694L96.4995 25.0545ZM90.9804 24.9603C90.8681 24.6501 90.438 24.3886 90.0278 24.3886H89.8373C88.9417 24.3886 87.3603 28.3282 87.3603 29.533V30.2952C86.7278 30.4427 85.8379 31.0573 85.0739 31.0573C84.8544 31.0573 84.7881 30.991 84.7881 30.7715C84.7881 30.4143 85.336 28.0569 85.4543 27.7225C85.6281 27.2315 86.0265 25.1192 86.0265 24.484V24.1982L85.9753 24.0919L84.5023 24.7696C84.5023 23.8213 85.234 23.477 85.8345 23.0533C86.3557 22.6856 87.2204 22.1695 88.0272 22.1022C88.1722 22.1992 88.4409 22.4161 88.4497 22.6791L88.1225 25.1508C88.8162 24.6425 89.7364 22.1022 91.3616 22.1022C91.823 22.1022 92.5047 22.3579 92.5047 22.7692V22.9597C92.5047 23.5731 91.5455 24.9133 90.9804 24.9603ZM127.087 24.3886C126.745 24.3886 126.078 23.2455 125.277 23.2455C124.125 23.2455 123.467 25.2463 123.467 26.4846V27.3419C123.467 28.3783 123.939 29.4379 124.896 29.4379H125.182C126.244 29.4379 127.2 28.4436 127.849 28.0089C128.498 29.3614 125.163 31.0573 123.753 31.0573H123.181C121.588 31.0573 120.894 29.8204 120.894 28.1994V27.9136C120.894 26.1651 121.697 24.7825 122.585 23.8883C123.302 23.1672 125.244 22.1022 126.611 22.1022C127.247 22.1022 128.421 22.2867 128.421 22.8644C128.421 23.3356 127.647 24.3886 127.087 24.3886ZM109.653 29.0567C109.653 25.2316 112.788 22.1022 116.512 22.1022H117.179L119.185 22.3507C119.065 22.8812 118.783 23.2966 118.646 23.8548C118.501 24.4406 118.427 24.8297 118.284 25.3985C118.062 26.2815 117.751 27.7698 117.751 28.7709C117.751 28.9017 117.949 28.9986 118.037 29.0567L119.353 28.2668L119.37 28.6757C119.37 29.5365 117.007 31.0574 116.036 31.0574H115.845C115.401 31.0574 115.178 30.8352 115.178 30.3905V30.2L115.44 28.1954L115.274 28.1994C115.078 28.933 112.428 31.0574 111.273 31.0574H110.987C110.227 31.0574 109.653 29.9029 109.653 29.2474V29.0567ZM81.6443 28.3899V28.7709C81.6443 28.9268 81.7014 29.0567 81.8348 29.0567C82.2374 29.0567 82.7529 28.4056 83.1686 28.2946V28.8662C83.1686 29.523 80.777 31.0574 79.8342 31.0574H79.6437C79.2419 31.0574 78.9359 30.6933 78.9302 30.3842L79.2625 28.1994C78.2781 28.8587 76.8724 31.0574 75.0708 31.0574H74.785C73.9082 31.0574 73.5465 29.8923 73.5465 28.9616V28.5804C73.5465 24.8894 76.9107 22.1022 80.6917 22.1022L80.7899 22.0746L83.0733 22.2927C82.8905 23.0771 82.379 23.9782 82.1574 25.0922C81.9672 26.0476 81.6443 27.3833 81.6443 28.3899ZM45.9189 30.2L45.854 30.0751L45.2196 29.4778L45.3029 29.4288L45.2439 29.3375L45.3474 29.1521C45.1765 29.0902 45.0616 29.083 45.0616 28.7709C45.0616 26.9094 45.9189 25.0091 45.9189 23.5312C47.1822 23.5312 47.9158 23.3773 48.6817 22.8644V35.1539C50.2723 34.7834 50.3221 34.4708 50.6458 32.8309C50.8872 31.6077 51.0137 30.4879 51.2895 29.2827C51.5723 28.0456 51.703 26.9605 51.9563 25.6625C52.3838 23.4703 52.1714 23.7726 50.6823 24.7697C50.5578 24.5185 50.5872 24.8482 50.5872 24.484V24.3887C50.5872 23.587 53.6774 21.5307 54.5884 21.5307C54.6671 21.5307 54.9694 21.833 54.9694 21.9117C54.9694 22.4397 54.618 24.0428 54.4931 24.5792C54.7166 24.4983 56.0027 23.3191 56.3982 23.0547C56.9347 22.6956 58.003 22.1022 58.8753 22.1022C59.6601 22.1022 60.3996 23.1935 60.3996 24.0077V25.1508C60.3996 26.9369 59.5212 28.2586 58.6135 29.176C58.0805 29.7148 55.7954 31.2039 54.7789 31.0573L53.3467 30.8891L52.9353 33.5291L52.9688 34.1059C52.9688 34.6517 54.0838 34.6776 54.6836 34.6776V34.9634C54.6836 35.2207 54.6381 35.2261 54.5884 35.4398H53.5404C52.7434 35.4398 48.6817 35.5525 48.6817 36.1066V45.6334H1.71486V1.71508H48.6817V22.2928L47.2549 22.4104L46.2047 22.3882C46.3459 21.7823 46.4397 21.1148 46.6035 20.5004C46.6979 20.1463 47.3467 18.9586 46.9669 18.9586C46.3245 18.9586 45.1819 19.7375 44.7354 20.0613C44.2182 20.4364 43.8412 21.5763 43.8231 22.3882H42.9657C42.6664 22.3882 41.9939 23.1511 41.9178 23.4361C42.1689 23.5606 41.8393 23.5313 42.2035 23.5313H43.5373C43.5236 24.1505 43.0232 25.929 42.8743 26.5839C42.7043 27.3325 42.3941 28.9132 42.3941 29.7238C42.3941 30.3163 42.7138 31.0575 43.3468 31.0575H43.8231C44.4474 31.0575 45.5725 30.5013 45.9189 30.2ZM65.5442 25.1508C66.8053 24.3063 68.2425 22.1022 70.4981 22.1022C71.0167 22.1022 71.3554 22.4409 71.3554 22.9597V23.5312C71.3554 25.3965 70.4028 27.1582 70.4028 28.7709C70.4028 28.9905 70.4691 29.0567 70.6886 29.0567C71.2692 29.0567 71.4364 28.5264 72.0224 28.3899C72.0224 29.4354 71.433 29.747 70.7668 30.1829C70.3113 30.4808 69.2775 31.0573 68.5926 31.0573H68.3068C68.0574 31.0573 67.7353 30.6361 67.7353 30.4858C67.7353 29.3953 67.9937 28.2895 68.2661 27.3964C68.3668 27.0661 68.8784 24.6128 68.8784 24.3887V24.1982C68.8784 24.0141 68.7086 23.817 68.5926 23.817C67.7651 23.817 66.253 25.5952 65.847 26.2159C65.0736 27.3985 64.6867 28.3641 64.6867 30.2952C64.4919 30.3984 62.6353 31.1527 62.4956 31.1527C62.2773 31.1527 62.3848 31.1204 62.1144 31.0573V30.4858C62.1144 29.3578 62.9085 26.0627 63.2005 24.9031C63.4467 23.9256 64.3057 20.159 64.3057 19.3394V18.9584C64.3057 18.7389 64.2394 18.6726 64.0199 18.6726C63.3784 18.6726 63.2398 18.8515 62.7814 18.9584C62.7814 17.8989 63.5286 17.8542 64.319 17.5426C64.8883 17.3181 65.9747 16.8625 66.6873 16.8625H66.7827C66.9667 16.8625 67.1636 17.0325 67.1636 17.1483C67.1636 18.3382 66.5888 19.9533 66.3935 21.1415C66.2369 22.0939 65.5442 24.291 65.5442 25.1508ZM134.041 20.7686C134.041 13.8471 135.997 10.6846 140.677 8.35099C142.832 7.27649 145.215 6.53192 147.315 5.46235C148.551 4.83317 149.26 4.52019 150.389 3.77285C150.951 3.40126 151.218 3.09585 151.723 2.72503C152.191 2.38152 152.263 1.7315 153 1.715V2.95348C153 3.2993 153.021 3.04619 152.904 3.14398C153.019 3.31597 153.095 3.31149 153.095 3.52513V5.43042C153.095 8.08692 151.982 10.1911 150.791 11.7004C149.509 13.3249 147.651 14.2498 145.664 15.1477C143.698 16.036 141.427 16.6436 139.472 17.5295C138.489 17.9746 137.51 18.4019 136.631 18.9762C135.672 19.6026 135.039 20.3874 134.327 20.8637L134.041 20.7686ZM0 47.2528H155V0H0V47.2528Z" fill="#344054"/>
<path fill-rule="evenodd" clip-rule="evenodd" d="M96.826 22.8693C96.8456 22.5039 96.5414 22.2217 96.3155 22.1021C95.3779 22.1801 92.7905 23.6729 92.7905 24.2932V24.579C92.7905 24.763 92.8205 24.7487 92.8859 24.8648C93.1917 24.66 93.6483 24.198 94.1243 24.198C94.209 24.198 94.3148 24.3037 94.3148 24.3885C94.3148 25.0219 93.8163 27.008 93.6351 27.6148C93.5252 27.9828 92.8859 30.4931 92.8859 30.7714C92.8859 30.7976 92.9514 30.9455 92.981 31.0572H93.2668C93.8072 31.0572 95.0666 30.5022 95.458 30.295C95.458 27.9378 97.4851 23.9122 99.4592 23.9122C99.5928 23.9122 99.6497 24.0421 99.6497 24.198V24.579C99.6497 25.6379 99.2242 26.778 99.0864 27.6358C98.9587 28.4303 98.4112 29.9343 98.4112 30.5809V30.8667C98.4112 31.5223 100.439 30.4951 100.888 30.3904C100.888 28.0614 102.851 23.9122 104.889 23.9122C105.023 23.9122 105.08 24.0421 105.08 24.198V24.579C105.08 26.0066 103.937 28.4024 103.937 30.1046V30.1999C103.937 30.586 104.04 31.0572 104.413 31.0572H104.604C105.503 31.0572 106.367 30.5479 106.947 30.1619C107.624 29.7114 108.224 29.3973 108.224 28.2944C107.711 28.4314 107.437 29.0566 106.795 29.0566C106.661 29.0566 106.604 28.9267 106.604 28.7708C106.604 27.0854 107.557 25.37 107.557 23.4359V22.9596C107.557 22.4886 107.17 22.1021 106.7 22.1021C104.496 22.1021 103.288 24.1504 101.936 25.0554L102.152 23.3435C102.352 21.3242 99.8771 22.4434 99.1706 22.8613C97.9363 23.5914 97.3971 24.4587 96.4995 25.0544L96.826 22.8693Z" fill="#FBFAFC"/>
<path fill-rule="evenodd" clip-rule="evenodd" d="M18.7316 22.7773C18.7092 22.5147 18.4561 22.1021 18.2915 22.1021C17.3553 22.1021 14.6714 23.7083 14.6714 24.2932V24.8648C15.1351 24.741 15.4038 24.198 16.0052 24.198C16.1386 24.198 16.1957 24.3279 16.1957 24.4838V24.579C16.1957 25.343 14.3521 31.0572 15.1477 31.0572H15.3382C15.6015 31.0572 17.1965 30.4209 17.4342 30.295C17.4342 27.8798 19.356 23.9122 21.2449 23.9122C21.4644 23.9122 21.5307 23.9785 21.5307 24.198V24.579C21.5307 25.806 20.3874 28.4723 20.3874 29.5329V30.3904C20.3874 30.7114 20.5559 31.0572 20.8638 31.0572H21.0543C22.769 31.0572 23.6523 29.7726 24.5792 29.1519L24.6859 28.2963C24.3723 28.3751 23.0549 29.5805 23.0549 28.7707C23.0549 27.1022 24.0077 25.4055 24.0077 23.4359V22.9595C24.0077 22.5347 23.6217 22.1021 23.2455 22.1021C20.8223 22.1021 19.855 24.0723 18.4041 25.0578L18.7316 22.7773Z" fill="#344054"/>
<path fill-rule="evenodd" clip-rule="evenodd" d="M28.7708 26.1033C28.7708 24.9148 29.5191 23.15 30.581 23.15H30.6763C31.1679 23.15 31.4384 23.5466 31.4384 24.0075V24.3885C31.4384 25.4715 29.7179 25.8827 28.7708 26.1033ZM28.6757 27.2466C28.6757 26.6339 33.6296 26.0734 33.6296 23.531V23.4359C33.6296 22.6518 32.7399 22.1021 31.9148 22.1021C30.5941 22.1021 28.5771 23.0977 27.8895 23.7929C27.0295 24.6623 26.1987 26.0453 26.1987 27.7229V28.4851C26.1987 29.8175 27.0124 31.0572 28.2945 31.0572H29.0567C30.4966 31.0572 33.3437 29.6756 33.3437 28.4851V28.1039C32.7105 28.273 31.97 29.3424 30.7715 29.3424H29.9141C29.2714 29.3424 28.6757 28.5065 28.6757 27.8181V27.2466Z" fill="#344054"/>
<path fill-rule="evenodd" clip-rule="evenodd" d="M28.771 26.1034C29.7181 25.8828 31.4386 25.4716 31.4386 24.3886V24.0076C31.4386 23.5467 31.168 23.1501 30.6764 23.1501H30.5811C29.5193 23.1501 28.771 24.9149 28.771 26.1034Z" fill="#FBFAFC"/>
<path fill-rule="evenodd" clip-rule="evenodd" d="M55.6365 29.914C57.0823 29.914 57.9229 26.9663 57.9229 25.2459C57.9229 24.6298 57.7018 23.9121 57.0656 23.9121C54.5194 23.9121 52.2793 29.914 54.9697 29.914L55.6365 29.914Z" fill="#344054"/>
<path fill-rule="evenodd" clip-rule="evenodd" d="M112.987 29.0566C114.684 29.0566 116.363 25.2268 116.512 23.4359L114.897 23.2087C113.236 23.0401 112.32 25.8434 112.32 27.6276V28.1993C112.32 28.5261 112.567 29.0566 112.892 29.0566L112.987 29.0566Z" fill="#344054"/>
<path fill-rule="evenodd" clip-rule="evenodd" d="M76.1191 27.3417V28.0086C76.1191 28.499 76.3069 29.0565 76.786 29.0565C77.7844 29.0565 79.1352 27.2394 79.4843 26.4197C79.7844 25.7145 79.8349 25.0623 80.0917 24.3597C80.5125 23.2085 80.2776 23.2452 78.8819 23.2452C77.0767 23.2452 76.1191 25.5058 76.1191 27.3417Z" fill="#344054"/>
<path fill-rule="evenodd" clip-rule="evenodd" d="M45.3476 29.1518L45.2441 29.3372L45.303 29.4285L45.2197 29.4776L45.8542 30.0748L45.9191 30.1998C46.7329 29.7691 47.6067 29.1345 47.6341 27.9133C46.9338 27.99 46.601 29.1518 45.3476 29.1518Z" fill="#0C347A"/>
<path fill-rule="evenodd" clip-rule="evenodd" d="M65.5445 25.1509C65.5445 24.2911 66.2372 22.0939 66.3938 21.1416C66.5891 19.9534 67.164 18.3382 67.164 17.1484C67.164 17.0325 66.967 16.8625 66.783 16.8625H66.6877C65.975 16.8625 64.8886 17.3182 64.3193 17.5426C63.5289 17.8542 62.7817 17.899 62.7817 18.9585C63.2402 18.8516 63.3787 18.6727 64.0202 18.6727C64.2397 18.6727 64.306 18.739 64.306 18.9585V19.3395C64.306 20.159 63.447 23.9257 63.2008 24.9031C62.9088 26.0628 62.1147 29.3579 62.1147 30.4859V31.0574C62.3851 31.1205 62.2776 31.1527 62.4959 31.1527C62.6357 31.1527 64.4922 30.3985 64.687 30.2953C64.687 28.3642 65.0739 27.3986 65.8473 26.216C66.2533 25.5953 67.7654 23.8171 68.5929 23.8171C68.7089 23.8171 68.8788 24.0142 68.8788 24.1982V24.3887C68.8788 24.6128 68.3671 27.0662 68.2664 27.3964C67.994 28.2895 67.7356 29.3954 67.7356 30.4859C67.7356 30.6362 68.0577 31.0574 68.3071 31.0574H68.5929C69.2778 31.0574 70.3116 30.4808 70.7671 30.183C71.4333 29.7471 72.0227 29.4355 72.0227 28.39C71.4367 28.5265 71.2695 29.0568 70.6889 29.0568C70.4694 29.0568 70.4031 28.9906 70.4031 28.771C70.4031 27.1583 71.3557 25.3966 71.3557 23.5313V22.9598C71.3557 22.441 71.017 22.1023 70.4984 22.1023C68.2428 22.1023 66.8057 24.3063 65.5445 25.1509Z" fill="#FBFAFC"/>
<path fill-rule="evenodd" clip-rule="evenodd" d="M90.9806 24.9599C91.5457 24.9129 92.5049 23.5727 92.5049 22.9593V22.7688C92.5049 22.3575 91.8232 22.1018 91.3618 22.1018C89.7366 22.1018 88.8163 24.6422 88.1227 25.1504L88.4499 22.6787C88.4411 22.4157 88.1724 22.1988 88.0274 22.1018C87.2206 22.1691 86.3559 22.6852 85.8347 23.0529C85.2342 23.4766 84.5024 23.8209 84.5024 24.7692L85.9755 24.0915L86.0267 24.1978V24.4836C86.0267 25.1188 85.6283 27.2311 85.4545 27.7221C85.3362 28.0565 84.7883 30.4139 84.7883 30.7711C84.7883 30.9906 84.8546 31.0569 85.0741 31.0569C85.8381 31.0569 86.728 30.4423 87.3605 30.2948V29.5326C87.3605 28.3278 88.9419 24.3883 89.8375 24.3883H90.028C90.4381 24.3883 90.8683 24.6497 90.9806 24.9599Z" fill="#FBFAFC"/>
<path fill-rule="evenodd" clip-rule="evenodd" d="M76.1192 27.3418C76.1192 25.5059 77.0767 23.2454 78.8819 23.2454C80.2776 23.2454 80.5125 23.2087 80.0917 24.3598C79.8349 25.0625 79.7844 25.7146 79.4843 26.4199C79.1352 27.2395 77.7844 29.0566 76.786 29.0566C76.3069 29.0566 76.1192 28.4991 76.1192 28.0088V27.3418ZM81.6447 28.3898C81.6447 27.3831 81.9675 26.0475 82.1577 25.0921C82.3794 23.9781 82.8909 23.0769 83.0737 22.2926L80.7903 22.0745L80.692 22.1021C76.9111 22.1021 73.5469 24.8892 73.5469 28.5803V28.9614C73.5469 29.8921 73.9086 31.0572 74.7853 31.0572H75.0712C76.8728 31.0572 78.2785 28.8585 79.2629 28.1993L78.9305 30.3841C78.9362 30.6932 79.2422 31.0572 79.6441 31.0572H79.8346C80.7773 31.0572 83.169 29.5229 83.169 28.8661V28.2944C82.7533 28.4055 82.2378 29.0566 81.8352 29.0566C81.7018 29.0566 81.6447 28.9267 81.6447 28.7708V28.3898Z" fill="#FBFAFC"/>
<path fill-rule="evenodd" clip-rule="evenodd" d="M127.087 24.3883C127.647 24.3883 128.421 23.3352 128.421 22.864C128.421 22.2863 127.247 22.1018 126.611 22.1018C125.244 22.1018 123.302 23.1667 122.585 23.8879C121.697 24.7821 120.895 26.1648 120.895 27.9132V28.199C120.895 29.82 121.588 31.0569 123.181 31.0569H123.753C125.163 31.0569 128.498 29.361 127.849 28.0085C127.2 28.4432 126.245 29.4375 125.182 29.4375H124.896C123.939 29.4375 123.467 28.3779 123.467 27.3415V26.4842C123.467 25.2459 124.125 23.2451 125.277 23.2451C126.078 23.2451 126.745 24.3883 127.087 24.3883Z" fill="#FBFAFC"/>
</svg>
