<svg width="215" height="44" viewBox="0 0 215 44" fill="none" xmlns="http://www.w3.org/2000/svg">
<path fill-rule="evenodd" clip-rule="evenodd" d="M5.33057 8.18701H5.52316V7.99414L5.41079 8.07445L5.33057 8.18701Z" fill="#344054"/>
<path fill-rule="evenodd" clip-rule="evenodd" d="M211.36 9.92049H212.228V10.1133H212.613V10.8836C212.397 10.9339 212.392 10.9799 212.131 10.9799H211.36V9.92049ZM211.168 12.7137L211.36 12.6174V11.558L212.007 11.5764L212.806 12.7137H213.095V12.4246L212.705 11.7128L212.613 11.7506L212.645 11.4014L213.191 10.9799V10.1133H212.902L212.899 9.74152L212.613 9.63159H210.878V12.7138L211.168 12.7137Z" fill="#344054"/>
<path fill-rule="evenodd" clip-rule="evenodd" d="M212.806 12.7138L213.204 12.8083L213.095 12.4246V12.7138H212.806Z" fill="#344054"/>
<path fill-rule="evenodd" clip-rule="evenodd" d="M210.108 9.43885C210.871 9.42183 210.346 8.85489 211.94 8.85527C212.797 8.85545 213.186 9.05982 213.65 9.46222C214.044 9.80442 214.259 10.422 214.259 11.1724C214.259 12.5537 213.735 12.3434 213.673 12.9062C213.006 12.921 213.419 13.5005 211.936 13.4934C210.999 13.4891 210.803 13.255 210.269 12.841C208.871 11.7553 210.012 10.3087 210.108 9.43885ZM209.818 9.24626V9.43885L209.529 9.53515C208.306 11.4617 209.607 13.9657 211.842 13.9657C215.645 13.9657 215.642 8.37939 211.938 8.37939H211.746C210.691 8.37939 210.328 8.70866 209.818 9.24626Z" fill="#344054"/>
<path fill-rule="evenodd" clip-rule="evenodd" d="M172.14 14.7361H183.703V11.7505H172.14V14.7361Z" fill="#676767"/>
<path fill-rule="evenodd" clip-rule="evenodd" d="M28.1693 15.1219C27.9501 14.7079 28.1954 14.9471 27.8938 14.8304L27.7837 14.5439V14.9293H27.9765V15.1219H28.1693Z" fill="#344054"/>
<path fill-rule="evenodd" clip-rule="evenodd" d="M16.9907 15.4106L17.1033 15.3303L17.1835 15.2178H16.9907V15.4106Z" fill="#344054"/>
<path fill-rule="evenodd" clip-rule="evenodd" d="M15.4492 17.2407H15.6418V17.0483L15.5294 17.1286L15.4492 17.2407Z" fill="#344054"/>
<path fill-rule="evenodd" clip-rule="evenodd" d="M94.372 18.6855L94.2918 18.5729L94.1797 18.4927V18.6855H94.372Z" fill="#344054"/>
<path fill-rule="evenodd" clip-rule="evenodd" d="M202.302 18.6855L202.222 18.5729L202.109 18.4927V18.6855H202.302Z" fill="#344054"/>
<path fill-rule="evenodd" clip-rule="evenodd" d="M123.475 21.2858L123.587 21.2056L123.667 21.0935H123.475V21.2858Z" fill="#344054"/>
<path fill-rule="evenodd" clip-rule="evenodd" d="M181.583 23.5974L173.188 24.5601L173.199 24.6569C173.199 22.0781 174.712 20.1574 177.048 20.0284C178.924 19.9246 179.3 20.2357 180.462 20.8649C181.026 21.1699 182.144 22.8672 181.583 23.5974ZM172.621 33.0363L172.734 33.1165L172.814 33.2289C174.623 34.9438 179.127 35.2282 181.86 34.0838C184.181 33.1121 186.69 30.8975 186.69 27.6352L182.735 28.1874L182.813 28.254L182.065 29.7615L181.985 29.8739L181.872 29.9543L181.792 30.0665L181.679 30.1469C181.112 30.7445 179.181 31.2902 178.109 31.4046C177.675 31.451 176.474 31.1103 176.113 30.9914C175.053 30.6422 175.114 30.1239 174.645 29.9543L174.532 29.8739L174.452 29.7615L173.392 27.6426L173.388 27.323L186.305 25.5238C186.305 23.6211 185.693 21.8954 185.06 20.6044C184.856 20.1889 184.104 19.1689 183.76 18.8211C183.48 18.538 182.091 17.5741 182.065 17.337C181.284 17.3196 179.957 16.5766 178.885 16.4699C177.606 16.3425 176.199 16.6204 175.251 16.8837C174.16 17.187 173.316 17.554 172.536 18.2149C171.978 18.6872 171.886 18.4763 171.423 19.1248C171.04 19.6612 170.611 19.8161 170.598 20.4189H170.308C170.298 20.8877 169.632 22.0798 169.415 22.7043C169.157 23.4489 169.161 24.5849 169.15 25.6219C169.138 26.7988 169.9 30.4558 170.598 30.5321L170.423 30.6744L172.621 33.0363Z" fill="#344054"/>
<path fill-rule="evenodd" clip-rule="evenodd" d="M84.832 21.6711H85.0249V21.4788L84.9123 21.559L84.832 21.6711Z" fill="#344054"/>
<path fill-rule="evenodd" clip-rule="evenodd" d="M92.0595 22.0566L91.9793 21.944L91.8667 21.8638V22.0566H92.0595Z" fill="#344054"/>
<path fill-rule="evenodd" clip-rule="evenodd" d="M9.85986 24.2714L10.149 24.1755V23.9827L9.85986 24.0791V24.2714Z" fill="#344054"/>
<path fill-rule="evenodd" clip-rule="evenodd" d="M14.3892 27.5461H14.5819V27.3538L14.4694 27.434L14.3892 27.5461Z" fill="#344054"/>
<path fill-rule="evenodd" clip-rule="evenodd" d="M129.931 29.4726H130.124V29.2803L130.011 29.36L129.931 29.4726Z" fill="#344054"/>
<path fill-rule="evenodd" clip-rule="evenodd" d="M91.5776 29.8579H91.7705V29.6655L91.6584 29.7453L91.5776 29.8579Z" fill="#344054"/>
<path fill-rule="evenodd" clip-rule="evenodd" d="M98.1558 17.0383L104.978 34.2484L104.876 34.3633L109.309 34.3946L113.269 24.7003L113.164 24.6571H113.453L113.335 24.6077L116.473 17.0616L112.007 17.0483L109.985 22.3075L110.08 22.3455H109.791L107.254 29.6199L107.382 29.6655H107.189L107.338 29.6109L102.734 17.0564L98.1558 17.0383Z" fill="#344054"/>
<path fill-rule="evenodd" clip-rule="evenodd" d="M11.3052 31.3991L11.4177 31.3189L11.498 31.2063H11.3052V31.3991Z" fill="#344054"/>
<path fill-rule="evenodd" clip-rule="evenodd" d="M3.69243 32.073L3.59591 31.8806H3.40332L3.51759 32.1623L3.69243 32.073Z" fill="#344054"/>
<path fill-rule="evenodd" clip-rule="evenodd" d="M94.9507 32.1694H95.143L95.2399 31.8806L95.0647 31.8873L94.9507 32.1694Z" fill="#344054"/>
<path fill-rule="evenodd" clip-rule="evenodd" d="M121.258 33.5178V33.3254H121.065L121.146 33.4375L121.258 33.5178Z" fill="#344054"/>
<path fill-rule="evenodd" clip-rule="evenodd" d="M59.1025 17.3371H59.2954L59.3918 17.6259L60.6447 19.5523L60.7568 19.6326L60.8376 19.7452L67.39 29.6656L67.5026 29.7453L67.5829 29.8579L70.5086 34.3614L74.8103 34.3847V8.6687L70.4715 8.71622L70.4739 8.86107V26.7759L66.2801 20.5184L59.5542 10.3895L58.4443 8.72383L58.5245 8.6687H53.8989V34.4811H58.3317V16.2775L59.1025 17.3371Z" fill="#344054"/>
<path fill-rule="evenodd" clip-rule="evenodd" d="M144.579 21.2859V21.0933H144.772C144.918 20.73 146.121 20.4175 146.692 20.4114C147.858 20.3988 148.03 20.7081 148.915 20.7081L150.265 22.7306L150.361 34.3848H154.505V24.079H154.697C154.697 22.5073 155.347 21.5371 156.286 20.8512C157.569 19.9142 159.119 20.7081 160.287 20.7081C160.496 21.6055 161.636 21.4462 161.636 23.7901V34.3848H165.876V22.9234C165.876 21.7233 165.74 20.5825 165.294 19.8452C165.094 19.5148 163.858 17.7466 163.852 17.7223H163.467L163.354 17.6421L163.274 17.5296V17.337C162.617 17.2824 161.653 16.8395 160.604 16.6342C159.399 16.398 158.981 16.4012 157.731 16.7086C156.75 16.9498 156.265 17.3924 155.458 17.8077C155.067 18.0085 154.075 19.1698 154.023 19.6486H153.734L153.868 19.5271L151.897 17.3425C151.161 17.3204 150.059 16.4661 148.434 16.4661C146.749 16.4661 145.803 17.3183 144.965 17.337V17.6259L144.842 17.5031L143.492 18.8515L143.615 18.9743H143.23L143.006 17.0525L139.183 17.0482V34.3848H142.941C143.201 34.3848 143.206 34.3388 143.423 34.2885L143.499 22.1508L143.796 22.2198L144.579 21.2859Z" fill="#344054"/>
<path fill-rule="evenodd" clip-rule="evenodd" d="M200.856 29.9542L200.776 30.0664L200.663 30.1468C200.017 30.8274 198.356 30.9968 196.899 30.9232C196.154 30.8854 194.352 29.7853 194.092 29.2986C193.444 28.088 193.049 27.7424 193.05 25.9088C193.052 24.141 193.228 23.4325 193.918 22.3452V22.1526H194.11C194.211 21.2384 196.214 20.4106 197.579 20.4184C198.811 20.4253 198.936 20.4644 199.894 20.7058C200.648 20.8954 200.847 21.6578 201.434 21.6711L201.627 22.1526H201.82V22.3452H202.013C202.031 23.1933 202.614 23.4871 202.687 24.3682C202.793 25.6547 202.741 25.547 202.687 26.5833C202.623 27.8361 201.734 29.5327 200.856 29.9542ZM202.302 18.6852H202.109V18.4926C201.676 18.0364 201.042 17.4746 200.388 17.2267C199.492 16.8871 198.986 16.8516 198.062 16.5657C196.142 15.9716 194.191 17.3114 193.05 17.3368V17.6257L192.982 17.5289L191.801 18.36L191.894 18.4926H191.509V18.6852H191.316C188.635 21.2268 187.804 27.6558 190.184 31.2784C191.55 33.3585 192.382 33.9283 195.119 34.6286C196.195 34.904 197.788 34.8157 198.899 34.547C200.534 34.1515 200.42 33.9939 201.627 33.2287L201.707 33.1164L201.82 33.0362L202.829 31.7457L203.162 34.3855L207.12 34.3608L207.12 8.37939H202.88V19.1667L202.302 18.6852Z" fill="#344054"/>
<path fill-rule="evenodd" clip-rule="evenodd" d="M154.697 24.0791H154.505V34.3849H150.361L150.265 22.7307V34.4812H154.601V24.3682C154.601 24.1824 154.631 24.1967 154.697 24.0791Z" fill="#344054"/>
<path fill-rule="evenodd" clip-rule="evenodd" d="M92.1561 29.0874V29.4726H91.867L91.7705 29.6652V29.8578H91.5778C90.6391 30.4532 89.5311 31.0932 87.9161 31.0175C86.5563 30.9538 85.3007 30.3296 84.6316 29.5768C84.0265 28.8959 83.3128 27.3839 83.194 26.1981C82.9882 24.1434 84.0377 23.3995 84.0613 22.3453H84.2541V22.1527H84.4467L84.8323 21.6712L84.9125 21.5588L85.025 21.4784C85.3573 21.3582 85.7399 20.7993 86.595 20.6398C87.4817 20.4745 87.5722 20.4204 88.6925 20.4133C90.0889 20.4043 91.1892 21.1497 91.867 21.8638L91.9794 21.944L92.0596 22.0564C93.5778 23.4957 93.6216 27.5431 92.1561 29.0874ZM94.9507 32.1694L95.0649 31.8874L95.2398 31.8805L96.2026 30.5981L96.107 30.5321H96.3961C96.3974 30.4717 97.2948 27.97 97.4113 27.5014C97.6131 26.6895 97.5762 24.5013 97.3619 23.7879C97.0007 22.5865 96.881 21.8636 96.2622 20.8417C95.8017 20.081 95.8056 20.2574 95.3596 19.7213C94.8215 19.0741 95.3587 19.3108 94.3723 18.6853H94.1797V18.4927L93.216 17.9148L93.1036 17.8346L93.0234 17.7221L92.6434 17.6049L92.6378 17.3369C92.0787 17.3369 91.4712 17.092 90.9996 16.9516C90.2623 16.7322 90.0944 16.7964 89.2912 16.6367C87.5833 16.2967 87.3456 16.6776 85.7955 16.8549C84.4295 17.0109 81.073 18.8888 80.9777 20.0337C79.9589 20.1452 78.5135 25.0453 79.0498 26.7762C79.4432 28.0461 79.3578 29.0841 80.0483 30.2088C80.8183 31.4631 81.1861 31.643 82.0433 32.6453C83.3466 34.1695 85.9146 34.7529 88.7837 34.7705C91.5886 34.7877 93.5146 33.531 94.9507 32.1694Z" fill="#344054"/>
<path fill-rule="evenodd" clip-rule="evenodd" d="M123.475 21.2857V21.0931H123.667C123.896 20.5266 126.202 20.3207 127.234 20.4181C128.397 20.5281 129.399 21.2018 130.027 21.8637L130.14 21.944L130.22 22.0563L131.263 24.189L131.087 24.2714H131.377V27.161H131.087L131.253 27.2401L130.124 29.2799V29.4726H129.931C129.623 30.3238 127.826 30.834 126.741 31.0047C125.477 31.2035 123.692 30.4883 123.186 29.9543L123.073 29.8739L122.993 29.7615C121.787 28.6188 121.363 27.5529 121.349 25.229C121.34 23.7976 122.456 21.6543 123.475 21.2857ZM120.873 18.1075V18.3001H120.68C120.667 18.3324 119.559 19.3339 119.43 19.4585C118.951 19.9202 118.736 20.2091 118.345 20.782C117.864 21.4883 117.284 23.3243 117.124 24.3775C116.883 25.9691 117.216 27.6528 117.599 28.699C117.87 29.4365 118.666 31.5545 119.235 31.7841L119.347 31.8644L119.427 31.9767L119.62 32.2658H119.813V32.4585L121.066 33.3251H121.258V33.5179C121.693 33.5652 122.412 34.1232 122.74 34.2521C123.088 34.3886 124.043 34.5086 124.502 34.6096C125.954 34.9284 126.986 34.7451 128.389 34.5774C129.798 34.4089 130.498 33.8496 131.541 33.3928C132.597 32.9296 133.69 31.4377 133.786 31.3989V31.2064H133.979L134.548 30.1964L134.46 30.1469H134.749C134.786 29.7104 135.258 28.5199 135.373 28.0731C135.619 27.1144 135.617 26.893 135.617 25.7163C135.617 24.6374 135.566 24.1411 135.397 23.2391C135.284 22.6347 134.816 22.0855 134.749 21.2858H134.46C134.433 20.0756 131.828 17.7273 130.606 17.6258V17.3369C130.087 17.3253 128.766 16.7522 128.187 16.6723C127.07 16.5182 126.402 16.4453 125.473 16.6374C124.218 16.8969 124.089 16.7905 122.92 17.1675C122.491 17.3059 120.957 18.0982 120.873 18.1075Z" fill="#344054"/>
<path fill-rule="evenodd" clip-rule="evenodd" d="M21.6162 18.589L21.5357 18.7014L21.4236 18.7816L21.0655 19.0204L21.1532 19.0636L20.0742 20.4189V20.6117H19.8816L17.1834 24.0789L17.1031 24.1913L16.9906 24.2715L14.5816 27.3537V27.5463H14.3888L11.4977 31.2064L11.4175 31.3186L11.3049 31.399L7.09766 36.6263L7.06494 36.8889C7.2495 36.9556 8.75029 38.3001 9.01338 38.5052C9.772 39.0976 10.2853 39.4648 11.1157 39.9676C11.9157 40.4519 12.4734 40.8158 13.481 41.1672C13.7166 41.2495 15.872 42.1373 15.9305 42.2826H16.3161L21.1395 27.0002L21.038 26.9684H21.3271L21.1965 26.9275L23.6987 18.9624L23.7362 18.4927L23.6418 18.5264L23.4255 17.9226C22.9256 17.9032 22.9228 17.5097 22.2865 17.807C21.7955 18.0364 21.9325 18.2891 21.6162 18.589Z" fill="#676767"/>
<path fill-rule="evenodd" clip-rule="evenodd" d="M28.1694 42.2827L28.2803 42.0949L28.7476 42.0901V41.8975C28.63 41.9633 28.6446 41.9938 28.4585 41.9938H28.1694V42.2827Z" fill="#344054"/>
<path fill-rule="evenodd" clip-rule="evenodd" d="M5.52326 7.99419V8.18683H5.33066C5.32019 8.28238 4.012 10.2392 3.83997 10.4531C3.51349 10.8593 2.88894 12.3225 2.53945 12.9098C2.20418 13.4732 1.81543 14.963 1.57084 15.6978C1.49081 15.9383 0.955833 18.7581 0.897865 18.7815V20.9005H0.705078V22.1525H0.897865V24.2713C1.25259 24.4146 1.16152 25.9099 1.27839 26.2989C1.46183 26.9094 1.62638 27.522 1.83712 28.1484C2.08095 28.8736 3.08285 31.2147 3.11426 31.5914H3.40335V31.8803H3.59595L3.69244 32.0729L5.33066 29.8577L5.41088 29.7453L5.52326 29.6651L6.65118 28.3109L6.763 28.4113L6.87258 28.0278V27.8352H7.06518L9.85975 24.2714V24.0787L10.1488 23.9824L14.389 18.6852L14.4693 18.5729L14.5818 18.4926L15.4491 17.2405L15.5293 17.1282L15.6417 17.0479L16.9908 15.4105V15.2178H17.1836L17.9546 14.2547L18.0688 13.9727L18.2436 13.9658C21.1899 11.1723 25.2915 11.9175 27.7837 14.5436L27.8938 14.8301C28.1954 14.9467 27.9501 14.7075 28.1693 15.1215C28.1725 15.1518 28.8084 16.3645 28.9421 16.757C29.1656 17.4125 29.2293 17.9907 29.2293 18.8778C29.2293 20.3582 28.9013 21.0033 28.4845 22.0825C28.107 23.0597 27.9604 24.0971 27.5647 25.1119C26.8136 27.0387 26.3444 29.0968 25.7176 31.1636C25.1733 32.958 24.3764 35.2675 23.7584 37.1032C23.4373 38.0568 22.0018 42.3976 22.0018 43.1493L22.0165 43.2456L28.1693 42.2824V41.9935H28.4583C28.6444 41.9935 28.6298 41.9631 28.7474 41.8972C29.5883 41.8972 32.9463 40.1941 33.5252 39.7377C33.8717 39.4645 34.1653 39.2046 34.5366 39.015C35.3467 38.6019 34.9467 38.6232 35.5052 38.2493C36.3224 37.7023 36.5898 37.1772 37.2538 36.626C38.0977 35.9253 39.858 33.8228 40.3042 32.8364C40.8068 31.7253 42.3349 29.4364 42.3349 28.0278H42.624C42.624 26.4606 43.5152 24.5847 43.495 22.7341C43.4692 20.3604 43.4447 18.9013 42.9658 17.0917C42.7597 16.3136 42.646 15.255 42.3592 14.6155C42.1114 14.063 41.6086 13.0143 41.4298 12.4625C41.0809 11.3849 39.2621 8.96189 39.2512 8.47572L34.6256 4.23794L34.5133 4.15754L34.433 4.04516L29.9135 1.44225L29.8075 1.63729V1.3484L24.7978 0.186232L22.6764 0.192596V0H21.4238V0.192596H19.3037C19.1902 0.473455 17.361 0.595011 17.0717 0.658774C16.5401 0.775643 15.5207 1.09107 15.0109 1.29583C14.3574 1.55855 11.8312 2.62833 11.3231 3.00362C10.2288 3.81161 9.29931 4.407 8.22112 5.29708C7.21735 6.12544 6.41221 7.05755 5.52326 7.99419Z" fill="#344054"/>
</svg>
