<svg width="83" height="49" viewBox="0 0 83 49" fill="none" xmlns="http://www.w3.org/2000/svg">
<path fill-rule="evenodd" clip-rule="evenodd" d="M36.5375 29.1734H39.0868C39.7393 29.1734 39.9364 28.9763 39.9364 28.3238V26.0579H43.3352V29.1734H46.7341V32.8555H43.3352V35.9712H39.9364V32.8555H36.5375V29.1734ZM6.79769 3.68209L7.121 4.52405L5.94796 4.24863L2.77481 0.679088L2.54912 2.26595L2.87241 3.1079L2.26591 2.83248L0.789596 0.892528L0 1.133V1.69952C2.64271 5.50268 5.17406 8.40959 8.83332 11.2766C10.8241 12.8367 11.3727 14.0518 14.0644 15.3923C16.5435 16.627 17.7617 17.3275 19.6138 19.1897C21.0121 20.5955 22.7 22.513 24.1431 23.7242C26.5001 25.7024 27.9651 24.2843 29.3706 27.8435C30.3774 30.3932 31.6011 31.513 32.4708 34.09C32.8276 35.1468 34.2717 40.7616 34.2717 41.6358L34.2872 43.9982L42.2024 42.7688L47.8671 41.0693L50.133 39.9364C50.133 37.0267 50.5283 34.571 51.3771 32.4002C51.7124 31.5425 53.6195 26.3502 53.7988 26.0415C54.2962 25.1852 57.8119 24.2129 59.3106 22.7729C60.9149 21.2313 62.2852 19.4438 63.739 18.1379C64.7228 17.2541 67.6095 15.6408 69.0017 14.62C70.3223 13.6517 72.3143 11.3831 73.5712 10.1261C74.3478 9.34968 74.9231 8.77994 75.6925 7.99882C76.9663 6.70548 77.1889 7.11803 78.4686 6.24309C80.1282 5.10865 81.9141 1.99586 82.7053 1.41616V0.849748L82.1538 0.542257L80.7227 1.69948L79.4264 2.97381L80.4394 1.41616L80.7755 0.586702C78.2409 0.772987 78.734 2.83244 76.474 2.83244H75.9076C74.4717 2.83244 75.3974 1.29781 74.7747 0H74.2082C72.6242 3.30101 75.2337 4.60743 71.773 7.19479C69.1394 9.16385 68.3632 9.11939 65.6094 10.6615C64.6509 11.1982 63.6961 12.0658 62.9539 12.8209C61.4692 14.3315 61.4896 13.5125 59.5852 14.2672C57.5883 15.0585 55.4423 16.7543 53.815 17.8439C47.2037 17.8439 49.1031 19.3599 45.8844 20.1099L44.5413 16.2083C45.5511 16.0779 45.8844 16.1511 45.8844 15.2949C45.8844 14.4949 45.2345 14.202 44.7514 13.8786C44.7514 10.7273 43.2687 7.93062 40.2198 7.93062H39.0868C38.6274 9.65107 35.9712 9.09783 35.9712 14.445C35.6289 14.9562 35.4046 14.943 35.4046 15.578C35.4046 16.3773 37.104 16.1811 37.104 18.1272V19.5433C37.104 20.09 37.015 20.0475 36.8209 20.393C33.9058 19.6147 35.8395 18.1272 28.8903 18.1272C27.0212 16.8756 26.2953 16.1204 24.0771 15.0096C22.1085 14.0237 19.9533 14.1013 18.6243 12.8151C16.4895 10.749 11.3973 8.89869 8.49705 7.36408C8.49705 5.51589 8.84945 2.69628 7.08089 2.54906L6.79769 3.68209Z" fill="#344054"/>
<path fill-rule="evenodd" clip-rule="evenodd" d="M71.3755 28.607L72.1626 27.9412L71.3755 28.607Z" fill="#6DFB6E"/>
<path fill-rule="evenodd" clip-rule="evenodd" d="M26.9072 31.7226L27.4595 31.1135L26.9072 31.4394V31.7226Z" fill="#8FF890"/>
<path fill-rule="evenodd" clip-rule="evenodd" d="M26.9077 31.7226V31.4395L26.6245 31.7226H26.9077Z" fill="#00F900"/>
<path fill-rule="evenodd" clip-rule="evenodd" d="M71.3757 28.6071L66.2774 32.8556H65.4277V33.1389C66.063 33.2868 66.0789 33.4221 66.8439 33.4221H69.1098C72.7984 33.4221 77.0656 28.0257 77.3156 24.9893L74.2081 24.6419C69.4071 24.042 65.4277 27.774 65.5234 32.426L71.3757 28.6071Z" fill="#344054"/>
<path fill-rule="evenodd" clip-rule="evenodd" d="M36.5376 32.8557H39.9365V35.9714H43.3353V32.8557H46.7341V29.1736H43.3353V26.0581H39.9365V28.324C39.9365 28.9766 39.7394 29.1736 39.0868 29.1736H36.5376L36.5376 32.8557Z" fill="#FDFEF9"/>
<path fill-rule="evenodd" clip-rule="evenodd" d="M20.6764 49.0001H25.208C25.9327 48.5402 30.0176 48.3272 31.1571 48.1515C33.0856 47.854 35.2089 47.2295 36.884 46.7973C40.7501 45.8001 43.9873 44.6483 47.4707 43.2223C52.5283 41.1518 61.7982 36.2936 65.4278 33.1388V32.8555C64.2481 32.9538 53.9544 39.3294 50.1329 40.2197L47.867 41.0693C46.5637 42.2023 44.122 42.2669 42.4855 43.0521C37.9102 44.1179 33.3084 45.6012 27.7573 45.6012H26.9075C24.4084 45.6012 20.6764 44.3714 20.6764 41.9192V41.3527C20.6764 37.6187 25.0011 34.1465 26.6243 31.7227C22.8646 32.5985 12.4624 39.8183 12.4624 44.4683C12.4624 48.2841 19.3006 48.1272 20.6764 49.0001Z" fill="#344054"/>
</svg>
