<svg width="133" height="44" viewBox="0 0 133 44" fill="none" xmlns="http://www.w3.org/2000/svg">
<path fill-rule="evenodd" clip-rule="evenodd" d="M101.184 1.28982V5.58941C101.184 5.92476 101.421 6.16259 101.757 6.16259H106.486C106.821 6.16259 107.203 5.78036 107.203 5.44599V1.28984C107.203 0.955472 106.821 0.573242 106.486 0.573242H101.47C101.308 1.18166 101.184 0.823999 101.184 1.28982Z" fill="#667185"/>
<path fill-rule="evenodd" clip-rule="evenodd" d="M58.1875 18.4881V18.0582C58.1875 12.3272 61.2484 7.88243 66.9299 7.88243H67.6465C70.9597 7.88243 72.6627 8.53312 74.3481 10.2099C75.5126 11.369 77.1056 14.2308 77.1056 16.4816V19.2047C77.1056 23.2889 73.1363 27.6604 68.9364 27.6604H66.7866C61.9152 27.6604 58.1875 23.2979 58.1875 18.4881ZM57.6141 15.6217H57.3276V18.7748C57.3276 21.0255 58.7995 24.1402 59.94 25.3348C61.3982 26.8622 63.1288 28.377 66.07 28.377C66.3287 28.5501 66.322 28.6637 66.6432 28.6637H69.3663C69.711 28.6637 69.7877 28.4316 70.0829 28.2338C72.0138 28.2338 73.9773 26.8371 74.9919 25.8335C75.6785 25.1538 75.9722 24.5669 76.5057 23.7644C76.8042 23.3155 77.3384 21.3488 77.6416 21.2068L77.9655 18.0582V17.3416C77.9655 11.7514 73.9236 6.87915 68.363 6.87915H67.0733C64.6153 6.87915 61.8801 8.14615 60.5859 9.421C59.3938 10.5947 57.6141 13.3487 57.6141 15.6217Z" fill="#475367"/>
<path fill-rule="evenodd" clip-rule="evenodd" d="M85.4183 16.3383V26.9438H80.5454V8.31227H85.2749V10.8921C85.783 10.5198 86.4114 9.35176 87.2778 8.73875C88.0908 8.16328 89.3412 7.88234 90.721 7.88234H91.1511C95.0912 7.88234 97.4571 10.121 97.4571 14.045V27.0872H92.4409L92.4775 16.048L92.2976 14.0451C91.4463 12.7735 91.6186 11.8953 89.1446 11.8953C86.7332 11.8953 85.4183 13.9882 85.4183 16.3383ZM86.1349 8.45569C86.0936 7.96053 85.7688 7.45242 85.2749 7.45242H80.8321C80.1388 7.45242 79.6855 7.90562 79.6855 8.59895V26.6573C79.6855 27.3186 80.003 27.8038 80.6888 27.8038H85.4183C85.8053 27.8038 85.8135 27.7353 86.1349 27.6604C86.5415 25.9148 86.2782 21.7922 86.2782 19.6345C86.2782 18.2902 86.2177 16.6969 86.3875 15.5875C86.7256 13.3783 87.0646 14.0785 87.8582 12.9251L89.2878 12.7552C90.6282 12.5707 90.9952 13.3843 91.4376 14.045C91.4376 16.1655 91.581 18.8237 91.581 21.211C91.581 22.5873 91.0768 27.8038 92.2976 27.8038H97.3137C97.7007 27.8038 97.7089 27.7352 98.0303 27.6603C98.1053 27.3389 98.1736 27.3307 98.1736 26.9437V13.1852C98.1736 9.55843 95.1209 7.02246 91.4376 7.02246H90.0044C87.9374 7.02246 87.0776 8.20409 86.1349 8.45569Z" fill="#475367"/>
<path fill-rule="evenodd" clip-rule="evenodd" d="M115.229 14.1886H110.499C110.499 9.84856 113.621 7.88252 118.095 7.88252H119.528C123.796 7.88252 126.264 9.79301 126.264 14.1886C126.264 16.3861 126.264 18.5837 126.264 20.7812C126.264 21.8769 126.244 22.9898 126.259 24.0829C126.281 25.7043 127.124 26.1865 127.124 26.514V26.9439H121.965C121.845 26.4309 121.678 26.2707 121.678 25.6541V24.9375C120.805 25.1704 119.146 27.6605 116.518 27.6605H114.799C112.374 27.6605 109.926 25.2729 109.926 22.6443V21.2112C109.926 18.5369 112.155 16.8019 114.427 16.2531C116.016 15.8693 116.724 15.8719 118.468 15.5644C119.838 15.323 121.391 15.2187 121.391 13.7587C121.391 12.5733 120.567 11.7521 119.385 11.7521H118.095C116.315 11.7521 115.367 12.5268 115.229 14.1886ZM109.639 13.6153V14.3319C109.639 14.6662 110.022 15.0485 110.356 15.0485H114.942C116.616 15.0485 115.255 12.612 118.095 12.612H118.382C119.176 12.612 120.531 12.7358 120.531 13.472V13.7587C120.531 15.83 109.066 13.1703 109.066 21.7845V22.7878C109.066 27.5001 114.129 28.0695 114.369 28.6638H116.805C117.5 28.6638 120.474 27.2116 120.675 26.6574H121.105C121.122 27.4176 121.345 27.804 122.108 27.804H127.411C127.745 27.804 128.127 27.4216 128.127 27.0874V26.2274C128.127 25.2826 127.109 26.2503 127.123 23.935C127.13 22.8365 127.124 21.7365 127.124 20.638C127.124 18.3928 127.116 16.1467 127.124 13.902C127.133 11.6283 126.445 10.1582 125.297 8.99302C124.52 8.20332 124.146 8.31723 123.178 7.81601C122.935 7.69013 120.673 7.02271 120.531 7.02271H116.518C113.189 7.02271 109.639 10.3311 109.639 13.6153Z" fill="#475367"/>
<path fill-rule="evenodd" clip-rule="evenodd" d="M64.0635 17.628C64.0635 15.2616 64.9635 12.7553 67.2165 12.7553H68.2198C70.0786 12.7553 71.2294 15.096 71.2294 17.0549V18.4881C71.2294 20.3271 69.8992 22.7877 68.2198 22.7877H67.0733C66.1656 22.7877 65.1477 21.727 64.7486 21.0993C64.2139 20.2594 64.0635 18.9416 64.0635 17.628ZM63.2036 17.3415V18.918C63.2036 20.0233 64.0492 21.7034 64.6712 22.3233C65.7615 23.4096 66.2918 23.5042 68.363 23.5042H68.6497C70.4971 23.5042 72.0894 20.5777 72.0894 18.488V17.0549C72.0894 14.3966 70.4681 11.8953 67.7898 11.8953C64.7027 11.8953 63.2036 14.2934 63.2036 17.3415Z" fill="#475367"/>
<path fill-rule="evenodd" clip-rule="evenodd" d="M22.2144 15.192V18.2016C22.2144 18.537 22.4522 18.775 22.7875 18.775H23.7908C24.7038 18.775 25.6539 18.0002 25.6539 17.0551V16.6252C25.6539 15.5588 24.712 15.0486 23.6475 15.0486H22.931C22.7053 15.0486 22.3878 15.1246 22.2144 15.192Z" fill="#344054"/>
<path fill-rule="evenodd" clip-rule="evenodd" d="M63.2037 17.3415C63.2037 14.2933 64.7027 11.8952 67.7899 11.8952C70.4681 11.8952 72.0895 14.3966 72.0895 17.0548V18.488C72.0895 20.5776 70.4971 23.5042 68.6498 23.5042H68.3631C66.2918 23.5042 65.7616 23.4096 64.6713 22.3232C64.0493 21.7033 63.2037 20.0233 63.2037 18.9179V17.3415ZM58.1875 18.488C58.1875 23.2978 61.9152 27.6603 66.7866 27.6603H68.9364C73.1364 27.6603 77.1056 23.2888 77.1056 19.2046V16.4815C77.1056 14.2307 75.5126 11.3689 74.3481 10.2098C72.6626 8.53302 70.9597 7.88232 67.6465 7.88232H66.9299C61.2484 7.88232 58.1875 12.3271 58.1875 18.0581V18.488Z" fill="#344054"/>
<path fill-rule="evenodd" clip-rule="evenodd" d="M117.521 23.2174H117.092C116.197 23.2174 115.515 22.8071 115.515 21.9275V21.6409C115.515 19.5602 119.056 19.9121 120.531 19.2045C120.531 21.5498 119.775 23.2174 117.521 23.2174ZM114.798 20.9243V22.0709C114.798 23.0096 115.721 24.0772 116.375 24.0772H117.235C119.309 24.0772 121.391 22.4531 121.391 20.4943V17.9146C120.859 18.1073 120.609 18.4166 119.785 18.6012C119.049 18.7652 118.43 18.7828 117.695 18.9483C116.763 19.1579 114.798 19.8468 114.798 20.9243Z" fill="#475367"/>
<path fill-rule="evenodd" clip-rule="evenodd" d="M10.6055 13.4717V14.3315C10.6055 14.7185 10.674 14.7267 10.7489 15.0481H13.0419C13.8051 15.0481 13.4719 18.8833 13.4719 19.7776C13.4719 21.5452 13.4719 23.313 13.4719 25.0804C13.7307 25.2535 13.7238 25.3671 14.0452 25.3671H15.0485C15.4354 25.3671 15.4436 25.2986 15.7651 25.2239V15.1915C16.0865 15.1166 16.0947 15.0481 16.4817 15.0481H18.6314C18.6687 14.6 18.7747 14.539 18.7747 14.0449V13.4717C18.7747 13.1412 18.675 13.0417 18.3448 13.0417H11.0356C10.7051 13.0417 10.6055 13.1412 10.6055 13.4717Z" fill="#667185"/>
<path fill-rule="evenodd" clip-rule="evenodd" d="M22.2146 15.192C22.388 15.1247 22.7055 15.0486 22.9312 15.0486H23.6478C24.7122 15.0486 25.6542 15.5589 25.6542 16.6252V17.0552C25.6542 18.0002 24.704 18.775 23.791 18.775H22.7878C22.4524 18.775 22.2146 18.537 22.2146 18.2017V15.192ZM19.9214 13.6154V24.7943C19.9214 25.1296 20.1594 25.3676 20.4947 25.3676H21.7847C22.5436 25.3676 22.2146 21.9261 22.2433 21.0967L22.5013 20.7814C23.8832 20.7814 25.4593 20.9831 26.2332 20.3572C26.9559 19.772 27.8039 18.9373 27.8039 17.6283V15.7652C27.8039 14.68 26.3888 13.0422 25.081 13.0422H20.4947C20.1594 13.0422 19.9214 13.2801 19.9214 13.6154Z" fill="#667185"/>
<path fill-rule="evenodd" clip-rule="evenodd" d="M19.9213 13.6155C19.9213 13.2801 20.1593 13.0423 20.4947 13.0423H25.0809C26.3887 13.0423 27.8039 14.6801 27.8039 15.7653V17.6284C27.8039 18.9373 26.9558 19.7721 26.2332 20.3573C25.4592 20.9832 23.8831 20.7814 22.5012 20.7814L22.2432 21.0968C22.2145 21.9262 22.5435 25.3677 21.7846 25.3677H20.4947C20.1593 25.3677 19.9213 25.1297 19.9213 24.7944L19.9213 13.6155ZM10.6056 13.4722C10.6056 13.1418 10.7052 13.0423 11.0357 13.0423H18.3449C18.6752 13.0423 18.7748 13.1418 18.7748 13.4722V14.0454C18.7748 14.5396 18.6688 14.6006 18.6316 15.0487H16.4818C16.0948 15.0487 16.0866 15.1172 15.7652 15.1921V25.2244C15.4438 25.2992 15.4356 25.3677 15.0486 25.3677H14.0453C13.7239 25.3677 13.7308 25.2541 13.472 25.081C13.472 23.3136 13.472 21.5457 13.472 19.7782C13.472 18.8839 13.8052 15.0487 13.042 15.0487H10.749C10.6741 14.7273 10.6056 14.7191 10.6056 14.3321L10.6056 13.4722ZM29.5237 29.3806C29.5742 29.2678 29.6671 28.8471 29.6671 28.664V9.74585C29.6671 9.41558 29.5675 9.31592 29.2371 9.31592H9.17236V29.2374C9.49378 29.3123 9.50214 29.3806 9.88896 29.3806L29.5237 29.3806Z" fill="#475367"/>
<path fill-rule="evenodd" clip-rule="evenodd" d="M85.4183 16.3383C85.4183 13.9882 86.7332 11.8953 89.1446 11.8953C91.6186 11.8953 91.4463 12.7735 92.2976 14.0451L92.4774 16.048L92.4409 27.0872H97.457V14.045C97.457 10.121 95.0912 7.88232 91.1511 7.88232H90.721C89.3412 7.88232 88.0908 8.16326 87.2778 8.73874C86.4114 9.35174 85.783 10.5197 85.2749 10.8921V8.31225H80.5454V26.9438H85.4183L85.4183 16.3383Z" fill="#344054"/>
<path fill-rule="evenodd" clip-rule="evenodd" d="M114.799 20.9249C114.799 19.8474 116.763 19.1585 117.695 18.9489C118.43 18.7833 119.049 18.7658 119.785 18.6017C120.609 18.4171 120.859 18.1079 121.391 17.9151V20.4948C121.391 22.4537 119.309 24.0778 117.235 24.0778H116.375C115.721 24.0778 114.799 23.0101 114.799 22.0714V20.9249ZM115.229 14.1889C115.367 12.527 116.314 11.7524 118.095 11.7524H119.385C120.567 11.7524 121.391 12.5736 121.391 13.7589C121.391 15.219 119.838 15.3233 118.468 15.5647C116.724 15.8722 116.016 15.8696 114.427 16.2534C112.155 16.8022 109.926 18.5371 109.926 21.2114V22.6446C109.926 25.2732 112.374 27.6608 114.799 27.6608H116.518C119.146 27.6608 120.805 25.1707 121.678 24.9378V25.6544C121.678 26.271 121.845 26.4312 121.964 26.9442H127.124V26.5143C127.124 26.1868 126.281 25.7046 126.259 24.0832C126.244 22.9901 126.264 21.8772 126.264 20.7815C126.264 18.584 126.264 16.3864 126.264 14.1889C126.264 9.79326 123.796 7.88281 119.528 7.88281H118.095C113.621 7.88281 110.499 9.84886 110.499 14.1889L115.229 14.1889Z" fill="#344054"/>
<path fill-rule="evenodd" clip-rule="evenodd" d="M38.9827 1.86319H59.4774V6.16261H52.0249V26.6574C52.0249 26.9876 51.9252 27.0873 51.595 27.0873H46.5788V6.1626H38.9827L38.9827 1.86319ZM38.2661 2.00644V6.1626C38.2661 6.49697 38.6485 6.87919 38.9827 6.87919H45.8622V27.0873C45.8622 27.4215 46.2444 27.8039 46.5788 27.8039H52.0249C52.3591 27.8039 52.7415 27.4215 52.7415 27.0873V6.87919H59.3341C59.8836 6.87919 60.3373 6.46582 60.3373 6.01934V1.86319C60.3373 1.518 59.8225 1.00317 59.4773 1.00317H39.6993C38.9111 1.00317 38.2661 1.19314 38.2661 2.00644Z" fill="#475367"/>
<path fill-rule="evenodd" clip-rule="evenodd" d="M38.9824 6.16246H46.5785V27.0871H51.5947C51.9249 27.0871 52.0246 26.9875 52.0246 26.6572V6.16247H59.4771V1.86304H38.9824L38.9824 6.16246Z" fill="#344054"/>
<path fill-rule="evenodd" clip-rule="evenodd" d="M101.613 27.0871H106.63V8.31226H101.613V27.0871Z" fill="#344054"/>
<path fill-rule="evenodd" clip-rule="evenodd" d="M101.613 8.31224H106.629V27.0871H101.613V8.31224ZM100.897 8.45565V26.9437C100.897 27.3307 100.965 27.3389 101.04 27.6603C101.361 27.7352 101.369 27.8038 101.756 27.8038H106.486C107.29 27.8038 107.489 27.3081 107.489 26.5138V8.59892C107.489 7.74481 106.911 7.45239 106.056 7.45239H101.9C101.231 7.45239 100.897 7.78675 100.897 8.45565Z" fill="#475367"/>
<path fill-rule="evenodd" clip-rule="evenodd" d="M7.16596 8.02594C7.16596 7.69059 7.40378 7.45259 7.73913 7.45259H31.3868C31.4617 7.77401 31.5302 7.78221 31.5302 8.16919V31.1003C31.2088 31.1752 31.2006 31.2435 30.8136 31.2435H7.30921C7.23431 30.9221 7.16596 30.9139 7.16596 30.5269L7.16596 8.02594ZM16.195 5.58948C15.9364 5.76256 15.9431 5.87615 15.6217 5.87615H5.58953L5.59051 16.1566L0.286671 16.195C0.113587 16.4538 0 16.4469 0 16.7683V21.9278C0 22.6957 4.36054 22.3579 5.30284 22.3579C5.47593 22.6165 5.58951 22.6096 5.58951 22.931L5.58902 32.7987L15.8797 32.8488L16.195 33.1066V38.5529C16.4537 38.7258 16.447 38.8394 16.7684 38.8394L22.4649 38.8406L22.5297 33.1353L22.7877 32.8202H32.82C32.9931 32.5613 33.1067 32.5682 33.1067 32.2468V22.6444C33.7151 22.4821 33.3574 22.3579 33.8233 22.3579H38.6962V16.195H33.5366C32.7734 16.195 33.1067 12.3598 33.1067 11.4655C33.1067 9.69815 33.1066 7.93026 33.078 6.19138L32.82 5.8762L22.8163 5.84751L22.5011 5.58953C22.5011 4.62314 22.8408 0 22.0711 0H16.625C15.8554 0 16.195 4.62307 16.195 5.58948Z" fill="#475367"/>
<path fill-rule="evenodd" clip-rule="evenodd" d="M100.18 33.1067V33.5368C100.18 33.9435 100.675 34.2534 101.04 34.2534C101.709 34.2534 102.043 33.9191 102.043 33.2502C102.043 32.9051 101.528 32.3901 101.183 32.3901C100.7 32.3901 100.18 32.6435 100.18 33.1067Z" fill="#475367"/>
<path fill-rule="evenodd" clip-rule="evenodd" d="M113.509 33.1067V33.5368C113.509 33.9435 114.004 34.2534 114.369 34.2534C115.038 34.2534 115.372 33.9191 115.372 33.2502C115.372 32.9051 114.857 32.3901 114.512 32.3901C114.029 32.3901 113.509 32.6435 113.509 33.1067Z" fill="#475367"/>
<path fill-rule="evenodd" clip-rule="evenodd" d="M40.8462 34.2533H41.9927C42.6616 34.2533 42.996 34.5875 42.996 35.2564V35.3998C42.996 36.2539 42.4176 36.5463 41.5628 36.5463H40.8462V34.2533ZM41.5628 37.9795C43.3464 37.9795 44.8591 37.0548 44.8591 35.2564C44.8591 33.6183 43.1507 32.676 41.4194 32.8201L38.9852 32.9888L38.9829 40.8459H40.8462V37.9795L41.5628 37.9795Z" fill="#475367"/>
<path fill-rule="evenodd" clip-rule="evenodd" d="M47.7254 37.4061C47.7254 36.6103 48.0926 36.5508 48.7287 36.403C49.2088 36.657 49.5885 36.8088 49.5885 37.5495V40.8458H51.4517V37.9794C51.4517 36.3079 50.9813 34.9698 49.3019 34.9698H49.1586C48.4843 34.9698 48.1317 35.4143 47.7254 35.6864V32.3899H45.8623V40.8458H47.7254L47.7254 37.4061Z" fill="#475367"/>
<path fill-rule="evenodd" clip-rule="evenodd" d="M54.3175 38.9826C54.3175 38.5183 54.9402 38.1226 55.464 38.1226H56.0374V38.8392C56.0374 39.1844 55.5226 39.6992 55.1775 39.6992H54.8909C54.5555 39.6992 54.3175 39.4612 54.3175 39.1259V38.9826ZM54.7474 40.989C55.3075 40.989 55.8048 40.5243 56.1806 40.2724V40.8457H57.7572V37.6927L57.5935 36.1187C56.7561 35.5419 56.9081 34.9697 55.1775 34.9697H54.8909C53.9259 34.9697 53.7175 35.2392 52.9919 35.4054L53.1743 36.5458C53.684 36.4265 53.8442 36.2595 54.4609 36.2595H55.3208C55.7909 36.2595 55.8586 36.5486 55.8941 36.9761C54.4604 36.9761 52.5977 37.4845 52.5977 38.8392V39.4126C52.5977 40.2285 53.3903 40.989 54.1743 40.989L54.7474 40.989Z" fill="#475367"/>
<path fill-rule="evenodd" clip-rule="evenodd" d="M60.9105 37.5497C60.9105 37.0853 61.5333 36.6897 62.0572 36.6897H62.6303V34.97H62.2004C61.327 34.97 61.0334 35.6453 60.624 36.1165V35.1132H59.0474V40.846H60.9105V37.5497Z" fill="#475367"/>
<path fill-rule="evenodd" clip-rule="evenodd" d="M65.2099 37.5497C65.2099 37.0258 65.6056 36.4032 66.0699 36.4032H66.2132C66.6775 36.4032 67.0732 37.0258 67.0732 37.5497V40.846H68.7929V37.5497C68.7929 37.0258 69.1886 36.4032 69.6529 36.4032H69.7962C70.4934 36.4032 70.6562 37.3856 70.6562 38.1229V40.846H72.3759V37.6929C72.3759 35.9349 71.8529 34.97 70.0828 34.97C69.3505 34.97 68.8313 35.6597 68.363 35.9731C68.2173 35.4268 67.759 34.97 67.0732 34.97H66.6431C65.8693 34.97 65.5328 35.5177 65.0667 35.8298C65.0564 35.3706 65.1132 35.1132 64.6368 35.1132H63.4902V40.846H65.2099L65.2099 37.5497Z" fill="#475367"/>
<path fill-rule="evenodd" clip-rule="evenodd" d="M94.0171 40.8456H99.0333V39.2695H95.8801V32.8198H94.0171V40.8456Z" fill="#475367"/>
<path fill-rule="evenodd" clip-rule="evenodd" d="M100.18 40.8458H102.043V35.113H100.18V40.8458Z" fill="#475367"/>
<path fill-rule="evenodd" clip-rule="evenodd" d="M105.053 37.5497C105.053 37.0258 105.448 36.4032 105.913 36.4032H106.056C106.52 36.4032 106.916 37.0258 106.916 37.5497V40.846H108.636V37.5497C108.636 37.0258 109.031 36.4032 109.496 36.4032H109.639C110.336 36.4032 110.499 37.3856 110.499 38.1229V40.846H112.219V37.6929C112.219 36.3676 111.753 34.97 110.499 34.97C109.19 34.97 109.092 35.3322 108.349 35.8298C107.842 35.4905 107.681 34.97 106.916 34.97H106.773C105.654 34.97 105.521 35.4199 104.909 35.8298C104.899 35.3706 104.956 35.1132 104.48 35.1132H103.333V40.846H105.053V37.5497Z" fill="#475367"/>
<path fill-rule="evenodd" clip-rule="evenodd" d="M113.509 40.8458H115.372V35.113H113.509V40.8458Z" fill="#475367"/>
<path fill-rule="evenodd" clip-rule="evenodd" d="M75.2427 38.9826C75.2427 38.5183 75.8655 38.1226 76.3893 38.1226H76.9625V38.8392C76.9625 39.1844 76.4477 39.6992 76.1027 39.6992H75.816C75.4806 39.6992 75.2426 39.4612 75.2426 39.1259L75.2427 38.9826ZM75.0994 40.989C76.2151 40.989 76.4498 40.7117 77.1059 40.2724V40.8457H78.6824V37.6927L78.5186 36.1187C77.6812 35.5419 77.8332 34.9697 76.1027 34.9697H75.6727C74.9897 34.9697 74.5583 35.2585 73.917 35.4054L74.0994 36.5458C74.6093 36.4265 74.7694 36.2595 75.3861 36.2595H76.2459C76.716 36.2595 76.7837 36.5486 76.8193 36.9761C75.3857 36.9761 73.5229 37.4845 73.5229 38.8392V39.4126C73.5229 40.2285 74.3154 40.989 75.0994 40.989Z" fill="#475367"/>
<path fill-rule="evenodd" clip-rule="evenodd" d="M84.4659 35.1259C83.7519 35.1129 83.4996 34.8918 82.9819 34.9697L81.6967 35.1449C80.5816 35.8564 79.6855 36.2054 79.6855 38.1226C79.6855 39.6641 81.0471 41.1503 82.5519 40.989L84.4126 40.8231C84.3782 39.1847 84.2797 39.5558 83.4118 39.5558H82.9819C82.2613 39.5558 81.5487 38.8431 81.5487 38.1226C81.5487 36.6776 82.7991 35.9084 84.1036 36.5397L84.4659 35.1259Z" fill="#475367"/>
<path fill-rule="evenodd" clip-rule="evenodd" d="M116.375 36.4033H117.092V38.6963C117.092 39.8343 117.577 40.9893 118.668 40.9893H119.671C120.002 40.9893 120.101 40.8898 120.101 40.5594V39.4129H119.385C118.881 39.4129 118.811 38.7769 118.811 38.2664V36.4032H120.101V35.1133H118.811V33.5369L117.099 33.8593L117.092 35.1133H116.375V36.4033Z" fill="#475367"/>
<path fill-rule="evenodd" clip-rule="evenodd" d="M122.395 37.2628C122.494 36.8386 122.765 36.2595 123.255 36.2595H123.828C124.372 36.2595 124.44 36.8132 124.544 37.2628H122.395ZM123.828 39.6992C123.041 39.6992 122.46 39.1941 122.395 38.4093H126.264C126.264 36.644 125.605 34.9697 123.971 34.9697H123.398C121.728 34.9697 120.675 36.4093 120.675 38.1226C120.675 39.9546 121.98 40.989 123.828 40.989H124.114C124.936 40.989 125.14 40.7602 125.834 40.7025L125.674 39.415C125.019 39.4685 124.982 39.6992 124.258 39.6992H123.828Z" fill="#475367"/>
<path fill-rule="evenodd" clip-rule="evenodd" d="M128.844 37.4061C128.844 36.9371 129.382 36.4029 129.99 36.4029H130.277C130.741 36.4029 131.137 37.0256 131.137 37.5495V38.4093C131.137 39.1026 130.684 39.5558 129.99 39.5558C129.424 39.5558 128.844 38.9053 128.844 38.2661V37.4061ZM126.98 38.1227C126.98 39.5276 127.958 40.989 129.274 40.989H129.417C130.536 40.989 130.668 40.5391 131.28 40.1292V40.8458H133V32.3899H131.137V35.543C130.68 35.2374 130.336 34.9698 129.56 34.9698H129.274C127.878 34.9698 126.98 36.6283 126.98 38.1227Z" fill="#475367"/>
<path fill-rule="evenodd" clip-rule="evenodd" d="M84.8447 35.113C85.045 35.4913 87.1378 40.7092 87.1378 40.8458C87.1378 41.2231 86.0629 41.9503 85.5613 41.9923C85.5613 45.6311 88.4048 42.0324 88.9153 40.7602C89.5908 39.0779 90.2969 36.5939 91.0074 35.113H89.0011L88.0838 38.9687L86.897 35.0994L84.8447 35.113Z" fill="#475367"/>
</svg>
