<svg width="64" height="50" viewBox="0 0 64 50" fill="none" xmlns="http://www.w3.org/2000/svg">
<path fill-rule="evenodd" clip-rule="evenodd" d="M33.4965 3.07458L33.5777 2.75098H33.335L33.4965 2.83188V3.07458Z" fill="#344054"/>
<path fill-rule="evenodd" clip-rule="evenodd" d="M28.8853 3.96471V4.53114C28.8853 4.97269 29.5229 5.66392 29.8562 5.66392H30.7461C31.1216 5.66392 31.4023 5.40688 31.5695 5.17589L31.3912 4.02356L30.3416 4.12657V4.45021C30.3416 4.63667 30.3979 4.69291 30.5844 4.69291H30.8271C30.8213 4.95226 30.8534 5.09748 30.5844 5.09748H30.2607C29.8432 5.09748 29.6134 4.76067 29.6134 4.36927V4.04564C29.6134 3.6282 29.9503 3.39837 30.3416 3.39837H30.4225C30.6694 3.39837 30.749 3.4761 30.9652 3.59257L31.2316 2.9938C30.9491 2.92797 30.9592 2.83203 30.6652 2.83203H30.0179C29.5127 2.83203 28.8853 3.45946 28.8853 3.96471Z" fill="white"/>
<path fill-rule="evenodd" clip-rule="evenodd" d="M27.0244 5.25937L27.1985 5.33634L27.1053 5.17847L27.0244 5.25937Z" fill="#344054"/>
<path fill-rule="evenodd" clip-rule="evenodd" d="M37.2994 5.66387L37.4613 5.58293L37.5422 4.85474C37.1953 4.94729 37.0734 5.23538 36.8936 5.5049L37.2994 5.66387Z" fill="#344054"/>
<path fill-rule="evenodd" clip-rule="evenodd" d="M27.1049 5.17831L27.1979 5.33611L27.024 5.25924C26.8275 5.16494 25.3708 4.45011 25.3249 4.45011C25.1682 4.45011 25.0615 4.56017 24.8394 4.61197C24.8664 4.93666 25.999 7.20104 26.134 7.20104C26.2905 7.20104 26.3972 7.09096 26.6701 7.01487L25.9721 5.50194C26.2158 5.63089 27.6075 6.31107 27.8331 6.31107C28.08 6.31107 28.1595 6.23332 28.318 6.14949L27.0944 3.6123L26.4687 3.83517L27.1049 5.17831Z" fill="white"/>
<path fill-rule="evenodd" clip-rule="evenodd" d="M33.4969 3.0747V2.832L33.3351 2.75106L32.8402 2.74951L32.6069 4.36924V4.77381C32.6069 5.42388 33.219 5.74471 33.9015 5.74471H34.0633C34.9824 5.74471 35.2567 3.98499 35.2755 3.08437L34.5487 2.99376C34.5094 3.46619 34.3519 5.09744 33.9015 5.09744H33.6588C33.504 5.09744 33.3261 4.94535 33.3035 4.85164L33.4969 3.0747Z" fill="white"/>
<path fill-rule="evenodd" clip-rule="evenodd" d="M37.2998 5.66391L37.4618 5.74456V5.58276L37.2998 5.66391Z" fill="#AADF93"/>
<path fill-rule="evenodd" clip-rule="evenodd" d="M37.4618 5.58277V5.74455L37.2999 5.66371L36.8941 5.50474C37.0739 5.23522 37.1958 4.94712 37.5427 4.85457L37.4618 5.58277ZM35.3115 6.01841C35.613 6.12761 35.8329 6.31097 36.0054 6.31097C36.1268 6.31097 36.3695 5.9064 36.4909 5.9064C36.6315 5.9064 37.2403 6.23652 37.3808 6.31097C37.3531 6.64341 37.2999 6.49172 37.2999 6.79638C37.2999 7.06213 37.7331 7.16862 37.9674 7.28363L38.19 4.36906C38.2144 4.08927 37.7672 4.01686 37.5256 3.94629L35.3115 6.01841Z" fill="white"/>
<path fill-rule="evenodd" clip-rule="evenodd" d="M23.0574 7.12124L23.912 7.48234L23.4663 7.92815L23.0574 7.12124ZM22.2505 6.79644L23.3833 9.54738C23.5589 9.50053 23.9496 9.24447 23.9496 9.06198C23.9496 8.928 23.766 8.60755 23.7069 8.49555C23.7789 8.38799 24.3724 7.84828 24.435 7.84828C24.6753 7.84828 24.6515 8.01014 25.0014 8.01014C25.2282 8.01014 25.4684 7.67296 25.5678 7.52465C25.0048 7.39347 23.0583 6.31104 22.8168 6.31104C22.5901 6.31104 22.3498 6.64813 22.2505 6.79644Z" fill="white"/>
<path fill-rule="evenodd" clip-rule="evenodd" d="M39.9834 7.06466C40.3293 7.19458 40.2647 7.282 40.3742 7.282C40.6712 7.282 40.8597 7.16535 40.8597 6.87743C40.8597 6.82341 40.6048 6.57568 40.4979 6.44141L39.9834 7.06466Z" fill="#344054"/>
<path fill-rule="evenodd" clip-rule="evenodd" d="M23.4661 7.92787L23.9119 7.48207L23.0571 7.12109L23.4661 7.92787Z" fill="#344054"/>
<path fill-rule="evenodd" clip-rule="evenodd" d="M40.374 8.17198L40.4559 7.93986L40.8594 7.84814H40.374V8.17198Z" fill="#9FDB90"/>
<path fill-rule="evenodd" clip-rule="evenodd" d="M40.498 6.44146C40.6049 6.57573 40.8598 6.82347 40.8598 6.87749C40.8598 7.1654 40.6713 7.28205 40.3743 7.28205C40.2648 7.28205 40.3294 7.19463 39.9835 7.06472L40.498 6.44146ZM40.3743 8.17203V7.8484H40.8598C41.2173 7.76514 41.5071 7.55544 41.5071 7.12019V6.95841C41.5071 6.53632 40.5975 5.61499 40.2529 5.61915L38.4316 7.68769L39.0308 8.15402L39.0274 8.03881L39.6747 7.39155L39.7935 7.45428L39.6462 8.49565V8.65752C39.6462 8.93556 40.0178 9.12086 40.2079 9.22309L40.3743 8.17203Z" fill="white"/>
<path fill-rule="evenodd" clip-rule="evenodd" d="M42.235 10.761C41.7196 10.761 41.6016 10.3647 41.4308 10.0411L42.9632 9.22365C43.0019 9.38968 43.2059 9.78757 43.2059 9.79008C43.2059 10.3009 42.732 10.761 42.235 10.761ZM40.5464 9.72667C40.8864 10.2326 41.3656 11.4083 42.1541 11.4083H42.5587C43.0775 11.4083 43.7724 10.8245 43.7724 10.2755V9.87092C43.7724 9.17573 43.19 8.79894 43.0313 8.23145L40.5464 9.72667Z" fill="white"/>
<path fill-rule="evenodd" clip-rule="evenodd" d="M21.7646 10.2756V10.3565L21.9427 10.4212L21.7646 10.2756Z" fill="#6BCB7D"/>
<path fill-rule="evenodd" clip-rule="evenodd" d="M42.2349 10.7612C42.7318 10.7612 43.2058 10.3011 43.2058 9.79031C43.2058 9.7878 43.0017 9.3899 42.9631 9.22388L41.4307 10.0413C41.6014 10.365 41.7195 10.7612 42.2349 10.7612Z" fill="#344054"/>
<path fill-rule="evenodd" clip-rule="evenodd" d="M21.7649 10.2758L21.943 10.4215L21.7649 10.3567L19.9376 9.99989L19.499 10.6832L22.5741 11.1659C22.6283 10.9333 22.8168 10.6961 22.8168 10.6804C22.8168 10.3349 21.1522 8.60447 21.0367 8.17212C20.935 8.24676 20.6322 8.59623 20.6322 8.73854C20.6322 9.00158 21.579 9.99815 21.7649 10.2758Z" fill="white"/>
<path fill-rule="evenodd" clip-rule="evenodd" d="M16.1017 16.6675V15.9393C16.1017 7.5378 23.4278 0.485484 31.9601 0.485484C36.5405 0.485484 40.6636 2.57658 42.9443 4.87405C45.1517 7.09748 47.8185 11.106 47.8185 15.4538V16.9102C47.8185 24.8427 40.5665 32.2023 32.6883 32.2023H31.3128C23.2426 32.2023 16.1017 24.8382 16.1017 16.6675ZM16.2635 21.1176L16.5062 21.8458C16.7208 22.1546 17.2617 23.5165 17.5044 24.0031C17.8779 24.7516 18.2656 25.2915 18.7064 25.9566C19.4472 27.0744 20.7857 28.3918 21.8317 29.2232C23.812 30.7969 27.5659 32.6877 31.07 32.6877H32.7691C36.3965 32.6877 40.8489 30.5511 42.661 28.7439C45.2117 26.2006 46.935 24.2052 47.8994 20.0657L48.0612 19.2566L48.3039 17.6384V16.182C48.3039 7.25803 40.9049 0 31.9601 0C23.0311 0 15.6162 7.29393 15.6162 16.182V16.263C15.6162 17.213 15.7204 17.9631 15.7774 18.8527C15.819 19.5025 16.2113 20.4901 16.2635 21.1176Z" fill="white"/>
<path fill-rule="evenodd" clip-rule="evenodd" d="M35.601 13.4309C35.601 13.6054 37.7898 15.0167 38.0266 15.3982L34.9422 15.2063L34.2266 17.0187L39.6465 16.8292C39.6808 16.4169 40.2129 15.5662 40.2129 15.2919C40.2129 15.2283 36.4901 11.6346 36.2482 11.5701C36.2368 12.083 35.601 13.0832 35.601 13.4309Z" fill="#FAFDFB"/>
<path fill-rule="evenodd" clip-rule="evenodd" d="M43.5298 16.344V16.5057C43.5298 17.0445 44.1585 17.5576 44.6626 17.5576H44.7435C45.2786 17.5576 45.8762 16.9599 45.8762 16.4249V16.263C45.8762 15.8359 45.3186 15.2112 44.9862 15.2112H44.6626C44.0152 15.2112 43.5298 15.6966 43.5298 16.344Z" fill="white"/>
<path fill-rule="evenodd" clip-rule="evenodd" d="M18.2856 16.1821V16.5057C18.2856 16.9418 18.7215 17.4766 19.1757 17.4766H19.6611C20.0725 17.4766 20.5512 16.998 20.5512 16.5866V16.1821C20.5512 15.6961 20.0663 15.2112 19.5802 15.2112H19.2566C18.8059 15.2112 18.2856 15.7314 18.2856 16.1821Z" fill="white"/>
<path fill-rule="evenodd" clip-rule="evenodd" d="M34.9532 18.6904H35.115C35.1602 18.6252 35.2768 18.4906 35.2768 18.4477C35.2768 18.2662 35.2128 18.27 35.115 18.124H34.9532H34.7104V18.6904H34.9532Z" fill="#475367"/>
<path fill-rule="evenodd" clip-rule="evenodd" d="M34.953 18.6902H34.7103V18.1239H34.953L34.6294 18.043L34.6309 18.7821L34.953 18.6902Z" fill="#8BD7B3"/>
<path fill-rule="evenodd" clip-rule="evenodd" d="M36.8143 19.0947L36.9754 18.9229L36.4907 19.0138L36.8143 19.0947Z" fill="#96DBBA"/>
<path fill-rule="evenodd" clip-rule="evenodd" d="M35.5197 19.0949L35.6009 18.9331L35.4268 18.9373L35.5197 19.0949Z" fill="#5BC793"/>
<path fill-rule="evenodd" clip-rule="evenodd" d="M34.9528 18.6904L34.6307 18.7824L34.6292 18.0431L34.9528 18.1241H35.1147C35.2125 18.2701 35.2765 18.2663 35.2765 18.4477C35.2765 18.4906 35.1599 18.6253 35.1147 18.6904H34.9528ZM34.5483 21.3604L35.1955 21.4414L35.681 20.7132L35.8032 20.7378L36.2474 21.4414H37.0565C36.9136 21.1713 36.1664 20.3175 36.1664 20.1468C36.1664 19.9456 36.7305 19.4068 36.8138 19.095L36.4902 19.0141L36.0966 19.0205L35.8029 19.5235L35.7186 19.5239L35.5192 19.095L35.4261 18.9372L35.6001 18.9331C35.7381 18.8408 35.9237 18.7571 35.9237 18.5286V18.1241C35.9237 17.7224 35.1958 17.4039 34.7074 17.4588L33.9819 17.5577V20.1468H34.7101L34.7428 19.2346L35.3773 20.1608L34.5483 21.3604Z" fill="#F6FCF9"/>
<path fill-rule="evenodd" clip-rule="evenodd" d="M35.1961 21.4415L34.5489 21.3604L34.4683 21.5312L35.1961 21.4415Z" fill="#79D1A7"/>
<path fill-rule="evenodd" clip-rule="evenodd" d="M29.4962 21.8275L32.0924 21.8351L36.0857 11.2468L33.3438 11.2501L30.8247 18.0725L30.7455 18.0433C30.4976 16.9787 29.8337 15.7231 29.4996 14.5964C29.3651 14.143 28.3441 11.2468 28.0755 11.2468L25.1772 11.2739L29.4962 21.8275Z" fill="#FDFEFD"/>
<path fill-rule="evenodd" clip-rule="evenodd" d="M21.4541 22.4349C21.4645 22.6902 21.5894 22.9787 21.8459 22.9787C22.0521 22.9787 22.3314 22.8037 22.3314 22.5742C22.3314 22.454 22.1566 22.2171 22.0842 22.0808L21.4541 22.4349Z" fill="#344054"/>
<path fill-rule="evenodd" clip-rule="evenodd" d="M22.084 22.0807C22.1564 22.217 22.3312 22.4539 22.3312 22.574C22.3312 22.8036 22.0519 22.9786 21.8457 22.9786C21.5892 22.9786 21.4643 22.6901 21.4539 22.4348L22.084 22.0807ZM19.7656 22.6132L20.0802 23.2482L20.9557 22.8167C21.0478 23.1617 21.4098 23.6259 21.8457 23.6259H22.0884C22.4974 23.6259 22.8975 23.334 22.8975 22.8977V22.7358C22.8975 22.0037 22.39 21.722 22.2137 21.1379L19.7656 22.6132Z" fill="white"/>
<path fill-rule="evenodd" clip-rule="evenodd" d="M41.507 21.6842V21.7652C41.507 22.0683 41.9319 22.6306 42.072 22.9094L41.1834 22.817H40.8597C40.6152 22.817 40.4248 23.2475 40.375 23.4519L42.3977 23.5441L43.287 24.1116C43.3202 24.062 43.6107 23.6379 43.6107 23.6262C43.6107 23.2814 42.8942 23.1805 42.5858 22.5473C42.3976 22.1609 41.9977 21.4876 41.9116 21.1179H41.7497C41.6737 21.4441 41.507 21.4951 41.507 21.6842Z" fill="white"/>
<path fill-rule="evenodd" clip-rule="evenodd" d="M47.8989 20.066C49.0692 20.1634 52.0947 21.2045 53.1334 21.6279C54.806 22.3096 56.31 22.9756 57.7213 23.9173C60.2342 25.5941 63.1909 28.0952 63.1909 32.2025C63.1909 38.4634 54.8783 43.2903 50.095 45.1596C43.8421 47.6032 36.713 49.1937 27.9949 49.1937C21.4618 49.1937 15.3228 48.1927 10.6555 46.3055C6.6094 44.6697 0.728191 41.3727 0.728191 35.9244C0.728191 31.7807 4.11151 28.6837 6.53155 26.8403C8.61305 25.2549 13.6373 22.5143 16.5056 21.846L16.2629 21.1178C13.3257 21.8021 8.29484 24.5419 6.1626 26.1477C4.53319 27.3749 3.59723 28.2387 2.28742 29.7971C1.46037 30.7811 0 33.3905 0 35.1152V36.6526C0 38.9773 2.27561 42.1319 3.64102 43.1254C4.70166 43.8972 5.42076 44.4959 6.61821 45.2455C7.66046 45.8979 8.86468 46.3901 10.0587 46.9024C14.3214 48.7312 21.1908 50.0027 27.2667 50.0027H28.7231C36.9598 50.0027 45.1381 48.1041 50.9049 45.6459C55.8069 43.5562 64 38.8029 64 32.2025V31.9598C64 27.947 60.7631 25.0027 58.2877 23.3509C57.0769 22.5429 55.017 21.4475 53.5624 20.9562C52.6817 20.6587 51.9134 20.2663 50.91 20.0485C50.6121 19.984 48.278 19.3611 48.0607 19.2568L47.8989 20.066Z" fill="#475367"/>
<path fill-rule="evenodd" clip-rule="evenodd" d="M38.8369 25.4867C38.8369 26.1113 39.5789 26.8622 40.2933 26.8622H40.3742C41.137 26.8622 41.7496 26.1907 41.7496 25.4058H41.3451C40.9967 25.4058 41.1107 26.2149 40.4551 26.2149C40.024 26.2149 39.4842 25.6037 39.4842 25.244C39.4842 24.9724 39.759 24.7904 39.8887 24.5967C40.1701 24.5967 40.3742 24.6462 40.3742 24.354V23.9495C39.4171 23.9495 38.8369 24.5367 38.8369 25.4867Z" fill="white"/>
<path fill-rule="evenodd" clip-rule="evenodd" d="M21.7578 25.6422C21.8791 25.7251 22.1938 26.0532 22.2504 26.0532C22.5081 26.0532 22.9326 25.4336 23.0669 25.2358L23.8685 25.9723C23.7638 26.1287 23.1403 26.715 23.1403 26.7814C23.1403 27.0331 23.4495 27.1487 23.6574 27.2957L25.5637 25.1684L24.9826 24.7423L24.2684 25.5733L23.4464 24.9052L24.2109 24.0118L23.6907 23.5303L21.7578 25.6422Z" fill="white"/>
<path fill-rule="evenodd" clip-rule="evenodd" d="M35.6005 18.9329L35.5196 19.0948L35.719 19.5237L35.8033 19.5233L36.097 19.0203L36.4906 19.0139L36.9752 18.9228L36.8142 19.0948C36.731 19.4066 36.1668 19.9454 36.1668 20.1466C36.1668 20.3173 36.914 21.1711 37.0569 21.4412H36.2478L35.8036 20.7377L35.6814 20.713L35.1959 21.4412L34.4681 21.5309L34.5487 21.3602L35.3777 20.1606L34.7432 19.2344L34.7105 20.1466H33.9823V17.5575L34.7078 17.4586C35.1962 17.4037 35.9241 17.7222 35.9241 18.1239V18.5284C35.9241 18.7569 35.7385 18.8406 35.6005 18.9329ZM35.6005 13.431C35.6005 13.0833 36.2363 12.0831 36.2478 11.5702C36.4897 11.6347 40.2124 15.2284 40.2124 15.292C40.2124 15.5663 39.6804 16.417 39.6461 16.8292L34.2261 17.0188L34.9417 15.2064L38.0262 15.3983C37.7894 15.0168 35.6005 13.6055 35.6005 13.431ZM25.1776 11.2736L28.0759 11.2465C28.3444 11.2465 29.3655 14.1427 29.4999 14.5961C29.834 15.7228 30.498 16.9785 30.7459 18.043L30.8251 18.0722L33.3442 11.2498L36.086 11.2465L32.0927 21.8348L29.4966 21.8272L25.1776 11.2736ZM22.4121 16.182C22.4121 21.6347 26.5318 25.8912 31.9596 25.8912H32.6069C35.0202 25.8912 37.6926 24.2249 38.8995 22.9601C40.3172 21.4744 41.507 19.1505 41.507 16.2629V16.0202C41.507 11.1674 37.0609 6.79639 32.2023 6.79639H31.7168C26.7859 6.79639 22.4121 11.2069 22.4121 16.182Z" fill="#475367"/>
<path fill-rule="evenodd" clip-rule="evenodd" d="M29.0469 27.0241L29.2089 26.943L29.0469 26.8621V27.0241Z" fill="#344054"/>
<path fill-rule="evenodd" clip-rule="evenodd" d="M37.1379 27.1857L37.2188 26.943L37.0459 26.8635L37.1379 27.1857Z" fill="#75CE81"/>
<path fill-rule="evenodd" clip-rule="evenodd" d="M37.1382 27.1858V27.5906L37.2997 27.7524L37.7487 27.5505L37.2191 26.9431L37.1382 27.1858Z" fill="#344054"/>
<path fill-rule="evenodd" clip-rule="evenodd" d="M30.0179 28.3188H29.6134V27.9952C29.6134 27.7767 29.6521 27.7721 29.6943 27.5906C29.9641 27.5966 30.3416 27.7091 30.3416 27.9143C30.3416 28.1034 30.2363 28.3188 30.0179 28.3188ZM29.047 27.0243L28.6421 29.6974L29.3707 29.7752V29.5325C29.3707 29.2535 29.4305 29.2193 29.4516 28.9661L29.4538 28.7929L29.6943 28.8853C30.36 29.651 29.3518 29.7363 30.9458 30.0839L30.4225 28.8043C30.706 28.6544 30.9889 28.5154 30.9889 28.0761V27.8334C30.9889 27.1292 29.9274 26.9434 29.2089 26.9434L29.047 27.0243Z" fill="white"/>
<path fill-rule="evenodd" clip-rule="evenodd" d="M26.7002 27.7525L26.862 27.5907L26.8431 26.9243L26.2217 27.574L26.7002 27.7525Z" fill="#344054"/>
<path fill-rule="evenodd" clip-rule="evenodd" d="M26.7007 27.7524L26.8625 27.8333V27.5906L26.7007 27.7524Z" fill="#79CF82"/>
<path fill-rule="evenodd" clip-rule="evenodd" d="M37.2997 27.7524L37.1382 27.5906L37.1421 27.8453L37.2997 27.7524Z" fill="#5DC678"/>
<path fill-rule="evenodd" clip-rule="evenodd" d="M30.0178 28.3188C30.2363 28.3188 30.3415 28.1034 30.3415 27.9142C30.3415 27.7091 29.964 27.5966 29.6942 27.5906C29.652 27.7721 29.6133 27.7766 29.6133 27.9951V28.3188H30.0178Z" fill="#344054"/>
<path fill-rule="evenodd" clip-rule="evenodd" d="M34.6296 28.5612L34.6256 28.2256L34.4678 28.3185L34.6296 28.5612Z" fill="#344054"/>
<path fill-rule="evenodd" clip-rule="evenodd" d="M32.7687 28.9659L32.8496 28.6423L32.6777 28.4812L32.7687 28.9659Z" fill="#9BDA8E"/>
<path fill-rule="evenodd" clip-rule="evenodd" d="M29.4517 28.9658L29.6944 28.8852L29.4539 28.7927L29.4517 28.9658Z" fill="#8CD589"/>
<path fill-rule="evenodd" clip-rule="evenodd" d="M37.2187 26.9428L37.7484 27.5501L37.2995 27.752L37.1417 27.845L37.1378 27.5901V27.1855L37.0458 26.8634L37.2187 26.9428ZM36.4096 26.4574L36.6688 29.3279L37.2995 29.0465L37.2962 28.3109L38.1896 27.9137C38.2486 28.0018 38.4817 28.3183 38.5942 28.3183C38.9007 28.3183 39.1098 28.1744 39.2449 27.9909L37.0568 25.9719C36.8643 26.0738 36.3854 26.2068 36.4096 26.4574Z" fill="white"/>
<path fill-rule="evenodd" clip-rule="evenodd" d="M26.8624 27.5905V27.8333L26.7006 27.7523L26.2221 27.5737L26.8434 26.9241L26.8624 27.5905ZM24.7588 28.1569C25.0413 28.2227 25.0312 28.3187 25.3251 28.3187C25.6103 28.3187 25.651 27.995 25.8105 27.995C26.1524 27.995 26.3428 28.2353 26.7006 28.3187V28.8851C26.7006 29.152 27.0883 29.268 27.3364 29.2886L27.5906 26.2959C27.4151 26.2031 27.1243 26.0532 26.8624 26.0532C26.8289 26.0532 24.827 27.9012 24.7588 28.1569Z" fill="white"/>
<path fill-rule="evenodd" clip-rule="evenodd" d="M32.2024 29.8558L32.2833 30.0985H32.526H32.6879H32.8496L32.868 29.8535L32.7687 28.9657L32.6776 28.481L32.8496 28.6421C32.9519 28.7947 33.5244 29.6939 33.6588 29.6939C33.8773 29.6939 33.8818 29.6553 34.0488 29.608L34.4678 28.3184L34.6256 28.2254L34.6297 28.5611L34.7915 29.7748L35.456 29.7722L35.0313 26.9214L34.3339 27.0339L33.7397 28.8039C33.3664 28.554 32.784 27.2666 32.4451 27.2666L31.8486 27.2711L32.2024 29.8558Z" fill="white"/>
<path fill-rule="evenodd" clip-rule="evenodd" d="M32.6876 30.0987H32.5258H32.2831L32.2021 29.856L32.2029 30.1899L32.6876 30.0987Z" fill="#7CD083"/>
<path fill-rule="evenodd" clip-rule="evenodd" d="M29.6945 28.8851L29.4518 28.9659C29.4307 29.2191 29.3708 29.2533 29.3708 29.5323V29.775L28.6422 29.6972L29.0472 27.0241V26.8622L29.2091 26.9432C29.9276 26.9432 30.989 27.129 30.989 27.8332V28.0759C30.989 28.5152 30.7061 28.6542 30.4227 28.8041L30.9459 30.0837C29.3519 29.7361 30.3601 29.6508 29.6945 28.8851ZM34.63 28.5613L34.4682 28.3186L34.0492 29.6082C33.8822 29.6555 33.8776 29.6941 33.6591 29.6941C33.5247 29.6941 32.9522 28.7949 32.85 28.6423L32.769 28.9659L32.8684 29.8536L32.85 30.0987H32.6882L32.2035 30.1898L32.2027 29.856L31.849 27.2713L32.4454 27.2668C32.7843 27.2668 33.3668 28.5542 33.74 28.8041L34.3343 27.0341L35.0316 26.9216L35.4564 29.7724L34.7918 29.775L34.63 28.5613ZM36.4101 26.4578C36.3859 26.2071 36.8648 26.0741 37.0573 25.9723L39.2454 27.9912C39.1103 28.1747 38.9012 28.3186 38.5947 28.3186C38.4822 28.3186 38.2491 28.0022 38.1901 27.9141L37.2966 28.3113L37.3 29.0468L36.6693 29.3283L36.4101 26.4578ZM24.759 28.1569C24.8273 27.9012 26.8291 26.0532 26.8626 26.0532C27.1246 26.0532 27.4154 26.2031 27.5908 26.2959L27.3366 29.2886C27.0885 29.268 26.7008 29.152 26.7008 28.8851V28.3186C26.343 28.2353 26.1526 27.995 25.8107 27.995C25.6512 27.995 25.6105 28.3186 25.3253 28.3186C25.0314 28.3186 25.0415 28.2227 24.759 28.1569ZM38.8373 25.4868C38.8373 24.5368 39.4175 23.9495 40.3746 23.9495V24.3541C40.3746 24.6462 40.1705 24.5968 39.8892 24.5968C39.7595 24.7905 39.4846 24.9724 39.4846 25.244C39.4846 25.6037 40.0244 26.215 40.4555 26.215C41.1111 26.215 40.9972 25.4058 41.3456 25.4058H41.7501C41.7501 26.1908 41.1374 26.8622 40.3746 26.8622H40.2938C39.5793 26.8622 38.8373 26.1114 38.8373 25.4868ZM23.6911 23.5302L24.2112 24.0118L23.4467 24.9051L24.2687 25.5733L24.983 24.7423L25.5641 25.1684L23.6578 27.2956C23.4498 27.1487 23.1407 27.0331 23.1407 26.7814C23.1407 26.715 23.7642 26.1287 23.8689 25.9723L23.0672 25.2357C22.933 25.4335 22.5084 26.0532 22.2507 26.0532C22.1942 26.0532 21.8795 25.7251 21.7582 25.6421L23.6911 23.5302ZM22.2143 21.138C22.3905 21.722 22.898 22.0037 22.898 22.7358V22.8977C22.898 23.334 22.4979 23.6259 22.0889 23.6259H21.8462C21.4103 23.6259 21.0483 23.1617 20.9562 22.8167L20.0807 23.2482L19.7661 22.6133L22.2143 21.138ZM43.611 23.6259C43.611 23.6376 43.3206 24.0617 43.2874 24.1113L42.3981 23.5438L40.3754 23.4516C40.4251 23.2473 40.6156 22.8167 40.8601 22.8167H41.1837L42.0723 22.9091C41.9323 22.6303 41.5074 22.068 41.5074 21.7649V21.684C41.5074 21.4948 41.6741 21.4438 41.7501 21.1176H41.9119C41.9981 21.4874 42.398 22.1607 42.5862 22.547C42.8945 23.1803 43.611 23.2811 43.611 23.6259ZM22.4125 16.1821C22.4125 11.207 26.7863 6.7965 31.7172 6.7965H32.2027C37.0613 6.7965 41.5074 11.1675 41.5074 16.0203V16.263C41.5074 19.1507 40.3176 21.4745 38.8999 22.9602C37.693 24.225 35.0206 25.8913 32.6073 25.8913H31.96C26.5323 25.8913 22.4125 21.6348 22.4125 16.1821ZM18.2861 16.1821C18.2861 15.7314 18.8064 15.2112 19.257 15.2112H19.5806C20.0667 15.2112 20.5516 15.6961 20.5516 16.1821V16.5867C20.5516 16.998 20.0729 17.4766 19.6616 17.4766H19.1762C18.7219 17.4766 18.2861 16.9418 18.2861 16.5057L18.2861 16.1821ZM43.5301 16.344C43.5301 15.6966 44.0155 15.2112 44.6629 15.2112H44.9865C45.3189 15.2112 45.8765 15.8359 45.8765 16.263V16.4249C45.8765 16.9599 45.2789 17.5576 44.7438 17.5576H44.6629C44.1588 17.5576 43.5301 17.0445 43.5301 16.5057V16.344ZM43.0318 8.23161C43.1905 8.79911 43.7729 9.17589 43.7729 9.87108V10.2757C43.7729 10.8247 43.078 11.4084 42.5592 11.4084H42.1546C41.3661 11.4084 40.8869 10.2328 40.5469 9.72684L43.0318 8.23161ZM21.7652 10.3566V10.2757C21.5793 9.998 20.6325 9.00144 20.6325 8.73841C20.6325 8.5961 20.9353 8.24661 21.037 8.17197C21.1525 8.60433 22.8171 10.3348 22.8171 10.6802C22.8171 10.696 22.6286 10.9332 22.5744 11.1657L19.4993 10.683L19.9379 9.99974L21.7652 10.3566ZM40.8601 7.84835L40.4566 7.93992L40.3746 8.17197L40.2082 9.22304C40.018 9.12081 39.6465 8.93551 39.6465 8.65747V8.4956L39.7937 7.45422L39.6749 7.39149L39.0277 8.03876L39.0311 8.15396L38.4319 7.68764L40.2532 5.6191C40.5977 5.61494 41.5073 6.53627 41.5073 6.95836V7.12014C41.5073 7.55539 41.2176 7.76509 40.8601 7.84835ZM24.4352 7.84835C24.3726 7.84835 23.7792 8.38805 23.7071 8.4956C23.7663 8.60761 23.9498 8.92805 23.9498 9.06204C23.9498 9.24452 23.5591 9.50058 23.3835 9.54744L22.2507 6.79651C22.3501 6.64819 22.5903 6.31109 22.8171 6.31109C23.0585 6.31109 25.0051 7.39353 25.568 7.5247C25.4687 7.67302 25.2284 8.0102 25.0017 8.0102C24.6517 8.0102 24.6755 7.84835 24.4352 7.84835ZM37.5256 3.94642C37.7673 4.017 38.2144 4.08941 38.19 4.36919L37.9675 7.28376C37.7332 7.16875 37.3 7.06226 37.3 6.79652C37.3 6.49186 37.3532 6.64355 37.3809 6.3111C37.2403 6.23666 36.6316 5.90654 36.4909 5.90654C36.3695 5.90654 36.1268 6.3111 36.0054 6.3111C35.833 6.3111 35.6131 6.12775 35.3116 6.01855L37.5256 3.94642ZM27.0244 5.25927L27.1053 5.17833L26.4691 3.8352L27.0949 3.61234L28.3185 6.14953C28.16 6.23337 28.0804 6.3111 27.8335 6.3111C27.608 6.3111 26.2162 5.63092 25.9726 5.50197L26.6706 7.01491C26.3977 7.09101 26.291 7.20108 26.1344 7.20108C25.9995 7.20108 24.8668 4.9367 24.8398 4.61201C25.062 4.56022 25.1687 4.45014 25.3253 4.45014C25.3713 4.45014 26.828 5.16498 27.0244 5.25927ZM28.8854 3.96463C28.8854 3.45938 29.5128 2.83196 30.0181 2.83196H30.6653C30.9593 2.83196 30.9492 2.92789 31.2318 2.99372L30.9653 3.5925C30.7492 3.47604 30.6695 3.39829 30.4226 3.39829H30.3417C29.9504 3.39829 29.6135 3.62812 29.6135 4.04556V4.36919C29.6135 4.76059 29.8433 5.0974 30.2608 5.0974H30.5845C30.8535 5.0974 30.8214 4.95219 30.8272 4.69283H30.5845C30.398 4.69283 30.3417 4.63659 30.3417 4.45013V4.12649L31.3913 4.02348L31.5696 5.17582C31.4024 5.40681 31.1217 5.66384 30.7463 5.66384H29.8563C29.5231 5.66384 28.8854 4.97261 28.8854 4.53106V3.96463ZM33.3354 2.75102H33.5781L33.4972 3.07466L33.3038 4.8516C33.3264 4.94531 33.5043 5.0974 33.6591 5.0974H33.9018C34.3522 5.0974 34.5097 3.46615 34.549 2.99372L35.2758 3.08434C35.257 3.98496 34.9826 5.74467 34.0636 5.74467H33.9018C33.2192 5.74467 32.6072 5.42384 32.6072 4.77376V4.36919L32.8405 2.74947L33.3354 2.75102ZM16.1016 16.6676C16.1016 24.8383 23.2424 32.2024 31.3127 32.2024H32.6882C40.5663 32.2024 47.8183 24.8428 47.8183 16.9103V15.4539C47.8183 11.1061 45.1515 7.09758 42.9442 4.87416C40.6634 2.57667 36.5404 0.485596 31.9599 0.485596C23.4276 0.485596 16.1016 7.53788 16.1016 15.9394V16.6676Z" fill="#344054"/>
<path fill-rule="evenodd" clip-rule="evenodd" d="M38.1089 36.7333L37.6951 36.8138L37.7853 36.1669H38.1089C38.1828 36.2165 38.3516 36.2987 38.3516 36.4097C38.3516 36.6261 38.2349 36.649 38.1089 36.7333ZM37.7853 37.1379L37.996 37.156L38.4326 37.866L38.9181 37.7852L38.4326 36.976C38.6467 36.8327 38.8372 36.6882 38.8372 36.3288C38.8372 36.0683 38.592 35.8993 38.3516 35.8433H37.2998V37.866L37.6956 37.8657L37.7853 37.1379Z" fill="white"/>
<path fill-rule="evenodd" clip-rule="evenodd" d="M48.3037 37.947H48.7891V35.7625H48.3037V37.947Z" fill="white"/>
<path fill-rule="evenodd" clip-rule="evenodd" d="M20.5513 36.1668H21.4412V35.7561L20.0659 35.8432H21.3603L21.3601 36.0775L20.5513 36.1668Z" fill="#C4DE98"/>
<path fill-rule="evenodd" clip-rule="evenodd" d="M22.7358 36.4096H22.8976L22.7358 36.2478V36.4096Z" fill="#344054"/>
<path fill-rule="evenodd" clip-rule="evenodd" d="M14.9683 36.8144L15.5346 36.6525V36.4906V36.4098C15.5346 36.2233 15.4784 36.167 15.2919 36.167H14.9683L14.9683 36.8144Z" fill="#344054"/>
<path fill-rule="evenodd" clip-rule="evenodd" d="M38.1087 36.7335H37.7851V36.167L37.6948 36.8139L38.1087 36.7335Z" fill="white"/>
<path fill-rule="evenodd" clip-rule="evenodd" d="M40.8598 36.8143V36.1668H41.1836L40.77 36.0862L40.8598 36.8143Z" fill="white"/>
<path fill-rule="evenodd" clip-rule="evenodd" d="M38.1088 36.7334C38.2347 36.6491 38.3515 36.6262 38.3515 36.4098C38.3515 36.2988 38.1827 36.2166 38.1088 36.167H37.7852V36.7334H38.1088Z" fill="#344054"/>
<path fill-rule="evenodd" clip-rule="evenodd" d="M40.8594 36.8144H41.183C41.309 36.73 41.4257 36.7071 41.4257 36.4906V36.4098C41.4257 36.186 41.3634 36.2152 41.183 36.167H40.8594V36.8144Z" fill="#344054"/>
<path fill-rule="evenodd" clip-rule="evenodd" d="M46.3617 36.4097C46.3617 37.1128 46.9936 36.7935 47.3326 37.2997C47.2831 37.3736 47.2009 37.5424 47.0899 37.5424C46.7399 37.5424 46.7638 37.3806 46.5236 37.3806C46.4125 37.3806 46.3302 37.5495 46.2808 37.6233C46.4211 37.8149 46.6862 37.947 47.009 37.947C47.4091 37.947 47.8181 37.6256 47.8181 37.2997C47.8181 36.375 46.8643 36.9373 46.8499 36.1465L47.6464 36.2448L47.7372 35.9242C47.5782 35.8401 47.4985 35.7625 47.2517 35.7625H47.009C46.6176 35.7625 46.3617 36.0183 46.3617 36.4097Z" fill="white"/>
<path fill-rule="evenodd" clip-rule="evenodd" d="M53.4009 37.0571L53.5627 37.138V35.8433H53.8863V37.8661H53.5627L53.9672 37.947V35.7625L53.4882 35.7627L53.4009 37.0571Z" fill="#BBDA95"/>
<path fill-rule="evenodd" clip-rule="evenodd" d="M20.5513 37.0571L21.2902 37.0559L21.1985 36.6523L21.198 36.9668L20.5513 37.0571Z" fill="#78B975"/>
<path fill-rule="evenodd" clip-rule="evenodd" d="M22.8973 36.4094H22.7355L22.5737 37.0569L23.065 37.0549L22.8973 36.4094Z" fill="#344054"/>
<path fill-rule="evenodd" clip-rule="evenodd" d="M42.8823 36.8951V37.0572H43.368L43.0513 36.3308L42.8823 36.8951Z" fill="#344054"/>
<path fill-rule="evenodd" clip-rule="evenodd" d="M50.4877 37.5426C50.1921 37.5426 49.8405 37.3194 49.8405 37.0572V36.6527C49.8405 36.4007 50.0964 36.1672 50.4068 36.1672H50.5687C50.8308 36.1672 51.0541 36.5188 51.0541 36.8145V36.8954C51.0541 37.2417 50.8047 37.5426 50.4877 37.5426ZM49.355 36.6527V37.0572C49.355 37.5517 49.9171 37.9472 50.4068 37.9472C51.0137 37.9472 51.5396 37.5528 51.5396 36.9763V36.7336C51.5396 36.187 51.0642 35.7627 50.4877 35.7627H50.245C49.8337 35.7627 49.355 36.2413 49.355 36.6527Z" fill="white"/>
<path fill-rule="evenodd" clip-rule="evenodd" d="M43.3681 37.0571H42.8824V36.895L42.8022 37.1476L43.3681 37.0571Z" fill="#99C987"/>
<path fill-rule="evenodd" clip-rule="evenodd" d="M9.79004 36.8144V36.8952C9.79004 37.2415 10.0394 37.5425 10.3564 37.5425C10.7947 37.5425 11.0036 37.244 11.0036 36.8144C11.0036 36.5186 10.7804 36.167 10.5182 36.167H10.3564C9.96914 36.167 9.79004 36.4409 9.79004 36.8144Z" fill="#344054"/>
<path fill-rule="evenodd" clip-rule="evenodd" d="M48.3034 35.7623H48.7889V37.9468H48.3034V35.7623ZM24.7586 35.7623L24.8398 37.4525L25.5676 37.5422V37.9468H24.2731V35.7623H24.7586ZM30.2605 37.4614H30.5032C30.6896 37.4614 30.7459 37.5176 30.7459 37.7041C30.7459 38.0636 30.5555 38.208 30.3413 38.3514C30.34 38.3498 30.2605 38.2004 30.2605 38.1896C30.2605 38.08 30.3479 38.1446 30.4222 37.8659H30.2605V37.4614ZM42.4778 37.8659L41.9802 37.9427L42.0733 37.785L42.8015 35.7623L43.3561 35.7668L44.0961 37.7041L44.1762 37.9571L43.6915 37.8659L43.5297 37.4614L42.6518 37.4654L42.4778 37.8659ZM22.0076 37.9468H21.7648C21.7971 37.5593 22.4464 35.7623 22.7357 35.7623H22.8976C23.1654 35.7623 23.7865 37.5949 23.8685 37.9468L23.3998 37.9399L23.2212 37.4614H22.574C22.1851 37.4614 22.3964 37.9468 22.0076 37.9468ZM11.9747 37.0568V35.7623H12.5411V37.2186C12.5411 37.437 12.7565 37.5422 12.9457 37.5422C13.1343 37.5422 13.3501 37.3263 13.3501 37.1378V35.7623H13.8356V37.1378C13.8356 37.6439 13.387 37.9468 12.8647 37.9468C12.392 37.9468 11.9747 37.5296 11.9747 37.0568ZM49.3551 36.6523C49.3551 36.2409 49.8338 35.7623 50.2452 35.7623H50.4879C51.0643 35.7623 51.5397 36.1866 51.5397 36.7332V36.9759C51.5397 37.5524 51.0138 37.9468 50.4069 37.9468C49.9172 37.9468 49.3551 37.5513 49.3551 37.0568V36.6523ZM35.7623 37.9468C35.24 37.9468 34.7913 37.6439 34.7913 37.1378V35.7623H35.2768V36.9759C35.2768 37.2243 35.3517 37.4614 35.6004 37.4614H35.8431C36.0919 37.4614 36.1667 37.2243 36.1667 36.9759V35.7623H36.6522V36.895C36.6522 37.4801 36.3287 37.9468 35.7623 37.9468ZM9.30453 36.895V36.6523C9.30453 36.1393 9.82005 35.7623 10.3564 35.7623H10.4373C11.0705 35.7623 11.4891 36.1809 11.4891 36.8141V36.9759C11.4891 37.5088 10.9799 37.9468 10.4373 37.9468C9.75954 37.9468 9.30453 37.5811 9.30453 36.895ZM32.0403 36.8141C32.0403 36.1734 32.5148 35.7623 33.173 35.7623H33.3349C33.8209 35.7623 34.3058 36.2471 34.3058 36.7332V36.895C34.3058 37.3911 33.7501 37.9468 33.254 37.9468H33.0921C32.5514 37.9468 32.0403 37.3715 32.0403 36.8141ZM29.6939 37.8659L29.1276 37.9468V37.0568H28.3184V37.9468H27.833V35.7623H28.3184V36.6523H29.2085V35.7623H29.6939V36.895V37.8659ZM18.0429 37.8659L17.4719 37.9468L17.5574 35.7623H18.0429V36.6523H18.9328V35.7623H19.4183V37.8659L18.852 37.9468V37.0568H18.0429V37.8659ZM40.8595 37.2186L40.859 37.9566L40.2932 37.8659V35.7623H41.1832C41.5745 35.7623 41.9114 35.992 41.9114 36.4096V36.6523C41.9114 37.0629 41.3399 37.2186 40.8595 37.2186ZM52.5106 37.8659L52.0206 37.9468L52.106 35.7623L52.3931 35.7269L53.4007 37.0568L53.4881 35.7624L53.967 35.7623V37.9468L53.5624 37.8659L52.5106 36.6523V37.8659ZM15.6155 36.9759L16.1819 37.9468H15.8582C15.3822 37.9468 15.5369 37.185 14.9683 37.1378V37.9468H14.4828V35.7623H15.0492C15.594 35.7623 16.0201 35.86 16.0201 36.4096C16.0201 36.7533 15.8893 36.9028 15.6155 36.9759ZM38.9177 37.785L38.998 37.9566L38.4322 37.8659L37.9956 37.1559L37.785 37.1378V37.9468H37.2186L37.2187 35.7551L38.3513 35.8431C38.5917 35.8992 38.8368 36.0682 38.8368 36.3286C38.8368 36.6881 38.6464 36.8325 38.4322 36.9759L38.9177 37.785ZM26.7812 36.1668V37.9468H26.2147V36.1668H25.6484V35.7623H27.3475V36.1668H26.7812ZM21.1984 36.6523L21.29 37.0558L20.5511 37.0568V37.5422H21.4411V37.9468H20.0656V35.8431L21.441 35.756L21.4411 36.1668H20.5511V36.6523H21.1984ZM46.3615 36.4096C46.3615 36.0182 46.6173 35.7623 47.0087 35.7623H47.2514C47.4983 35.7623 47.578 35.8399 47.7369 35.9241L47.6461 36.2446L46.8497 36.1463C46.8641 36.9372 47.8179 36.3748 47.8179 37.2995C47.8179 37.6254 47.4088 37.9468 47.0087 37.9468C46.686 37.9468 46.4209 37.8147 46.2805 37.6232C46.33 37.5493 46.4123 37.3805 46.5233 37.3805C46.7636 37.3805 46.7397 37.5422 47.0897 37.5422C47.2007 37.5422 47.2829 37.3734 47.3324 37.2995C46.9933 36.7933 46.3615 37.1126 46.3615 36.4096ZM45.7851 36.2446C45.542 36.2267 45.5077 36.1668 45.2287 36.1668C44.9841 36.1668 45.005 36.262 44.986 36.4904C45.26 36.5543 45.876 36.7403 45.876 37.0568V37.4614C45.876 37.7606 45.462 37.9468 45.1479 37.9468C44.825 37.9468 44.5599 37.8147 44.4196 37.6232C44.4691 37.5493 44.5513 37.3805 44.6624 37.3805C44.8839 37.3805 44.9263 37.5422 45.1479 37.5422C45.3642 37.5422 45.3871 37.4255 45.4715 37.2995C45.2183 36.9216 44.5005 36.961 44.5005 36.4904V36.4096C44.5005 36.0182 44.7564 35.7623 45.1479 35.7623H45.3906C45.6374 35.7623 45.717 35.8399 45.8859 35.9273L45.7851 36.2446ZM8.41453 37.0568L8.41395 37.9566L7.8481 37.8659L7.83997 37.0616L7.11999 35.7623H7.44363C7.88179 35.7623 7.82138 36.4764 8.17173 36.7332C8.2364 36.4556 8.43602 35.7623 8.73816 35.7623L9.10304 35.7854L8.41453 37.0568ZM16.5055 21.8457C13.6371 22.514 8.61289 25.2546 6.53138 26.84C4.11133 28.6834 0.728027 31.7804 0.728027 35.9241C0.728027 41.3724 6.60921 44.6695 10.6553 46.3052C15.3227 48.1924 21.4617 49.1934 27.9948 49.1934C36.7129 49.1934 43.842 47.6029 50.0948 45.1593C54.8782 43.29 63.1907 38.4631 63.1907 32.2022C63.1907 28.0949 60.2341 25.5938 57.7212 23.917C56.3099 22.9753 54.8058 22.3093 53.1332 21.6276C52.0945 21.2042 49.0691 20.1631 47.8988 20.0657C46.9343 24.2052 45.211 26.2005 42.6604 28.7439C40.8482 30.551 36.3958 32.6876 32.7685 32.6876H31.0694C27.5652 32.6876 23.8114 30.7968 21.831 29.2231C20.7851 28.3918 19.4465 27.0743 18.7057 25.9565C18.2649 25.2914 17.8772 24.7515 17.5037 24.003C17.261 23.5164 16.7201 22.1545 16.5055 21.8457Z" fill="#344054"/>
<path fill-rule="evenodd" clip-rule="evenodd" d="M32.6069 36.5713V36.9759C32.6069 37.3199 32.8584 37.5422 33.1733 37.5422C33.4022 37.5422 33.7397 37.2854 33.7397 37.0568V36.7332C33.7397 36.3554 33.551 36.1667 33.1733 36.1667C32.9007 36.1667 32.6069 36.3097 32.6069 36.5713Z" fill="#344054"/>
<path fill-rule="evenodd" clip-rule="evenodd" d="M50.4881 37.5425C50.805 37.5425 51.0544 37.2415 51.0544 36.8952V36.8144C51.0544 36.5186 50.8312 36.167 50.569 36.167H50.4072C50.0968 36.167 49.8408 36.4005 49.8408 36.6525V37.0571C49.8408 37.3192 50.1924 37.5425 50.4881 37.5425Z" fill="#344054"/>
<path fill-rule="evenodd" clip-rule="evenodd" d="M25.5678 37.5425L24.8402 37.4527L24.7588 35.7625V37.5425H25.5678Z" fill="#5AAB6D"/>
<path fill-rule="evenodd" clip-rule="evenodd" d="M52.5109 37.8661V36.6524L53.5629 37.8661H53.8865V35.8434H53.5629V37.138L53.4011 37.0571L52.3934 35.7271L52.1064 35.7625V37.8661H52.5109Z" fill="white"/>
<path fill-rule="evenodd" clip-rule="evenodd" d="M14.9684 36.1669H15.292C15.4785 36.1669 15.5347 36.2233 15.5347 36.4097V36.4906V36.6524L14.9684 36.8143V36.1669ZM15.6157 36.9761C15.8895 36.903 16.0202 36.7535 16.0202 36.4097C16.0202 35.8601 15.5942 35.7625 15.0493 35.7625H14.4829V37.947H14.9684V37.1379C15.5371 37.1852 15.3824 37.947 15.8584 37.947H16.182L15.6157 36.9761Z" fill="white"/>
<path fill-rule="evenodd" clip-rule="evenodd" d="M18.0431 37.8661H17.5575V35.7625L17.4722 37.947L18.0431 37.8661Z" fill="#344054"/>
<path fill-rule="evenodd" clip-rule="evenodd" d="M19.4184 37.8662H18.9329V36.9762C18.5936 36.9762 18.2544 36.923 18.043 37.0572H18.8521V37.9471L19.4184 37.8662Z" fill="#344054"/>
<path fill-rule="evenodd" clip-rule="evenodd" d="M22.736 36.4097V36.2479L22.8979 36.4097L23.0657 37.0552L22.5743 37.057L22.736 36.4097ZM22.0079 37.947C22.3967 37.947 22.1854 37.4616 22.5743 37.4616H23.2215L23.4002 37.9401L23.8688 37.947C23.7868 37.5951 23.1657 35.7625 22.8979 35.7625H22.736C22.4467 35.7625 21.7974 37.5594 21.7651 37.947L22.0079 37.947Z" fill="white"/>
<path fill-rule="evenodd" clip-rule="evenodd" d="M25.5678 37.5425H24.7588V35.7625H24.2734V37.947H25.5678V37.5425Z" fill="white"/>
<path fill-rule="evenodd" clip-rule="evenodd" d="M26.7811 36.167L26.7002 37.8661H26.3012L26.2148 36.167V37.947H26.7811V36.167Z" fill="white"/>
<path fill-rule="evenodd" clip-rule="evenodd" d="M35.7625 37.947C36.3289 37.947 36.6525 37.4802 36.6525 36.8951V35.7625H36.167V36.9761C36.167 37.2245 36.0921 37.4615 35.8433 37.4615H35.6006C35.3519 37.4615 35.277 37.2245 35.277 36.9761V35.7625H34.7915V37.1379C34.7915 37.644 35.2402 37.947 35.7625 37.947Z" fill="white"/>
<path fill-rule="evenodd" clip-rule="evenodd" d="M40.8598 36.8145L40.7701 36.0866L41.1834 36.1672C41.3638 36.2154 41.4261 36.1861 41.4261 36.41V36.4908C41.4261 36.7073 41.3094 36.7302 41.1834 36.8145H40.8598ZM40.2935 37.8663L40.7696 37.8659L40.8598 37.219C41.3402 37.219 41.9116 37.0633 41.9116 36.6527V36.41C41.9116 35.9924 41.5747 35.7627 41.1834 35.7627H40.2935V37.8663Z" fill="white"/>
<path fill-rule="evenodd" clip-rule="evenodd" d="M45.8857 35.9274C45.7168 35.8401 45.6372 35.7625 45.3903 35.7625H45.1476C44.7562 35.7625 44.5003 36.0183 44.5003 36.4097V36.4906C44.5003 36.9612 45.2181 36.9217 45.4713 37.2997C45.3869 37.4256 45.364 37.5424 45.1476 37.5424C44.926 37.5424 44.8836 37.3806 44.6621 37.3806C44.5511 37.3806 44.4689 37.5495 44.4194 37.6233C44.5597 37.8149 44.8248 37.947 45.1476 37.947C45.4618 37.947 45.8757 37.7608 45.8757 37.4616V37.057C45.8757 36.7404 45.2597 36.5544 44.9858 36.4906C45.0048 36.2622 44.9839 36.1669 45.2285 36.1669C45.5075 36.1669 45.5417 36.2268 45.7849 36.2448L45.8857 35.9274Z" fill="white"/>
<path fill-rule="evenodd" clip-rule="evenodd" d="M52.5108 37.8661H52.1063V35.7625L52.021 37.947L52.5108 37.8661Z" fill="white"/>
<path fill-rule="evenodd" clip-rule="evenodd" d="M7.84822 37.866H8.33372C8.33372 37.5319 8.28076 37.2679 8.41465 37.057L9.10316 35.7856L8.73829 35.7625C8.43614 35.7625 8.23652 36.4558 8.17186 36.7334C7.8215 36.4766 7.88191 35.7625 7.44375 35.7625H7.12012L7.84009 37.0617L7.84822 37.866Z" fill="white"/>
<path fill-rule="evenodd" clip-rule="evenodd" d="M9.79019 36.8145C9.79019 36.441 9.96929 36.1672 10.3565 36.1672H10.5184C10.7806 36.1672 11.0038 36.5188 11.0038 36.8145C11.0038 37.2442 10.7949 37.5426 10.3565 37.5426C10.0396 37.5426 9.79019 37.2417 9.79019 36.8954V36.8145ZM9.30469 36.8954C9.30469 37.5815 9.75969 37.9472 10.4375 37.9472C10.9801 37.9472 11.4893 37.5092 11.4893 36.9763V36.8145C11.4893 36.1813 11.0707 35.7627 10.4375 35.7627H10.3565C9.8202 35.7627 9.30469 36.1397 9.30469 36.6527V36.8954Z" fill="white"/>
<path fill-rule="evenodd" clip-rule="evenodd" d="M11.9746 37.0572C11.9746 37.53 12.392 37.9472 12.8647 37.9472C13.387 37.9472 13.8356 37.6443 13.8356 37.1382V35.7627H13.3501V37.1382C13.3501 37.3267 13.1343 37.5426 12.9456 37.5426C12.7564 37.5426 12.541 37.4374 12.541 37.219V35.7627H11.9746V37.0572Z" fill="white"/>
<path fill-rule="evenodd" clip-rule="evenodd" d="M18.0431 37.866V37.057C18.2546 36.9228 18.5938 36.9761 18.9331 36.9761V37.866H19.4186V35.7625H18.9331V36.6524H18.0431V35.7625H17.5576V37.866H18.0431Z" fill="white"/>
<path fill-rule="evenodd" clip-rule="evenodd" d="M20.5513 37.057L21.198 36.9668L21.1985 36.6523H20.5513V36.1669L21.3601 36.0776L21.3603 35.8433H20.0659V37.9469H21.4412V37.5424H20.5513V37.057Z" fill="white"/>
<path fill-rule="evenodd" clip-rule="evenodd" d="M26.2147 36.1669L26.3011 37.8661H26.7001L26.781 36.1669H27.3473V35.7625H25.6484V36.1669H26.2147Z" fill="white"/>
<path fill-rule="evenodd" clip-rule="evenodd" d="M29.6943 37.8662H29.2089V36.9762C28.8695 36.9762 28.5303 36.923 28.3188 37.0572H29.128V37.9471L29.6943 37.8662Z" fill="#56A967"/>
<path fill-rule="evenodd" clip-rule="evenodd" d="M28.3184 37.0572C28.5298 36.9231 28.8691 36.9763 29.2085 36.9763V37.8663H29.6939V36.8954V35.7627H29.2085V36.6527H28.3184V35.7627H27.833V37.9472H28.3184V37.0572Z" fill="white"/>
<path fill-rule="evenodd" clip-rule="evenodd" d="M30.7461 37.7044C30.7461 37.5179 30.6899 37.4617 30.5034 37.4617H30.2607V37.8661H30.4225C30.3482 38.1448 30.2607 38.0803 30.2607 38.1899C30.2607 38.2007 30.3403 38.3501 30.3416 38.3516C30.5558 38.2083 30.7461 38.0638 30.7461 37.7044Z" fill="white"/>
<path fill-rule="evenodd" clip-rule="evenodd" d="M32.6065 36.5715C32.6065 36.3099 32.9002 36.1669 33.1728 36.1669C33.5506 36.1669 33.7392 36.3556 33.7392 36.7334V37.057C33.7392 37.2856 33.4018 37.5424 33.1728 37.5424C32.8579 37.5424 32.6065 37.3201 32.6065 36.9761V36.5715ZM32.04 36.8143C32.04 37.3716 32.5512 37.947 33.0919 37.947H33.2537C33.7499 37.947 34.3056 37.3913 34.3056 36.8951V36.7334C34.3056 36.2473 33.8207 35.7625 33.3347 35.7625H33.1728C32.5146 35.7625 32.04 36.1736 32.04 36.8143Z" fill="white"/>
<path fill-rule="evenodd" clip-rule="evenodd" d="M42.8824 36.8951L43.0513 36.3307L43.3679 37.057L42.802 37.1476L42.8824 36.8951ZM42.0732 37.7852L42.4778 37.866L42.6518 37.4655L43.5296 37.4616L43.6915 37.866H44.0961V37.7043L43.3561 35.767L42.8015 35.7625L42.0732 37.7852Z" fill="white"/>
<path fill-rule="evenodd" clip-rule="evenodd" d="M7.84814 37.8659L8.41399 37.9566L8.41457 37.0569C8.28069 37.2678 8.33364 37.5318 8.33364 37.8659H7.84814Z" fill="#69B374"/>
<path fill-rule="evenodd" clip-rule="evenodd" d="M37.7851 37.1378L37.6953 37.8657L37.2994 37.8659V35.8432H38.3514L37.2188 35.7551V37.9468H37.7851V37.1378Z" fill="#AED490"/>
<path fill-rule="evenodd" clip-rule="evenodd" d="M38.4326 37.8661L38.9984 37.9568L38.9183 37.7852L38.4326 37.8661Z" fill="white"/>
<path fill-rule="evenodd" clip-rule="evenodd" d="M40.2935 37.8659L40.8593 37.9567L40.8598 37.2188L40.7695 37.8655L40.2935 37.8659Z" fill="#344054"/>
<path fill-rule="evenodd" clip-rule="evenodd" d="M42.4777 37.8661L42.0732 37.7852L41.98 37.9428L42.4777 37.8661Z" fill="#85C080"/>
<path fill-rule="evenodd" clip-rule="evenodd" d="M43.6919 37.8659L44.1766 37.9571L44.0964 37.7041V37.8659H43.6919Z" fill="white"/>
</svg>
