<svg width="32" height="33" viewBox="0 0 32 33" fill="none" xmlns="http://www.w3.org/2000/svg">
<path d="M28.9562 24.8411L24.8075 5.11612C24.7538 4.85818 24.6497 4.61337 24.5012 4.39578C24.3526 4.17818 24.1626 3.99208 23.9419 3.84816C23.7212 3.70425 23.4742 3.60536 23.2152 3.55717C22.9562 3.50899 22.6902 3.51245 22.4325 3.56737L16.5812 4.82487C16.0637 4.9382 15.6118 5.25129 15.3239 5.69605C15.036 6.14082 14.9353 6.68127 15.0437 7.19987L19.1925 26.9249C19.285 27.3749 19.5295 27.7794 19.8851 28.0703C20.2407 28.3612 20.6856 28.5209 21.145 28.5224C21.287 28.5222 21.4286 28.5071 21.5675 28.4774L27.4188 27.2199C27.9369 27.1063 28.3893 26.7926 28.6772 26.347C28.9652 25.9015 29.0655 25.3603 28.9562 24.8411ZM17 6.79112C17 6.78362 17 6.77987 17 6.77987L22.85 5.52987L23.2663 7.51362L17.4163 8.77237L17 6.79112ZM18.25 12.7136L17.8312 10.7261L23.6838 9.46862L24.1012 11.4561L18.25 12.7136ZM27 25.2649L21.15 26.5149L20.7337 24.5311L26.5837 23.2724L27 25.2536C27 25.2611 27 25.2649 27 25.2649ZM13 4.52237H7C6.46957 4.52237 5.96086 4.73309 5.58579 5.10816C5.21071 5.48323 5 5.99194 5 6.52237V26.5224C5 27.0528 5.21071 27.5615 5.58579 27.9366C5.96086 28.3117 6.46957 28.5224 7 28.5224H13C13.5304 28.5224 14.0391 28.3117 14.4142 27.9366C14.7893 27.5615 15 27.0528 15 26.5224V6.52237C15 5.99194 14.7893 5.48323 14.4142 5.10816C14.0391 4.73309 13.5304 4.52237 13 4.52237ZM7 6.52237H13V8.52237H7V6.52237ZM13 26.5224H7V24.5224H13V26.5224Z" fill="#344054"/>
</svg>
