<svg width="30" height="33" viewBox="0 0 30 33" fill="none" xmlns="http://www.w3.org/2000/svg">
<mask id="mask0_351_3054" style="mask-type:luminance" maskUnits="userSpaceOnUse" x="0" y="0" width="30" height="33">
<path d="M0 0H29.5862V33H0V0Z" fill="white"/>
</mask>
<g mask="url(#mask0_351_3054)">
<path d="M26.8105 14.6035V16.8445C26.8105 17.8741 25.9778 18.7121 24.9534 18.7121C23.9291 18.7121 23.0958 17.8741 23.0958 16.8445V15.2113C23.0952 15.1931 23.0852 15.1773 23.0852 15.1591C23.0852 10.6297 19.5029 6.94543 15.0989 6.94543C10.7964 6.94543 7.28727 10.4645 7.12728 14.8497V17.2184C7.12728 18.4537 8.12762 19.4593 9.35651 19.4593C9.76672 19.4593 10.0996 19.7939 10.0996 20.2065C10.0996 20.6191 9.76672 20.9531 9.35651 20.9531C7.79125 20.9531 6.45571 19.9715 5.90953 18.5908C5.70911 18.6653 5.4958 18.7121 5.27019 18.7121C4.24582 18.7121 3.41309 17.8741 3.41309 16.8445V14.6035C3.41309 13.5733 4.24582 12.7359 5.27019 12.7359C5.36512 12.7359 5.45654 12.75 5.54737 12.764C6.60162 8.36008 10.4782 5.07837 15.0989 5.07837C19.7209 5.07837 23.598 8.36067 24.6511 12.7664C24.7501 12.75 24.8497 12.7359 24.9534 12.7359C25.9778 12.7359 26.8105 13.5739 26.8105 14.6035ZM21.2234 15.1591C21.2234 11.7578 18.4814 9.00061 15.0989 9.00061C11.7164 9.00061 8.97442 11.7578 8.97442 15.1591C8.97442 18.5604 11.7164 21.3176 15.0989 21.3176C18.4814 21.3176 21.2234 18.5604 21.2234 15.1591ZM21.1959 23.1852H19.0153C18.5301 23.1852 18.0753 23.4237 17.797 23.824L16.2727 26.0181C15.6767 26.876 14.4103 26.8678 13.8255 26.0016L12.3663 23.8398C12.0897 23.4302 11.6291 23.1852 11.1368 23.1852H8.99552C6.23771 23.1852 4.00204 25.4332 4.00204 28.2063V30.4349C4.00204 30.8475 4.3349 31.1815 4.74511 31.1815H25.4463C25.8565 31.1815 26.1894 30.8469 26.1894 30.4349V28.2063C26.1888 25.4332 23.9537 23.1852 21.1959 23.1852Z" fill="#344054"/>
</g>
</svg>
