<svg width="32" height="32" viewBox="0 0 32 32" fill="none" xmlns="http://www.w3.org/2000/svg">
<path d="M27.9775 14.2726L7.00005 2.2701C6.69423 2.09177 6.34656 1.9978 5.99255 1.9978C5.63853 1.9978 5.29086 2.09177 4.98505 2.2701C4.68375 2.44287 4.43376 2.69259 4.26069 2.99372C4.08762 3.29484 3.99767 3.63654 4.00005 3.98385V28.0164C3.99905 28.3633 4.09018 28.7043 4.26411 29.0045C4.43805 29.3047 4.68856 29.5534 4.99005 29.7251C5.29586 29.9034 5.64353 29.9974 5.99755 29.9974C6.35156 29.9974 6.69923 29.9034 7.00505 29.7251L27.9775 17.7251C28.2873 17.5553 28.5457 17.3054 28.7257 17.0015C28.9057 16.6975 29.0006 16.3508 29.0006 15.9976C29.0006 15.6444 28.9057 15.2977 28.7257 14.9937C28.5457 14.6898 28.2873 14.4399 27.9775 14.2701V14.2726ZM18 17.4139L20.365 19.7789L9.30255 26.1114L18 17.4139ZM9.30005 5.8876L20.3663 12.2214L18 14.5864L9.30005 5.8876ZM22.1638 18.7501L19.4138 16.0001L22.1638 13.2501L26.9675 16.0001L22.1638 18.7501Z" fill="#344054"/>
</svg>
