<svg width="32" height="33" viewBox="0 0 32 33" fill="none" xmlns="http://www.w3.org/2000/svg">
<mask id="mask0_351_3059" style="mask-type:luminance" maskUnits="userSpaceOnUse" x="17" y="0" width="2" height="4">
<path d="M17.5657 0H18.7847V3.97619H17.5657V0Z" fill="white"/>
</mask>
<g mask="url(#mask0_351_3059)">
<path d="M18.124 3.89864C18.4287 3.89864 18.6764 3.6517 18.6764 3.34626V0.553742C18.6764 0.246939 18.4287 0 18.124 0C17.8179 0 17.5709 0.246939 17.5709 0.553742V3.34626C17.5709 3.6517 17.8179 3.89864 18.124 3.89864Z" fill="#344054"/>
</g>
<path d="M10.6409 5.19936C10.7491 5.34697 10.9164 5.42589 11.0872 5.42589C11.2001 5.42589 11.3151 5.39051 11.4137 5.3184C11.66 5.13813 11.713 4.79187 11.5321 4.54629L9.87903 2.29391C9.69876 2.04833 9.35318 1.99391 9.10624 2.17486C8.85998 2.35514 8.8076 2.7014 8.98787 2.94765L10.6409 5.19936Z" fill="#344054"/>
<path d="M24.7165 4.54634C24.5356 4.79192 24.5879 5.13818 24.8349 5.31845C24.9335 5.39056 25.0478 5.42594 25.1614 5.42594C25.3315 5.42594 25.4995 5.34771 25.6077 5.19941L27.2607 2.9477C27.4417 2.70145 27.3886 2.35519 27.1424 2.17491C26.8947 1.99328 26.5492 2.04838 26.3696 2.29396" fill="#344054"/>
<path d="M11.0319 10.2946C11.0346 10.2966 11.0374 10.2987 11.0408 10.3021L14.104 12.8878C14.1761 12.9483 14.234 13.0211 14.2979 13.0898C14.3435 13.1102 14.3897 13.1286 14.4292 13.1619C14.6564 13.3531 14.9476 13.4422 15.2455 13.4198C15.5442 13.3939 15.8149 13.2551 16.0061 13.0286C16.2129 12.8198 16.3027 12.5749 16.2918 12.3041C16.2782 11.9796 16.1217 11.6606 15.8734 11.4517L14.321 10.1408C14.319 10.1402 14.3183 10.1402 14.3176 10.1388L12.0802 8.24832C11.6088 7.85036 10.9013 7.9109 10.502 8.38369C10.104 8.85444 10.1646 9.56261 10.636 9.96125L11.0319 10.2946Z" fill="#344054"/>
<mask id="mask1_351_3059" style="mask-type:luminance" maskUnits="userSpaceOnUse" x="0" y="7" width="27" height="26">
<path d="M0 7.28491H26.7959V32.5223H0V7.28491Z" fill="white"/>
</mask>
<g mask="url(#mask1_351_3059)">
<path d="M16.8387 10.8673C17.1713 11.2544 17.3747 11.7414 17.3965 12.2571C17.421 12.8414 17.2162 13.3802 16.8196 13.7748C16.4699 14.1931 15.9325 14.4707 15.3387 14.521C15.2747 14.5258 15.2094 14.5292 15.1461 14.5292C15.0665 14.5292 14.9883 14.517 14.9094 14.5088C14.9101 14.5183 14.9135 14.5272 14.9142 14.5367C14.9393 15.1197 14.7359 15.6598 14.3407 16.0564C13.925 16.5489 13.3182 16.8047 12.7012 16.8108C12.7938 17.4224 12.6427 18.0687 12.2142 18.5782C11.904 18.9442 11.4992 19.1782 11.0665 19.2884C11.2046 19.551 11.2924 19.8401 11.3176 20.1449C11.3672 20.7387 11.1842 21.3142 10.8012 21.7659C10.421 22.2176 9.88423 22.4945 9.29103 22.5442C9.2264 22.5496 9.16178 22.553 9.09851 22.553C8.5747 22.553 8.07334 22.37 7.66858 22.0306L5.94749 20.5802L0.0427246 25.8462L6.12776 32.5224L14.225 24.7564C14.3543 24.6435 14.5298 24.5966 14.6951 24.6326C15.8291 24.8585 16.7842 25.0142 17.6822 24.951C17.691 24.9503 17.6992 24.9489 17.7087 24.9489C18.7278 24.8727 19.672 24.5129 20.7121 23.6353L26.3087 18.5639C26.3087 18.5639 27.0563 17.8789 26.5182 17.2714C26.2305 16.9455 25.8802 16.7088 25.4938 16.5857C26.0822 15.7768 26.0693 14.6387 25.3958 13.8421C25.1074 13.4993 24.7291 13.2564 24.306 13.1374C24.7754 12.3462 24.7189 11.3088 24.0931 10.5646C23.7475 10.1551 23.2747 9.89043 22.7489 9.80539C22.9829 9.09451 22.921 8.21968 22.3393 7.6707C21.7516 7.11695 20.8155 7.67818 20.8155 7.67818L16.8387 10.8673Z" fill="#344054"/>
</g>
<mask id="mask2_351_3059" style="mask-type:luminance" maskUnits="userSpaceOnUse" x="18" y="20" width="15" height="13">
<path d="M18.9601 20.3462H32.0009V32.5224H18.9601V20.3462Z" fill="white"/>
</mask>
<g mask="url(#mask2_351_3059)">
<path d="M21.4395 24.4679C20.5918 25.1842 19.7864 25.6128 18.981 25.8427L26.5925 32.5012L31.9585 25.8509L25.8891 20.4373L21.4395 24.4679Z" fill="#344054"/>
</g>
<path d="M14.5741 7.61439C14.3061 8.01576 14.234 8.61984 14.6265 8.95045C14.6272 8.95181 14.6278 8.95317 14.6285 8.95385L16.0068 10.1171L18.285 8.29059L16.1768 7.30691C15.2381 6.82052 14.7435 7.35997 14.5741 7.61439Z" fill="#344054"/>
<path d="M7.57959 16.1326L8.61292 17.004H8.61361C8.61633 17.0061 8.61701 17.0101 8.61905 17.0122L9.79116 17.9999C10.2639 18.3959 10.9701 18.3346 11.368 17.8646C11.7646 17.3938 11.7048 16.6857 11.2327 16.287L9.02857 14.4244C9.02721 14.4231 9.02517 14.4231 9.02245 14.4224L9.02041 14.419C8.7932 14.2285 8.50204 14.1394 8.20612 14.1632C7.90748 14.1877 7.63673 14.3271 7.4449 14.5544C7.04762 15.0258 7.10816 15.7333 7.57959 16.1326Z" fill="#344054"/>
<path d="M8.74799 11.2783C8.55683 11.5055 8.465 11.7953 8.49017 12.096C8.51534 12.3946 8.65479 12.6647 8.88132 12.8552L9.72418 13.5668C9.7269 13.5688 9.72894 13.5688 9.7303 13.5708L11.9466 15.4429C12.4167 15.8389 13.1269 15.7797 13.5262 15.3083C13.7317 15.1008 13.8208 14.8545 13.8092 14.5838C13.7949 14.2593 13.6392 13.9416 13.3909 13.7327L10.3283 11.1463H10.3276L10.3228 11.1423C9.84935 10.747 9.14595 10.8082 8.74799 11.2783Z" fill="#344054"/>
<path d="M6.45689 19.5627L8.3807 21.1845C8.60859 21.3756 8.89431 21.4661 9.19703 21.4423C9.49567 21.4171 9.76505 21.2776 9.95621 21.0525C10.1487 20.8232 10.2406 20.5348 10.2154 20.2355C10.1902 19.9362 10.0514 19.6661 9.82492 19.4742L9.08002 18.8477C9.07934 18.8464 9.07798 18.8464 9.0773 18.8457C9.07662 18.8443 9.07662 18.8443 9.07594 18.8436L7.88478 17.8396C7.41471 17.4552 6.71675 17.5178 6.3222 17.9844C5.92492 18.4552 5.98478 19.1627 6.45689 19.5627Z" fill="#344054"/>
</svg>
