<svg width="32" height="32" viewBox="0 0 32 32" fill="none" xmlns="http://www.w3.org/2000/svg">
<mask id="mask0_349_2696" style="mask-type:luminance" maskUnits="userSpaceOnUse" x="0" y="0" width="32" height="32">
<path d="M0 0H32V32H0V0Z" fill="white"/>
</mask>
<g mask="url(#mask0_349_2696)">
<path fill-rule="evenodd" clip-rule="evenodd" d="M4.41847 4.32422C3.89066 4.32422 3.46094 4.75311 3.46094 5.28175V24.4323C3.46094 24.961 3.89066 25.3899 4.41847 25.3899H29.3142C29.8429 25.3899 30.2717 24.961 30.2717 24.4323V5.28175C30.2717 4.75311 29.8429 4.32422 29.3142 4.32422H4.41847ZM14.9513 9.11186H18.7814C19.31 9.11186 19.7389 9.54076 19.7389 10.0694V11.9844H21.654C22.1826 11.9844 22.6115 12.4133 22.6115 12.942V16.7721C22.6115 17.3007 22.1826 17.7296 21.654 17.7296H19.7389V19.6447C19.7389 20.1733 19.31 20.6022 18.7814 20.6022H14.9513C14.4235 20.6022 13.9938 20.1733 13.9938 19.6447V17.7296H12.0787C11.5509 17.7296 11.1212 17.3007 11.1212 16.7721V12.942C11.1212 12.4133 11.5509 11.9844 12.0787 11.9844H13.9938V10.0694C13.9938 9.54076 14.4235 9.11186 14.9513 9.11186ZM15.9088 11.0269V12.942C15.9088 13.4706 15.4799 13.8995 14.9513 13.8995H13.0362V15.8146H14.9513C15.4799 15.8146 15.9088 16.2435 15.9088 16.7721V18.6872H17.8239V16.7721C17.8239 16.2435 18.2536 15.8146 18.7814 15.8146H20.6965V13.8995H18.7814C18.2536 13.8995 17.8239 13.4706 17.8239 12.942V11.0269H15.9088ZM14.9513 26.3474C14.4235 26.3474 13.9938 26.7763 13.9938 27.3049V29.22H12.0787C11.5509 29.22 11.1212 29.6489 11.1212 30.1775C11.1212 30.7061 11.5509 31.135 12.0787 31.135H21.654C22.1826 31.135 22.6115 30.7061 22.6115 30.1775C22.6115 29.6489 22.1826 29.22 21.654 29.22H19.7389V27.3049C19.7389 26.7763 19.31 26.3474 18.7814 26.3474C18.2536 26.3474 17.8239 26.7763 17.8239 27.3049V29.22H15.9088V27.3049C15.9088 26.7763 15.4799 26.3474 14.9513 26.3474Z" fill="#344054"/>
</g>
</svg>
