<svg width="679" height="293" viewBox="0 0 679 293" fill="none" xmlns="http://www.w3.org/2000/svg">
<circle cx="348.735" cy="145.033" r="128.74" fill="#E1FCEA"/>
<g clip-path="url(#clip0_351_2701)">
<path d="M513.378 188.336C519.303 193.154 522.173 201.704 519.836 209.023C524.08 208.367 528.673 208.326 532.384 210.499C536.177 212.714 538.473 216.917 539.354 221.222C540.236 225.528 539.908 229.977 539.58 234.364C542.43 234.2 545.526 234.098 547.842 235.758C550.159 237.419 550.795 241.54 548.294 242.914C546.776 243.734 545.177 244.861 543.475 244.861H193.027C188.209 244.861 183.391 244.964 178.573 244.984C175.088 244.984 171.869 246.461 169.121 243.344C166.784 240.679 166.825 236.312 169.039 233.544C171.254 230.776 175.334 229.751 178.676 230.94C176.584 228.07 174.432 225.056 173.775 221.55C173.14 218.044 174.473 213.903 177.753 212.508C179.024 211.955 180.459 211.873 181.812 212.057C183.719 212.324 185.564 213.103 187.061 214.333C185.462 209.618 185.031 204.492 185.831 199.571C186.302 196.599 187.307 193.585 189.439 191.473C191.695 189.259 194.995 188.336 198.173 188.336C201.351 188.336 204.447 189.136 207.522 189.935C207.481 185.835 207.461 181.591 209.081 177.798C212.607 169.494 221.239 169.515 227.963 173.451C227.799 170.991 227.061 168.572 227.102 166.111C227.246 160.104 229.809 154.733 234.299 151.247C237.866 148.479 242.377 147.27 246.703 147.905C244.898 147.639 250.639 139.971 251.541 139.335C253.981 137.572 257.036 136.936 259.865 136.485C265.77 135.563 271.736 136.157 277.661 135.727C298.922 134.21 320.696 135.419 342.039 135.419H444.633C452.937 135.419 461.999 134.21 467.063 142.513C471.614 149.935 476.268 157.767 475.797 166.85C480.594 162.278 489.103 164.307 493.265 169.453C497.427 174.599 498.206 181.673 498.063 188.295C500.031 184.379 505.751 184.215 509.728 186.06C511.041 186.675 512.271 187.434 513.378 188.336Z" fill="#86CEA3"/>
<path d="M435.674 104.378C436.186 105.363 437.068 106.224 437.396 107.249C437.765 108.397 437.396 109.566 437.519 110.714C437.662 111.985 438.36 113.194 439.077 114.343C439.487 115.019 439.918 115.696 440.348 116.372C442.542 119.755 445.064 123.097 447.975 126.029C451.666 129.719 456.012 132.733 461.22 134.271C470.794 137.121 481.845 134.455 490.231 139.684C493.368 141.652 495.705 144.502 498.862 146.429C508.211 152.149 521.046 147.967 530.846 152.969C534.516 154.814 537.468 157.849 541.405 159.14C546.735 160.863 552.558 158.751 555.654 155.019C556.884 153.543 558.319 152.58 559.775 151.637C561.251 150.714 562.727 149.853 564.06 148.52C566.561 146.06 567.75 142.738 567.566 139.294C567.34 134.537 564.737 129.514 561.026 124.86C559.939 123.528 558.75 122.195 557.766 120.801C557.089 119.858 556.515 118.894 556.146 117.91C554.731 114.302 556.331 111.042 556.556 107.577C557.028 100.524 551.123 92.2614 541.958 87.1768C537.899 84.9011 537.202 84.327 536.402 81.2721C535.726 78.6068 533.368 76.1055 530.826 73.8093C528.816 72.005 526.643 70.2213 523.896 69.0322C518.524 66.7154 512.537 67.392 508.088 69.0322C506.161 69.7498 504.295 70.6109 501.958 70.7134C496.361 70.9594 490.005 66.7564 484.572 67.269C481.292 67.5765 479.385 69.5447 478.216 71.6155C474.731 77.9302 472.045 78.6273 464.459 81.9077C457.755 84.7986 451.03 87.7099 444.326 90.6418C441.312 91.9539 437.97 93.0405 436.699 95.7674C435.612 98.0841 434.362 101.734 435.715 104.317L435.674 104.378Z" fill="#6B9E84"/>
<path d="M464.992 114.691C464.746 114.445 465.075 114.22 465.3 114.158C465.608 114.076 466.12 114.117 466.346 114.384C467.002 115.081 467.801 115.614 468.703 115.942C469.401 116.188 470.077 116.27 470.774 116.229C468.355 113.153 466.1 109.75 466.038 105.875C466.038 106.06 467.617 108.458 467.842 108.848C468.642 110.365 469.606 111.821 470.61 113.215C472.64 116.024 475.059 118.525 477.889 120.534C479.385 121.6 485.987 127.505 487.709 126.09C488.263 125.619 488.468 124.86 488.632 124.143C489.083 122.113 489.349 120.022 489.493 117.951C489.636 115.819 489.349 113.522 489.698 111.431C490.272 108.007 490.354 104.522 490.477 101.057C490.539 99.6013 490.026 97.8381 491.851 98.3507C493.019 98.6582 494.393 99.2323 494.475 100.647C494.537 101.98 494.065 103.517 493.921 104.85C493.757 106.388 493.614 107.925 493.491 109.484C493.06 115.491 493.06 121.539 493.409 127.546C493.675 132.2 494.147 136.854 494.783 141.467C495.152 144.194 494.865 150.304 498.74 150.652C500.646 150.837 502.245 149.299 503.558 147.885C508.519 142.533 512.927 136.813 517.479 131.134C521.395 126.234 524.839 121.17 528.284 115.921C528.632 115.368 529.145 114.753 529.78 114.814C530.416 114.876 530.826 115.634 530.723 116.27C530.641 116.905 530.211 117.459 529.821 117.951C528.079 120.145 526.397 122.4 524.798 124.717C524.204 125.578 521.641 129.084 522.44 130.314C522.543 130.478 522.768 130.54 522.973 130.56C523.588 130.622 524.224 130.417 524.798 130.17C525.782 129.74 526.705 129.186 527.627 128.653C528.735 127.997 529.924 127.403 530.908 126.542C532.302 125.311 533.758 124.204 535.316 123.2C535.992 122.769 536.772 122.339 537.551 122.564C538.904 122.974 536.156 125.188 535.951 125.332C534.619 126.255 533.368 127.3 532.056 128.264C529.432 130.17 526.602 131.893 523.445 132.774C520.903 133.471 518.791 133.656 517.499 136.055C516.167 138.515 513.788 140.401 511.902 142.451C509.421 145.137 507.228 148.049 505.013 150.96C498.247 159.899 497.858 167.997 499.15 178.946C500.605 191.042 502.573 203.098 503.988 215.194C504.726 221.529 505.321 227.885 505.608 234.241C505.731 236.722 505.464 239.407 505.895 241.827C506.264 243.898 508.007 246.337 507.33 248.511C506.202 252.078 500.503 250.089 497.632 250.192C495.746 250.253 493.019 251.811 491.174 250.991C488.55 249.843 489.103 246.009 489.964 243.282C497.53 219.459 495.008 193.708 491.461 168.982C490.539 162.585 489.554 156.147 489.39 149.689C489.247 144.297 490.846 138.884 489.267 133.553C489.062 132.856 488.796 132.18 488.406 131.585C487.976 130.95 487.402 130.437 486.807 129.945C484.039 127.669 480.882 125.926 478.053 123.712C476.761 122.708 475.49 121.6 474.301 120.493C473.563 119.817 472.763 119.202 472.271 118.32C472.086 117.992 471.963 117.602 471.697 117.356C471.266 116.967 470.979 117.09 470.385 117.069C468.437 116.987 466.305 116.208 465.013 114.712L464.992 114.691Z" fill="#263238"/>
<path d="M435.674 104.378C436.186 105.363 437.068 106.224 437.396 107.249C437.765 108.397 437.396 109.566 437.519 110.714C437.662 111.985 438.36 113.194 439.077 114.343C439.487 115.019 439.918 115.696 440.348 116.372C442.542 119.755 445.064 123.097 447.975 126.029C449.246 125.434 450.518 124.819 451.871 124.389C454.803 123.446 457.98 123.405 461.076 123.015C464.152 122.646 467.35 121.805 469.523 119.653C471.143 118.074 472.189 115.696 473.911 114.261C475.736 112.723 478.647 114.056 480.738 114.261C486.561 114.896 489.595 110.16 494.926 109.258C497.325 108.827 500.031 109.463 502.02 110.898C503.024 111.636 503.885 112.538 504.828 113.358C508.314 116.352 513.214 117.684 517.745 116.905C518.606 116.762 519.467 116.536 520.328 116.536C521.312 116.577 522.256 116.885 523.117 117.295C525.761 118.566 527.525 120.76 528.878 123.241C530.293 125.865 530.908 129.043 532.978 131.278C535.582 134.066 539.826 134.845 542.594 137.49C545.505 140.278 546.325 144.768 549.544 147.228C550.241 147.762 551 148.151 551.779 148.479C554.403 149.566 557.397 149.853 559.693 151.575C559.714 151.596 559.755 151.616 559.775 151.637C561.251 150.714 562.727 149.853 564.06 148.52C566.561 146.06 567.75 142.738 567.566 139.294C567.34 134.537 564.737 129.514 561.026 124.86C559.939 123.528 558.75 122.195 557.766 120.801C557.089 119.858 556.515 118.894 556.146 117.91C554.731 114.302 556.331 111.042 556.556 107.577C557.028 100.524 551.123 92.2614 541.958 87.1768C537.899 84.9011 537.202 84.327 536.402 81.2721C535.726 78.6068 533.368 76.1055 530.826 73.8093C528.816 72.005 526.643 70.2213 523.896 69.0322C518.524 66.7154 512.537 67.392 508.088 69.0322C506.161 69.7498 504.295 70.6109 501.958 70.7134C496.361 70.9594 490.005 66.7564 484.572 67.269C481.292 67.5765 479.385 69.5447 478.216 71.6155C474.731 77.9302 472.045 78.6273 464.459 81.9077C457.755 84.7986 451.03 87.7099 444.326 90.6418C441.312 91.9539 437.97 93.0405 436.699 95.7674C435.612 98.0841 434.362 101.734 435.715 104.337L435.674 104.378Z" fill="#86CEA3"/>
<path d="M479.549 198.587C480.451 200.904 480.738 203.508 480.287 205.968C481.804 203.364 484.388 201.519 487.176 201.212C489.964 200.884 492.876 202.134 494.659 204.513C497.468 208.224 497.181 213.636 496.751 218.475C498.022 217.122 499.744 216.137 501.507 216.363C503.783 216.671 505.505 218.987 506.018 221.448C506.53 223.928 506.079 226.512 505.464 228.952C508.293 228.111 511.41 228.829 513.788 230.715C516.166 232.601 517.786 235.574 518.299 238.772C518.586 240.453 518.545 242.299 517.786 243.795C516.207 246.932 512.045 246.215 509.339 246.215H223.145C218.143 246.215 213.14 246.338 208.158 246.317C206.662 246.317 205.349 246.912 203.955 246.932C200.408 246.953 196.164 246.256 194.709 242.647C193.478 239.613 195.016 236.045 197.025 233.585C199.342 230.756 202.766 228.562 206.149 229.382C205.493 226.881 206.251 223.99 208.015 222.288C209.778 220.587 212.464 220.135 214.596 221.202C214.575 217.245 215.416 213.103 217.794 210.171C220.644 206.645 228.415 205.271 232.372 206.768C232.884 203.446 233.376 200.31 234.791 197.255C236.718 193.134 239.301 192.006 243.279 192.129C245.227 192.191 247.133 192.662 248.938 193.441C249.635 193.728 253.715 195.471 253.735 196.373C253.653 191.781 253.735 187.004 255.826 182.924C257.918 178.844 262.633 175.727 267.103 176.916C263.207 164.779 283.115 167.055 289.901 166.604C306.672 165.496 323.833 166.378 340.665 166.378H421.589C428.17 166.378 434.956 164.533 439.282 171.073C441.414 174.313 441.886 178.475 444.244 181.55C448.098 179.049 453.367 178.905 457.365 181.201C461.445 183.539 463.373 187.721 463.68 192.601C465.935 192.334 467.576 191.002 469.995 191.186C472.496 191.371 474.936 192.478 476.802 194.343C477.991 195.533 478.913 197.009 479.549 198.628V198.587Z" fill="#6B9E84"/>
<path d="M318.871 240.289H263.084V245.128H318.871V240.289Z" fill="#20BF55"/>
<path d="M470.159 81.1699H222.551V255.072H470.159V81.1699Z" fill="#AEC7B8"/>
<path d="M231.715 81.1699H222.551V83.6302H231.715V81.1699Z" fill="#D7F3E5"/>
<path d="M228.845 82.6665H222.551V93.5123H228.845V82.6665Z" fill="#D7F3E5"/>
<path d="M231.715 92.5693H222.551V103.415H231.715V92.5693Z" fill="#D7F3E5"/>
<path d="M228.845 102.451H222.551V113.297H228.845V102.451Z" fill="#D7F3E5"/>
<path d="M231.715 112.354H222.551V123.2H231.715V112.354Z" fill="#D7F3E5"/>
<path d="M228.845 122.236H222.551V133.082H228.845V122.236Z" fill="#D7F3E5"/>
<path d="M231.715 132.118H222.551V142.964H231.715V132.118Z" fill="#D7F3E5"/>
<path d="M228.845 142.021H222.551V152.867H228.845V142.021Z" fill="#D7F3E5"/>
<path d="M231.715 151.903H222.551V162.749H231.715V151.903Z" fill="#D7F3E5"/>
<path d="M228.845 161.806H222.551V172.652H228.845V161.806Z" fill="#D7F3E5"/>
<path d="M231.715 171.688H222.551V182.534H231.715V171.688Z" fill="#D7F3E5"/>
<path d="M228.845 181.57H222.551V192.416H228.845V181.57Z" fill="#D7F3E5"/>
<path d="M231.715 191.473H222.551V202.319H231.715V191.473Z" fill="#D7F3E5"/>
<path d="M228.845 201.355H222.551V212.201H228.845V201.355Z" fill="#D7F3E5"/>
<path d="M231.715 211.258H222.551V222.104H231.715V211.258Z" fill="#D7F3E5"/>
<path d="M228.845 221.14H222.551V231.986H228.845V221.14Z" fill="#D7F3E5"/>
<path d="M231.715 231.043H222.551V241.889H231.715V231.043Z" fill="#D7F3E5"/>
<path d="M228.845 240.925H222.551V251.771H228.845V240.925Z" fill="#D7F3E5"/>
<path d="M470.179 81.1699H461.015V83.6302H470.179V81.1699Z" fill="#D7F3E5"/>
<path d="M470.18 82.6665H463.885V93.5123H470.18V82.6665Z" fill="#D7F3E5"/>
<path d="M470.18 92.5693H461.015V103.415H470.18V92.5693Z" fill="#D7F3E5"/>
<path d="M470.18 102.451H463.885V113.297H470.18V102.451Z" fill="#D7F3E5"/>
<path d="M470.18 112.354H461.015V123.2H470.18V112.354Z" fill="#D7F3E5"/>
<path d="M470.18 122.236H463.885V133.082H470.18V122.236Z" fill="#D7F3E5"/>
<path d="M470.18 132.118H461.015V142.964H470.18V132.118Z" fill="#D7F3E5"/>
<path d="M470.18 142.021H463.885V152.867H470.18V142.021Z" fill="#D7F3E5"/>
<path d="M470.18 151.903H461.015V162.749H470.18V151.903Z" fill="#D7F3E5"/>
<path d="M470.18 161.806H463.885V172.652H470.18V161.806Z" fill="#D7F3E5"/>
<path d="M470.18 171.688H461.015V182.534H470.18V171.688Z" fill="#D7F3E5"/>
<path d="M470.18 181.57H463.885V192.416H470.18V181.57Z" fill="#D7F3E5"/>
<path d="M470.18 191.473H461.015V202.319H470.18V191.473Z" fill="#D7F3E5"/>
<path d="M470.18 201.355H463.885V212.201H470.18V201.355Z" fill="#D7F3E5"/>
<path d="M470.18 211.258H461.015V222.104H470.18V211.258Z" fill="#D7F3E5"/>
<path d="M470.18 221.14H463.885V231.986H470.18V221.14Z" fill="#D7F3E5"/>
<path d="M470.18 231.043H461.015V241.889H470.18V231.043Z" fill="#D7F3E5"/>
<path d="M470.18 240.925H463.885V251.771H470.18V240.925Z" fill="#D7F3E5"/>
<path d="M250.332 160.596C250.332 164.266 247.36 167.219 243.71 167.219C240.061 167.219 237.088 164.246 237.088 160.596C237.088 156.947 240.061 153.974 243.71 153.974C247.38 153.974 250.332 156.947 250.332 160.596Z" fill="#D7F3E5"/>
<path d="M243.71 167.219H247.174L245.432 168.121L243.71 169.023L241.967 168.121L240.224 167.219H243.71Z" fill="#008136"/>
<path d="M247.175 166.255H240.245V167.198H247.175V166.255Z" fill="#008136"/>
<path d="M241.106 156.045C240.963 155.963 240.737 155.983 240.593 156.045C238.994 156.865 238.092 158.608 238.42 160.391C238.461 160.658 239.199 160.617 239.138 160.391C238.83 158.731 239.589 157.09 241.106 156.311C241.25 156.229 241.229 156.127 241.106 156.045Z" fill="white"/>
<path d="M248.467 161.642C248.364 162.339 248.077 162.995 247.606 163.528C247.38 163.774 248.077 163.897 248.241 163.713C248.754 163.118 249.082 162.421 249.184 161.642C249.225 161.396 248.487 161.375 248.446 161.642H248.467Z" fill="white"/>
<path d="M247.851 177.88H247.277C246.211 177.88 245.35 177.019 245.35 175.953V173.862C245.35 172.795 246.211 171.934 247.277 171.934H247.851C248.917 171.934 249.778 172.795 249.778 173.862V175.953C249.778 177.019 248.917 177.88 247.851 177.88Z" fill="#02BA50"/>
<path d="M247.565 175.522H245.268C244.018 175.522 243.013 174.292 243.013 172.754V167.772C243.013 167.383 243.321 167.075 243.71 167.075C244.1 167.075 244.407 167.383 244.407 167.772V172.754C244.407 173.574 244.879 174.128 245.289 174.128H247.585C247.975 174.128 248.282 174.436 248.282 174.825C248.282 175.215 247.975 175.522 247.585 175.522H247.565Z" fill="#008136"/>
<path d="M323.689 126.644H258.266L266.344 111.801H315.611L323.689 126.644Z" fill="#02BA50"/>
<path d="M293.96 126.644H287.994H258.265V134.681H287.994H293.96H323.689V126.644H293.96Z" fill="#02BA50"/>
<path d="M269.173 134.743C269.173 136.424 266.999 137.798 264.211 137.962C264.047 137.962 263.883 137.962 263.719 137.962C263.165 137.962 262.612 137.921 262.099 137.818C259.885 137.408 258.265 136.178 258.265 134.743C258.265 134.743 258.265 134.702 258.265 134.681C258.306 133.267 259.906 132.057 262.099 131.647C262.612 131.544 263.145 131.503 263.719 131.503C263.883 131.503 264.047 131.503 264.211 131.503C266.958 131.647 269.111 133 269.173 134.661C269.173 134.681 269.173 134.702 269.173 134.722V134.743Z" fill="#02BA50"/>
<path d="M280.08 134.743C280.08 136.383 278.009 137.736 275.344 137.941C275.098 137.941 274.872 137.962 274.626 137.962C274.134 137.962 273.683 137.921 273.232 137.859C270.895 137.49 269.172 136.239 269.172 134.743C269.172 134.743 269.172 134.702 269.172 134.681C269.213 133.205 270.915 131.975 273.232 131.626C273.683 131.565 274.154 131.524 274.626 131.524C274.872 131.524 275.118 131.524 275.344 131.544C277.988 131.749 280.018 133.082 280.08 134.681V134.743Z" fill="#02BA50"/>
<path d="M290.967 134.743C290.967 136.342 289.019 137.654 286.456 137.921C286.149 137.962 285.841 137.962 285.513 137.962C285.103 137.962 284.713 137.941 284.344 137.88C281.905 137.572 280.059 136.28 280.059 134.722C280.059 134.722 280.059 134.681 280.059 134.661C280.1 133.144 281.925 131.872 284.344 131.565C284.713 131.524 285.123 131.483 285.513 131.483C285.841 131.483 286.149 131.483 286.456 131.524C288.978 131.79 290.926 133.082 290.967 134.64C290.967 134.661 290.967 134.681 290.967 134.702V134.743Z" fill="#02BA50"/>
<path d="M301.875 134.743C301.875 136.281 300.05 137.572 297.59 137.9C297.221 137.941 296.831 137.982 296.421 137.982C296.093 137.982 295.785 137.982 295.478 137.941C292.915 137.675 290.967 136.363 290.967 134.763C290.967 134.763 290.967 134.722 290.967 134.702C291.008 133.144 292.936 131.831 295.478 131.585C295.785 131.544 296.093 131.544 296.421 131.544C296.831 131.544 297.221 131.565 297.59 131.626C300.009 131.934 301.834 133.205 301.875 134.722C301.875 134.722 301.875 134.763 301.875 134.784V134.743Z" fill="#02BA50"/>
<path d="M312.782 134.743C312.782 136.239 311.059 137.511 308.722 137.859C308.271 137.921 307.799 137.962 307.328 137.962C307.082 137.962 306.836 137.962 306.61 137.941C303.945 137.736 301.874 136.383 301.874 134.743C301.874 134.743 301.874 134.702 301.874 134.681C301.915 133.062 303.966 131.749 306.61 131.544C306.856 131.544 307.082 131.524 307.328 131.524C307.82 131.524 308.271 131.565 308.722 131.626C311.018 131.995 312.741 133.226 312.782 134.681V134.743Z" fill="#02BA50"/>
<path d="M323.689 134.743C323.689 136.198 322.069 137.408 319.855 137.818C319.342 137.921 318.809 137.962 318.235 137.962C318.071 137.962 317.907 137.962 317.743 137.962C314.975 137.818 312.781 136.424 312.781 134.743C312.781 134.743 312.781 134.702 312.781 134.681C312.822 133.021 314.996 131.667 317.743 131.524C317.907 131.524 318.071 131.524 318.235 131.524C318.788 131.524 319.342 131.565 319.855 131.667C322.048 132.077 323.648 133.267 323.689 134.702C323.689 134.702 323.689 134.743 323.689 134.763V134.743Z" fill="#02BA50"/>
<path d="M271.962 111.801L264.314 126.644L264.212 126.829V137.941C264.048 137.941 263.884 137.941 263.72 137.941C263.166 137.941 262.612 137.9 262.1 137.798V126.419L269.645 111.78H271.962V111.801Z" fill="#008136"/>
<path d="M279.957 111.801L275.365 126.644L275.324 126.767V137.941C275.078 137.941 274.852 137.962 274.606 137.962C274.114 137.962 273.663 137.921 273.212 137.859V126.521L277.764 111.801H279.957Z" fill="#008136"/>
<path d="M287.994 111.801L286.477 126.644V126.685V137.921C286.169 137.962 285.862 137.962 285.534 137.962C285.124 137.962 284.734 137.941 284.365 137.88V126.542L285.882 111.78H288.015L287.994 111.801Z" fill="#008136"/>
<path d="M297.589 126.603V137.9C297.22 137.941 296.831 137.982 296.42 137.982C296.092 137.982 295.785 137.982 295.477 137.941V126.665L293.94 111.821H296.072L297.589 126.624V126.603Z" fill="#008136"/>
<path d="M308.723 126.521V137.859C308.272 137.921 307.8 137.962 307.329 137.962C307.083 137.962 306.837 137.962 306.611 137.941V126.767L306.57 126.644L301.978 111.801H304.171L308.723 126.521Z" fill="#008136"/>
<path d="M319.855 126.439V137.818C319.343 137.921 318.809 137.962 318.235 137.962C318.071 137.962 317.907 137.962 317.743 137.962V126.849L317.641 126.665L309.993 111.821H312.31L319.855 126.46V126.439Z" fill="#008136"/>
<path d="M322.602 126.357H259.188C258.922 126.357 258.901 126.849 259.188 126.849H322.602C322.869 126.849 322.889 126.357 322.602 126.357Z" fill="#008136"/>
<path d="M241.352 230.345L243.935 242.647C244.242 244.082 245.534 245.128 247.01 245.128H251.234C252.73 245.128 254.002 244.103 254.309 242.647L256.892 230.345H241.331H241.352Z" fill="#EC8161"/>
<path d="M263.864 219.643C263.577 219.233 263.167 218.967 262.695 219.11C263.618 217.245 264.54 215.317 264.643 213.226C264.704 211.893 264.335 210.479 263.536 209.433C262.798 208.469 261.137 208.428 260.85 207.342C260.542 206.173 260.665 204.923 260.44 203.754C260.194 202.585 259.353 201.376 258.246 201.458C257.692 201.499 257.2 201.847 256.708 202.093C256.565 202.175 256.36 202.216 256.237 202.114C256.134 202.032 256.114 201.868 256.093 201.704C255.868 199.94 254.699 198.464 253.387 197.378C252.854 196.927 251.993 196.558 251.583 197.152C251.337 197.48 251.275 198.054 250.886 198.054C250.742 198.054 250.599 197.952 250.496 197.849C249.922 197.337 249.348 196.763 248.63 196.578C247.687 196.312 246.662 196.783 245.924 197.501C245.186 198.218 244.694 199.161 244.202 200.084C244.038 200.392 243.853 200.699 243.546 200.781C243.074 200.884 242.705 200.351 242.275 200.146C241.455 199.756 240.573 200.576 240.081 201.376C239.507 202.339 239.076 203.405 238.851 204.533C238.789 204.8 238.441 207.649 238.605 207.711C237.744 207.403 236.78 208.162 236.452 209.085C236.124 210.007 236.267 211.053 236.411 212.037C236.534 212.898 236.677 213.78 236.8 214.641C235.714 214.6 234.914 215.932 234.976 217.122C235.058 218.29 235.714 219.315 236.37 220.279C236.985 221.181 237.58 222.083 238.195 222.965C237.867 222.493 237.046 224.154 237.067 224.4C237.087 225.22 238.01 225.815 238.564 226.327C239.917 227.619 241.414 228.808 243.197 229.484C244.468 229.977 245.842 230.182 247.216 230.284C252.28 230.715 257.897 230.038 261.772 226.45C263.351 224.994 264.499 222.883 264.253 220.73C264.212 220.361 264.069 219.951 263.864 219.643Z" fill="#6B9E84"/>
<path d="M243.771 206.009C243.464 205.784 243.012 205.804 242.725 206.05C242.377 206.317 242.295 206.829 242.213 207.219C242.028 208.141 242.09 209.064 242.336 209.966C242.049 209.925 241.741 210.007 241.495 210.171C241.085 210.438 240.901 210.889 240.819 211.36C240.614 212.283 240.757 213.267 241.126 214.108C241.352 214.6 241.659 215.03 242.028 215.42C242.131 215.522 242.52 215.44 242.377 215.317C241.639 214.579 241.188 213.575 241.126 212.529C241.085 212.016 241.126 211.463 241.331 210.971C241.495 210.561 241.946 209.966 242.459 210.253C242.541 210.294 242.848 210.315 242.807 210.151C242.561 209.392 242.479 208.592 242.561 207.793C242.602 207.424 242.664 207.014 242.787 206.665C242.869 206.46 243.135 205.907 243.423 206.132C243.505 206.194 243.628 206.194 243.71 206.173C243.771 206.153 243.853 206.091 243.792 206.03L243.771 206.009Z" fill="#86CEA3"/>
<path d="M257.487 216.076C257.487 215.81 257.425 215.523 257.343 215.256C257.282 215.03 257.22 214.764 257.077 214.579C256.933 214.374 256.687 214.231 256.441 214.231C256.749 213.411 256.892 212.509 256.831 211.648C256.81 211.217 256.749 210.704 256.482 210.356C256.236 210.028 255.846 209.864 255.436 209.905C255.375 209.905 255.252 209.946 255.293 210.028C255.334 210.11 255.477 210.11 255.539 210.11C255.908 210.069 256.195 210.52 256.277 210.807C256.4 211.197 256.421 211.627 256.421 212.017C256.421 212.857 256.256 213.698 255.928 214.456C255.867 214.62 256.256 214.6 256.338 214.518C256.605 214.169 256.913 215.215 256.954 215.359C257.056 215.789 257.097 216.22 257.077 216.65C257.036 217.532 256.769 218.393 256.256 219.11C256.174 219.233 256.564 219.295 256.667 219.172C257.282 218.27 257.569 217.183 257.487 216.097V216.076Z" fill="#86CEA3"/>
<path d="M249.102 224.215C248.671 223.723 248.466 223.088 248.425 222.452C248.405 222.104 248.425 221.755 248.466 221.406C248.466 221.242 248.487 221.078 248.548 220.914C248.548 220.873 248.589 220.791 248.63 220.75C248.63 220.75 248.651 220.75 248.651 220.812C248.651 220.955 249.081 220.955 249.061 220.812C249.02 220.484 248.548 220.463 248.323 220.607C248.159 220.709 248.118 220.873 248.077 221.058C248.036 221.304 248.015 221.55 247.995 221.796C247.933 222.698 248.118 223.621 248.733 224.318C248.815 224.42 249.225 224.359 249.102 224.215Z" fill="#86CEA3"/>
<path d="M252.505 201.294C252.361 200.781 251.91 200.125 251.295 200.392C251.213 200.433 251.234 200.494 251.295 200.535C251.377 200.576 251.48 200.576 251.562 200.535C251.562 200.535 251.562 200.535 251.582 200.535C251.603 200.535 251.623 200.556 251.664 200.576C251.705 200.617 251.746 200.658 251.787 200.699C251.849 200.781 251.91 200.863 251.951 200.966C252.054 201.171 252.136 201.417 252.156 201.642C252.218 202.175 252.115 202.708 251.972 203.221C251.951 203.344 252.341 203.364 252.382 203.221C252.546 202.585 252.669 201.909 252.484 201.273L252.505 201.294Z" fill="#86CEA3"/>
<path d="M260.378 222.985C260.07 224.031 259.291 224.912 258.307 225.363C258.225 225.404 258.246 225.466 258.307 225.507C258.389 225.548 258.512 225.548 258.594 225.507C259.64 225.035 260.46 224.113 260.788 223.026C260.829 222.862 260.419 222.842 260.398 222.965L260.378 222.985Z" fill="#86CEA3"/>
<path d="M242.992 226.327C242.172 225.651 241.741 224.584 241.844 223.518C241.844 223.375 241.434 223.375 241.434 223.518C241.331 224.625 241.782 225.733 242.623 226.43C242.705 226.491 242.828 226.491 242.91 226.471C242.971 226.471 243.053 226.389 242.992 226.327Z" fill="#86CEA3"/>
<path d="M312.454 142.329H269.522V240.74H312.454V142.329Z" fill="#02BA50"/>
<path d="M310.26 144.871H271.674V240.74H310.26V144.871Z" fill="#D7F3E5"/>
<path d="M305.811 148.254H276.164V213.103H305.811V148.254Z" fill="#20BF55"/>
<path d="M305.791 182.432H276.144V183.436H305.791V182.432Z" fill="#D7F3E5"/>
<path d="M290.907 155.881H290.722L285.904 162.523L286.007 162.585L290.804 155.963L295.622 162.585L295.725 162.523L290.907 155.881Z" fill="#02BA50"/>
<path d="M298.739 161.765H282.952V170.745H298.739V161.765Z" fill="#AEC7B8"/>
<path d="M294.802 161.457H286.847L286.252 162.298H295.417L294.822 161.457H294.802ZM282.623 161.457V170.95H299.005V161.457H282.623ZM298.164 170.109H283.464V162.277H298.164V170.109Z" fill="#02BA50"/>
<path d="M287.708 164.881C286.991 164.881 286.663 165.373 286.663 166.173C286.663 166.973 286.97 167.444 287.708 167.444C288.447 167.444 288.734 166.932 288.734 166.132C288.734 165.332 288.447 164.881 287.708 164.881ZM287.708 167.137C287.237 167.137 287.073 166.788 287.073 166.173C287.073 165.558 287.237 165.209 287.708 165.209C288.18 165.209 288.324 165.496 288.324 166.132C288.324 166.727 288.18 167.137 287.708 167.137Z" fill="white"/>
<path d="M290.026 164.943H289.165V167.403H289.575V166.46C289.575 166.46 289.718 166.46 289.903 166.46C290.497 166.46 290.784 166.07 290.784 165.66C290.784 165.189 290.497 164.922 290.005 164.922L290.026 164.943ZM289.8 166.173C289.698 166.173 289.616 166.173 289.575 166.173V165.271H289.985C290.251 165.271 290.354 165.455 290.354 165.722C290.354 166.07 290.108 166.194 289.78 166.194L289.8 166.173Z" fill="white"/>
<path d="M292.629 167.075C292.629 167.075 292.034 167.096 291.604 167.116V166.296C291.85 166.296 292.444 166.296 292.444 166.296C292.465 166.235 292.486 166.112 292.486 166.091C292.486 166.03 292.486 165.988 292.486 165.988C292.486 165.988 291.891 165.988 291.604 165.988V165.25C292.034 165.25 292.568 165.271 292.568 165.271C292.629 165.168 292.629 165.066 292.629 165.025C292.629 164.984 292.629 164.943 292.629 164.943H291.194V167.403H292.609C292.609 167.403 292.629 167.219 292.629 167.178C292.629 167.116 292.629 167.055 292.629 167.055V167.075Z" fill="white"/>
<path d="M294.556 164.943V166.481L294.597 167.178L294.351 166.481L293.716 164.943H293.06V167.403H293.47V165.865L293.429 165.148L293.675 165.865L294.331 167.403H294.987V164.943H294.577H294.556Z" fill="white"/>
<path d="M308.743 187.331H300.276V189.484H308.743V187.331Z" fill="#02BA50"/>
<path d="M305.688 236.865H276.267V216.875H305.688V236.865ZM276.882 236.271H305.073V217.491H276.882V236.271Z" fill="#20BF55"/>
<g opacity="0.2">
<path d="M305.812 157.439V167.711L276.165 193.995V183.744L305.812 157.439Z" fill="white"/>
<path d="M305.812 171.258V173.82L276.165 200.125V197.542L305.812 171.258Z" fill="white"/>
<path d="M305.812 202.298V204.861L296.524 213.103H293.633L305.812 202.298Z" fill="white"/>
<path d="M305.812 193.072V199.49L290.476 213.103H283.218L305.812 193.072Z" fill="white"/>
<path d="M282.89 148.254L276.165 154.22V148.254H282.89Z" fill="white"/>
</g>
<path d="M450.066 118.607H335.478V225.117H450.066V118.607Z" fill="#D7F3E5"/>
<path d="M354.628 170.683H343.946V178.085H354.628V170.683Z" fill="#AEC7B8"/>
<path d="M359.487 178.085H350.63V188.623H359.487V178.085Z" fill="#AEC7B8"/>
<path d="M356.679 181.324H353.44V186.06H356.679V181.324Z" fill="#AEC7B8"/>
<path d="M348.272 178.085H339.415V188.623H348.272V178.085Z" fill="#AEC7B8"/>
<path d="M345.464 181.324H342.224V186.06H345.464V181.324Z" fill="#AEC7B8"/>
<path d="M397.026 188.603C397.97 188.603 398.728 188.726 398.728 187.721V183.621C398.728 182.636 397.97 181.816 397.026 181.816C396.083 181.816 395.325 182.616 395.325 183.621V187.721C395.325 188.705 396.083 188.603 397.026 188.603Z" fill="#AEC7B8"/>
<path d="M397.949 181.263H396.083V182.944H397.949V181.263Z" fill="#AEC7B8"/>
<path d="M397.887 179.459L398.072 181.324C398.072 181.324 398.01 181.509 397.928 181.509H396.124C396.124 181.509 395.96 181.427 395.981 181.324L396.165 179.459C396.165 179.459 396.247 179.315 396.309 179.315H397.744C397.744 179.315 397.887 179.377 397.887 179.459Z" fill="#AEC7B8"/>
<path d="M397.662 178.7L397.785 179.889C397.785 180.012 397.703 180.115 397.6 180.115H396.452C396.35 180.115 396.247 180.012 396.268 179.889L396.391 178.7C396.391 178.597 396.493 178.515 396.575 178.515H397.498C397.498 178.515 397.682 178.597 397.682 178.7H397.662Z" fill="#AEC7B8"/>
<path d="M397.21 176.096L397.436 179.11C397.436 179.213 397.354 179.315 397.251 179.315H396.739C396.636 179.315 396.554 179.213 396.554 179.11L396.759 176.096C396.759 176.096 396.841 175.912 396.944 175.912H397.005C397.005 175.912 397.169 175.994 397.19 176.096H397.21Z" fill="#AEC7B8"/>
<path d="M395.14 179.479H398.913C399.015 179.479 399.097 179.397 399.097 179.274C399.097 179.172 399.015 179.069 398.913 179.069H395.14C395.038 179.069 394.956 179.151 394.956 179.274C394.956 179.377 395.038 179.479 395.14 179.479Z" fill="#AEC7B8"/>
<path d="M398.175 183.354H395.879V187.188H398.175V183.354Z" fill="#AEC7B8"/>
<path d="M404.244 188.603C405.187 188.603 405.945 188.726 405.945 187.721V183.621C405.945 182.636 405.187 181.816 404.244 181.816C403.301 181.816 402.542 182.616 402.542 183.621V187.721C402.542 188.705 403.301 188.603 404.244 188.603Z" fill="#AEC7B8"/>
<path d="M405.187 181.263H403.321V182.944H405.187V181.263Z" fill="#AEC7B8"/>
<path d="M405.125 179.459L405.31 181.324C405.31 181.324 405.248 181.509 405.166 181.509H403.362C403.362 181.509 403.198 181.427 403.218 181.324L403.403 179.459C403.403 179.459 403.485 179.315 403.546 179.315H404.982C404.982 179.315 405.125 179.377 405.125 179.459Z" fill="#AEC7B8"/>
<path d="M404.9 178.7L405.023 179.889C405.023 180.012 404.941 180.115 404.838 180.115H403.69C403.588 180.115 403.485 180.012 403.506 179.889L403.629 178.7C403.629 178.597 403.731 178.515 403.813 178.515H404.736C404.736 178.515 404.92 178.597 404.92 178.7H404.9Z" fill="#AEC7B8"/>
<path d="M404.448 176.096L404.674 179.11C404.674 179.213 404.592 179.315 404.489 179.315H403.977C403.874 179.315 403.792 179.213 403.792 179.11L403.997 176.096C403.997 176.096 404.079 175.912 404.182 175.912H404.243C404.243 175.912 404.407 175.994 404.428 176.096H404.448Z" fill="#AEC7B8"/>
<path d="M402.357 179.479H406.129C406.232 179.479 406.314 179.397 406.314 179.274C406.314 179.172 406.232 179.069 406.129 179.069H402.357C402.254 179.069 402.172 179.151 402.172 179.274C402.172 179.377 402.254 179.479 402.357 179.479Z" fill="#AEC7B8"/>
<path d="M405.392 183.354H403.095V187.188H405.392V183.354Z" fill="#AEC7B8"/>
<path d="M415.274 188.602H414.556C413.203 188.602 412.117 187.495 412.137 186.163V173.738C412.158 172.385 413.265 171.298 414.597 171.319H415.315C416.668 171.319 417.755 172.426 417.734 173.759V186.183C417.714 187.536 416.607 188.623 415.274 188.602Z" fill="#AEC7B8"/>
<path d="M417.734 182.841L417.754 175.891H413.469L413.449 182.841H417.734Z" fill="#AEC7B8"/>
<path d="M416.114 166.87V167.895V168.428C416.114 168.592 415.991 168.715 415.848 168.715H414.146C414.003 168.715 413.88 168.572 413.88 168.428V166.87C413.88 166.706 414.003 166.583 414.146 166.583H415.848C415.991 166.583 416.114 166.726 416.114 166.87Z" fill="#AEC7B8"/>
<path d="M415.172 171.298H414.741C414.003 171.298 413.429 170.704 413.429 169.966V169.576C413.429 168.838 414.024 168.243 414.762 168.264H415.192C415.93 168.264 416.504 168.859 416.504 169.597V169.986C416.504 170.724 415.91 171.319 415.172 171.298Z" fill="#AEC7B8"/>
<path d="M421.917 167.813H415.705C415.582 167.813 415.479 167.71 415.479 167.587V167.526C415.479 167.403 415.582 167.321 415.705 167.321H421.917V167.833V167.813Z" fill="#AEC7B8"/>
<path d="M422.47 168.059L421.732 167.936C421.732 167.936 421.568 167.833 421.568 167.731V167.423C421.568 167.321 421.65 167.218 421.732 167.218L422.47 167.095C422.716 167.054 422.921 167.259 422.921 167.505V167.649C422.921 167.915 422.695 168.1 422.449 168.059H422.47Z" fill="#AEC7B8"/>
<path d="M423.557 188.603H422.962C421.876 188.603 420.994 187.721 420.994 186.634V176.588C421.015 175.501 421.896 174.62 422.983 174.62H423.577C424.664 174.62 425.546 175.501 425.546 176.588V186.634C425.525 187.721 424.644 188.603 423.557 188.603Z" fill="#AEC7B8"/>
<path d="M425.545 183.948V178.331H422.08V183.948H425.545Z" fill="#AEC7B8"/>
<path d="M424.233 171.032V171.852V172.283C424.233 172.406 424.131 172.508 424.008 172.508H422.634C422.511 172.508 422.409 172.406 422.409 172.262V171.011C422.409 170.888 422.511 170.786 422.634 170.786H424.008C424.131 170.786 424.233 170.888 424.233 171.032Z" fill="#AEC7B8"/>
<path d="M423.475 174.62H423.126C422.532 174.62 422.06 174.128 422.06 173.554V173.226C422.06 172.631 422.532 172.16 423.126 172.16H423.475C424.07 172.16 424.541 172.652 424.541 173.226V173.554C424.541 174.148 424.07 174.62 423.475 174.62Z" fill="#AEC7B8"/>
<path d="M428.928 171.791H423.905C423.905 171.791 423.741 171.709 423.741 171.606V171.565C423.741 171.565 423.823 171.381 423.905 171.381H428.928V171.791Z" fill="#AEC7B8"/>
<path d="M429.359 171.996L428.765 171.893C428.765 171.893 428.621 171.811 428.621 171.729V171.483C428.621 171.483 428.683 171.319 428.765 171.319L429.359 171.217C429.564 171.176 429.728 171.34 429.728 171.545V171.668C429.728 171.873 429.544 172.037 429.359 171.996Z" fill="#AEC7B8"/>
<path d="M438.975 182.165L439.016 187.803C439.016 188.254 439.324 188.623 439.693 188.623L444.982 188.582C445.351 188.582 445.659 188.213 445.659 187.762L445.618 182.124C445.618 181.406 445.536 180.709 445.372 180.053C445.064 178.761 444.47 177.572 443.65 176.629L443.424 176.363H441.107L440.882 176.65C440.082 177.613 439.488 178.802 439.201 180.094C439.057 180.771 438.975 181.468 438.975 182.185V182.165Z" fill="#AEC7B8"/>
<path d="M440.656 176.363H443.854L443.69 174.128C443.69 173.943 443.547 173.82 443.383 173.82H441.107C440.943 173.82 440.799 173.964 440.799 174.148L440.656 176.363Z" fill="#AEC7B8"/>
<path d="M429.913 182.165L429.954 187.803C429.954 188.254 430.262 188.623 430.631 188.623L435.92 188.582C436.289 188.582 436.597 188.213 436.597 187.762L436.556 182.124C436.556 181.406 436.474 180.709 436.31 180.053C436.002 178.761 435.408 177.572 434.588 176.629L434.362 176.363H432.045L431.82 176.65C431.02 177.613 430.426 178.802 430.139 180.094C429.975 180.771 429.913 181.468 429.913 182.185V182.165Z" fill="#AEC7B8"/>
<path d="M431.594 176.363H434.792L434.628 174.128C434.628 173.943 434.485 173.82 434.321 173.82H432.045C431.881 173.82 431.738 173.964 431.738 174.148L431.594 176.363Z" fill="#AEC7B8"/>
<path d="M373.182 183.6C373.367 183.6 373.51 183.415 373.51 183.19V173.431C373.51 173.205 373.654 173.021 373.838 173.021H378.41C378.595 173.021 378.738 173.205 378.738 173.431V183.19C378.738 183.415 378.882 183.6 379.066 183.6C379.251 183.6 379.395 183.784 379.395 184.01V185.24C379.395 185.465 379.251 185.65 379.066 185.65C378.882 185.65 378.738 185.835 378.738 186.06V188.192C378.738 188.418 378.595 188.602 378.41 188.602H373.838C373.654 188.602 373.51 188.418 373.51 188.192V186.06C373.51 185.835 373.367 185.65 373.182 185.65C372.998 185.65 372.854 185.465 372.854 185.24V184.01C372.854 183.784 372.998 183.6 373.182 183.6Z" fill="#AEC7B8"/>
<path d="M373.797 173.943H378.431C378.779 173.943 379.066 173.656 379.066 173.308V173.123C379.066 172.775 378.779 172.488 378.431 172.488H373.797C373.448 172.488 373.161 172.775 373.161 173.123V173.308C373.161 173.656 373.448 173.943 373.797 173.943Z" fill="#AEC7B8"/>
<path d="M364.53 183.6C364.714 183.6 364.858 183.415 364.858 183.19V173.431C364.858 173.205 365.001 173.021 365.186 173.021H369.758C369.942 173.021 370.086 173.205 370.086 173.431V183.19C370.086 183.415 370.229 183.6 370.414 183.6C370.598 183.6 370.742 183.784 370.742 184.01V185.24C370.742 185.465 370.598 185.65 370.414 185.65C370.229 185.65 370.086 185.835 370.086 186.06V188.192C370.086 188.418 369.942 188.602 369.758 188.602H365.186C365.001 188.602 364.858 188.418 364.858 188.192V186.06C364.858 185.835 364.714 185.65 364.53 185.65C364.345 185.65 364.202 185.465 364.202 185.24V184.01C364.202 183.784 364.345 183.6 364.53 183.6Z" fill="#AEC7B8"/>
<path d="M365.145 173.943H369.778C370.127 173.943 370.414 173.656 370.414 173.308V173.123C370.414 172.775 370.127 172.488 369.778 172.488H365.145C364.796 172.488 364.509 172.775 364.509 173.123V173.308C364.509 173.656 364.796 173.943 365.145 173.943Z" fill="#AEC7B8"/>
<path d="M381.445 184.01V185.24C381.445 185.363 381.486 185.465 381.547 185.527C381.609 185.609 381.691 185.65 381.773 185.65C381.957 185.65 382.101 185.834 382.101 186.06V188.192C382.101 188.418 382.244 188.602 382.429 188.602H387.001C387.185 188.602 387.329 188.418 387.329 188.192V186.06C387.329 185.957 387.37 185.834 387.431 185.773C387.493 185.691 387.575 185.65 387.657 185.65C387.841 185.65 387.985 185.465 387.985 185.24V184.01C387.985 183.907 387.944 183.784 387.882 183.723C387.821 183.641 387.739 183.6 387.657 183.6C387.472 183.6 387.329 183.415 387.329 183.19V177.244H382.121V183.19C382.121 183.415 381.978 183.6 381.793 183.6C381.609 183.6 381.465 183.784 381.465 184.01H381.445Z" fill="#AEC7B8"/>
<path d="M381.732 177.264V178.679C381.732 178.679 381.732 178.7 381.752 178.7H387.596C387.596 178.7 387.637 178.7 387.637 178.679V177.264C387.637 177.264 387.637 177.244 387.596 177.244H381.752C381.752 177.244 381.732 177.244 381.732 177.264Z" fill="#AEC7B8"/>
<path d="M349.113 147.987C349.297 147.987 349.441 147.803 349.441 147.577V137.818C349.441 137.593 349.584 137.408 349.769 137.408H354.341C354.526 137.408 354.669 137.593 354.669 137.818V147.577C354.669 147.803 354.813 147.987 354.997 147.987C355.182 147.987 355.325 148.172 355.325 148.398V149.628C355.325 149.853 355.182 150.038 354.997 150.038C354.813 150.038 354.669 150.222 354.669 150.448V152.58C354.669 152.806 354.526 152.99 354.341 152.99H349.769C349.584 152.99 349.441 152.806 349.441 152.58V150.448C349.441 150.222 349.297 150.038 349.113 150.038C348.928 150.038 348.785 149.853 348.785 149.628V148.398C348.785 148.172 348.928 147.987 349.113 147.987Z" fill="#AEC7B8"/>
<path d="M349.728 138.331H354.361C354.71 138.331 354.997 138.044 354.997 137.695V137.511C354.997 137.162 354.71 136.875 354.361 136.875H349.728C349.379 136.875 349.092 137.162 349.092 137.511V137.695C349.092 138.044 349.379 138.331 349.728 138.331Z" fill="#AEC7B8"/>
<path d="M340.461 147.987C340.645 147.987 340.789 147.803 340.789 147.577V137.818C340.789 137.593 340.932 137.408 341.117 137.408H345.689C345.873 137.408 346.017 137.593 346.017 137.818V147.577C346.017 147.803 346.161 147.987 346.345 147.987C346.53 147.987 346.673 148.172 346.673 148.398V149.628C346.673 149.853 346.53 150.038 346.345 150.038C346.161 150.038 346.017 150.222 346.017 150.448V152.58C346.017 152.806 345.873 152.99 345.689 152.99H341.117C340.932 152.99 340.789 152.806 340.789 152.58V150.448C340.789 150.222 340.645 150.038 340.461 150.038C340.276 150.038 340.133 149.853 340.133 149.628V148.398C340.133 148.172 340.276 147.987 340.461 147.987Z" fill="#AEC7B8"/>
<path d="M341.076 138.331H345.709C346.058 138.331 346.345 138.044 346.345 137.695V137.511C346.345 137.162 346.058 136.875 345.709 136.875H341.076C340.727 136.875 340.44 137.162 340.44 137.511V137.695C340.44 138.044 340.727 138.331 341.076 138.331Z" fill="#AEC7B8"/>
<path d="M357.355 148.397V149.628C357.355 149.73 357.396 149.853 357.457 149.915C357.519 149.976 357.601 150.038 357.683 150.038C357.867 150.038 358.011 150.222 358.011 150.448V152.58C358.011 152.805 358.154 152.99 358.339 152.99H362.911C363.095 152.99 363.239 152.805 363.239 152.58V150.448C363.239 150.325 363.28 150.222 363.341 150.161C363.403 150.099 363.485 150.038 363.567 150.038C363.751 150.038 363.895 149.853 363.895 149.628V148.397C363.895 148.295 363.854 148.172 363.813 148.11C363.752 148.028 363.669 147.987 363.587 147.987C363.403 147.987 363.259 147.803 363.259 147.577V141.632H358.052V147.577C358.052 147.803 357.908 147.987 357.724 147.987C357.539 147.987 357.396 148.172 357.396 148.397H357.355Z" fill="#AEC7B8"/>
<path d="M357.642 141.652V143.067C357.642 143.067 357.642 143.087 357.663 143.087H363.506C363.506 143.087 363.526 143.087 363.526 143.067V141.652C363.526 141.652 363.526 141.632 363.506 141.632H357.663C357.663 141.632 357.642 141.632 357.642 141.652Z" fill="#AEC7B8"/>
<path d="M398.278 136.444H392.107V152.99H398.278V136.444Z" fill="#AEC7B8"/>
<path d="M396.761 138.905H393.624V145.158H396.761V138.905Z" fill="#AEC7B8"/>
<path d="M390.159 136.444H383.988V152.99H390.159V136.444Z" fill="#AEC7B8"/>
<path d="M388.642 138.905H385.505V145.158H388.642V138.905Z" fill="#AEC7B8"/>
<path d="M402.152 138.782H404.797H406.13L405.207 150.755H404.797H402.152H401.763L400.84 138.782H402.152Z" fill="#AEC7B8"/>
<path d="M405.208 150.755H401.763V152.969H405.208V150.755Z" fill="#AEC7B8"/>
<path d="M409.637 138.782H412.281H413.614L412.691 150.755H412.281H409.637H409.247L408.324 138.782H409.637Z" fill="#AEC7B8"/>
<path d="M412.692 150.755H409.248V152.969H412.692V150.755Z" fill="#AEC7B8"/>
<path d="M375.377 141.918H369.718V147.475H375.377V141.918Z" fill="#AEC7B8"/>
<path d="M381.61 141.918H375.951V147.475H381.61V141.918Z" fill="#AEC7B8"/>
<path d="M378.452 136.383H372.793V141.939H378.452V136.383Z" fill="#AEC7B8"/>
<path d="M380.79 147.434H375.131V152.99H380.79V147.434Z" fill="#AEC7B8"/>
<path d="M374.659 147.434H369V152.99H374.659V147.434Z" fill="#AEC7B8"/>
<path d="M376.155 147.372H380.584C380.584 147.372 380.728 147.372 380.728 147.454C380.728 147.536 380.625 147.536 380.584 147.536H376.155C376.155 147.536 376.012 147.536 376.012 147.454C376.012 147.372 376.114 147.372 376.155 147.372Z" fill="#AEC7B8"/>
<path d="M369.944 147.372H374.372C374.372 147.372 374.516 147.372 374.516 147.454C374.516 147.536 374.413 147.536 374.372 147.536H369.944C369.944 147.536 369.8 147.536 369.8 147.454C369.8 147.393 369.903 147.372 369.944 147.372Z" fill="#AEC7B8"/>
<path d="M438.012 146.122L438.053 152.129C438.053 152.601 438.381 152.99 438.77 152.99L444.429 152.949C444.819 152.949 445.147 152.56 445.147 152.068L445.106 146.06C445.106 145.302 445.003 144.564 444.839 143.846C444.511 142.472 443.875 141.201 443.014 140.197L442.768 139.91H440.308L440.062 140.217C439.201 141.242 438.586 142.513 438.278 143.887C438.114 144.605 438.032 145.343 438.032 146.101L438.012 146.122Z" fill="#AEC7B8"/>
<path d="M439.816 139.93H443.219L443.055 137.552C443.055 137.367 442.891 137.224 442.707 137.224H440.287C440.103 137.224 439.959 137.388 439.959 137.572L439.816 139.93Z" fill="#AEC7B8"/>
<path d="M417.837 142.185V151.042C417.837 152.129 418.657 153.01 419.682 153.01H422.142C423.147 153.01 423.988 152.129 423.988 151.042V142.185C423.988 140.36 422.614 138.884 420.912 138.884C420.072 138.884 419.293 139.253 418.739 139.848C418.185 140.442 417.837 141.263 417.837 142.185Z" fill="#AEC7B8"/>
<path d="M422.306 133.41H419.518V139.827H422.306V133.41Z" fill="#AEC7B8"/>
<path d="M422.306 133.41H419.518V137.49H422.306V133.41Z" fill="#AEC7B8"/>
<path d="M426.325 140.299V150.694C426.325 151.965 427.288 153.01 428.477 153.01H431.368C432.557 153.01 433.521 151.965 433.521 150.694V140.299C433.521 138.167 431.901 136.424 429.913 136.424C428.908 136.424 428.006 136.854 427.37 137.551C426.714 138.249 426.304 139.212 426.304 140.278L426.325 140.299Z" fill="#AEC7B8"/>
<path d="M431.553 129.986H428.293V137.531H431.553V129.986Z" fill="#AEC7B8"/>
<path d="M431.553 129.986H428.293V134.784H431.553V129.986Z" fill="#AEC7B8"/>
<path d="M422.45 206.275H411.768V213.677H422.45V206.275Z" fill="#AEC7B8"/>
<path d="M427.309 213.677H418.452V224.215H427.309V213.677Z" fill="#AEC7B8"/>
<path d="M424.501 216.916H421.262V221.652H424.501V216.916Z" fill="#AEC7B8"/>
<path d="M416.094 213.677H407.237V224.215H416.094V213.677Z" fill="#AEC7B8"/>
<path d="M413.286 216.916H410.046V221.652H413.286V216.916Z" fill="#AEC7B8"/>
<path d="M403.136 207.67H396.965V224.215H403.136V207.67Z" fill="#AEC7B8"/>
<path d="M401.619 210.15H398.482V216.404H401.619V210.15Z" fill="#AEC7B8"/>
<path d="M433.049 210.028H435.694H437.006L436.104 222.001H435.694H433.049H432.639L431.717 210.028H433.049Z" fill="#AEC7B8"/>
<path d="M436.084 222.001H432.64V224.215H436.084V222.001Z" fill="#AEC7B8"/>
<path d="M440.532 210.028H443.177H444.489L443.587 222.001H443.177H440.532H440.122L439.2 210.028H440.532Z" fill="#AEC7B8"/>
<path d="M443.567 222.001H440.123V224.215H443.567V222.001Z" fill="#AEC7B8"/>
<path d="M376.031 217.327L376.072 223.334C376.072 223.806 376.401 224.195 376.79 224.195L382.449 224.154C382.838 224.154 383.166 223.765 383.166 223.272L383.125 217.265C383.125 216.507 383.023 215.769 382.859 215.051C382.531 213.677 381.895 212.406 381.034 211.402L380.788 211.115H378.328L378.082 211.422C377.221 212.447 376.606 213.718 376.298 215.092C376.134 215.81 376.052 216.548 376.052 217.306L376.031 217.327Z" fill="#AEC7B8"/>
<path d="M377.857 211.155H381.26L381.096 208.777C381.096 208.592 380.932 208.449 380.768 208.449H378.349C378.164 208.449 378.021 208.613 378.021 208.798L377.877 211.155H377.857Z" fill="#AEC7B8"/>
<path d="M366.929 217.327L366.97 223.334C366.97 223.806 367.298 224.195 367.688 224.195L373.346 224.154C373.736 224.154 374.064 223.765 374.064 223.272L374.023 217.265C374.023 216.507 373.92 215.769 373.756 215.051C373.428 213.677 372.793 212.406 371.932 211.402L371.686 211.115H369.225L368.979 211.422C368.118 212.447 367.503 213.718 367.195 215.092C367.031 215.81 366.949 216.548 366.949 217.306L366.929 217.327Z" fill="#AEC7B8"/>
<path d="M368.733 211.155H372.136L371.972 208.777C371.972 208.592 371.808 208.449 371.644 208.449H369.225C369.04 208.449 368.897 208.613 368.897 208.798L368.753 211.155H368.733Z" fill="#AEC7B8"/>
<path d="M340.563 213.39V222.247C340.563 223.334 341.383 224.216 342.408 224.216H344.868C345.873 224.216 346.713 223.334 346.713 222.247V213.39C346.713 211.566 345.34 210.089 343.638 210.089C342.798 210.089 342.018 210.458 341.465 211.053C340.911 211.648 340.563 212.468 340.563 213.39Z" fill="#AEC7B8"/>
<path d="M345.032 204.615H342.244V211.032H345.032V204.615Z" fill="#AEC7B8"/>
<path d="M345.032 204.615H342.244V208.695H345.032V204.615Z" fill="#AEC7B8"/>
<path d="M349.153 213.39V222.247C349.153 223.334 349.973 224.216 350.998 224.216H353.459C354.463 224.216 355.304 223.334 355.304 222.247V213.39C355.304 211.566 353.93 210.089 352.228 210.089C351.388 210.089 350.609 210.458 350.055 211.053C349.502 211.648 349.153 212.468 349.153 213.39Z" fill="#AEC7B8"/>
<path d="M353.622 204.615H350.834V211.032H353.622V204.615Z" fill="#AEC7B8"/>
<path d="M353.622 204.615H350.834V208.695H353.622V204.615Z" fill="#AEC7B8"/>
<path d="M357.62 211.504V221.898C357.62 223.17 358.584 224.215 359.773 224.215H362.664C363.853 224.215 364.817 223.17 364.817 221.898V211.504C364.817 209.371 363.197 207.629 361.208 207.629C360.204 207.629 359.302 208.059 358.666 208.756C358.01 209.453 357.62 210.417 357.62 211.483V211.504Z" fill="#AEC7B8"/>
<path d="M362.849 201.211H359.589V208.756H362.849V201.211Z" fill="#AEC7B8"/>
<path d="M362.849 201.211H359.589V206.009H362.849V201.211Z" fill="#AEC7B8"/>
<path d="M388.251 210.581H391.901L392.926 222.062C393.029 223.211 392.188 224.195 391.101 224.195H389.031C387.964 224.195 387.103 223.211 387.206 222.062L388.231 210.581H388.251Z" fill="#AEC7B8"/>
<path d="M391.901 207.834H388.252V210.581H391.901V207.834Z" fill="#AEC7B8"/>
<g opacity="0.4">
<path d="M441.64 118.607L335.478 212.775V190.878L416.934 118.607H441.64Z" fill="white"/>
<path d="M450.066 118.71V124.184L336.298 225.117H335.478V220.361L450.066 118.71Z" fill="white"/>
<path d="M450.066 180.627V186.101L406.088 225.117H399.897L450.066 180.627Z" fill="white"/>
<path d="M371.317 118.607L335.478 150.406V144.912L365.145 118.607H371.317Z" fill="white"/>
<path d="M450.066 160.904V174.62L393.151 225.117H377.692L450.066 160.904Z" fill="white"/>
</g>
<path d="M450.436 153.092H335.089V154.958H450.436V153.092Z" fill="#02BA50"/>
<path d="M450.436 188.644H335.089V190.509H450.436V188.644Z" fill="#02BA50"/>
<path d="M450.927 225.999H334.596V117.746H450.927V225.999ZM336.339 224.256H449.185V119.468H336.339V224.256Z" fill="#02BA50"/>
<path d="M476.453 92.3435L476.576 92.2205C472.373 85.7212 469.585 78.5043 468.375 71.0005V67.146H224.417V71.0005C223.207 78.5249 220.419 85.7212 216.216 92.2205L216.339 92.3435H476.453Z" fill="#297850"/>
<path d="M476.556 92.2207H216.175V100.053H476.556V92.2207Z" fill="#297850"/>
<path d="M468.396 65.1985H224.417V70.9802H468.396V65.1985Z" fill="#297850"/>
<path d="M432.229 47.5459H260.521V80.9649H432.229V47.5459Z" fill="#D7F3E5"/>
<path d="M433.542 82.2769H259.189V46.2131H433.542V82.2769ZM261.834 79.6321H430.897V48.8579H261.834V79.6321Z" fill="#AEC7B8"/>
<path d="M388.58 63.3055H403.096V65.6018H388.58V63.3055ZM394.546 57.0112H397.109V71.9985H394.546V57.0112Z" fill="#0F7339"/>
<path d="M565.516 244.984H151.735V259.07H565.516V244.984Z" fill="#297850"/>
<path d="M287.253 67.2384V71.7984H284.233V58.5984H289.573C290.993 58.5984 292.153 58.9984 293.013 59.7784C293.893 60.5584 294.333 61.5984 294.333 62.8584C294.333 64.1984 293.913 65.2584 293.053 66.0584C292.213 66.8384 291.093 67.2384 289.693 67.2384H287.253ZM289.553 61.0984H287.253V64.7184H289.553C290.733 64.7184 291.473 63.9584 291.473 62.9184C291.473 61.8584 290.693 61.0984 289.553 61.0984Z" fill="#008136"/>
<path d="M303.162 63.7784V58.5984H306.182V71.7984H303.162V66.3984H298.322V71.7984H295.302V58.5984H298.322V63.7784H303.162Z" fill="#008136"/>
<path d="M306.946 71.7984L311.686 58.5984H315.526L320.286 71.7984H317.266L316.246 68.8584H310.886L309.866 71.7984H306.946ZM315.426 66.5184L313.566 61.2784H313.526L311.686 66.5184H315.426Z" fill="#008136"/>
<path d="M321.053 71.7984V58.5984H326.773C329.413 58.5984 331.493 60.4784 331.493 62.8784C331.493 64.8984 330.253 66.4584 328.233 66.7784L332.093 71.7984H328.673L324.073 65.6184V71.7984H321.053ZM328.473 63.2384C328.473 62.0184 327.573 61.0984 326.293 61.0984H324.073V65.3984H326.013C327.553 65.3984 328.473 64.4584 328.473 63.2384Z" fill="#008136"/>
<path d="M332.882 58.5984H337.162L340.062 67.6384H340.162L343.062 58.5984H347.302V71.7984H344.502L344.582 61.5584H344.522L341.182 71.7984H338.982L335.642 61.5584H335.582L335.662 71.7984H332.882V58.5984Z" fill="#008136"/>
<path d="M348.043 71.7984L352.783 58.5984H356.623L361.383 71.7984H358.363L357.343 68.8584H351.983L350.963 71.7984H348.043ZM356.523 66.5184L354.663 61.2784H354.623L352.783 66.5184H356.523Z" fill="#008136"/>
<path d="M368.08 71.9984C363.9 71.9984 361.04 69.2184 361.04 65.1984C361.04 61.1784 363.9 58.3984 368.06 58.3984C369.76 58.3984 371.24 58.8784 372.36 59.7784V62.6984C371.22 61.6384 369.82 61.0384 368.36 61.0384C367.1 61.0384 366.06 61.4184 365.28 62.1984C364.5 62.9784 364.1 63.9784 364.1 65.1984C364.1 67.7384 365.96 69.3584 368.36 69.3584C369.8 69.3584 371.241 68.7584 372.381 67.6984V70.6184C371.26 71.5184 369.76 71.9984 368.08 71.9984Z" fill="#008136"/>
<path d="M377.084 66.7584L372.504 58.5984H375.724L378.564 63.9184H378.604L381.564 58.5984H384.684L380.104 66.7584V71.7984H377.084V66.7584Z" fill="#008136"/>
<rect x="195.288" y="118.88" width="30.4102" height="4.70374" rx="1" fill="#D9D9D9"/>
<rect x="195.288" y="141.61" width="30.4102" height="4.70374" rx="1" fill="#D9D9D9"/>
<rect x="139.833" y="102.045" width="67.5854" height="57.1877" rx="1" fill="#6B9E84"/>
<rect x="141.937" y="104.397" width="63.377" height="52.484" rx="1" fill="#BBE7D1"/>
<path d="M152.286 135.629H150.672L149.587 131.147H149.568L148.482 135.629H146.878L145.208 129.401H146.623L147.708 134.148H147.737L148.869 129.401H150.294L151.408 134.148H151.436L152.541 129.401H153.956L152.286 135.629Z" fill="#046B2F"/>
<path d="M155.976 131.052C156.608 131.052 157.127 131.241 157.523 131.618C157.92 131.996 158.118 132.487 158.118 133.1C158.118 133.298 158.09 133.506 158.043 133.742H154.985C155.032 134.374 155.608 134.705 156.325 134.705C156.863 134.705 157.467 134.506 157.854 134.195V135.29C157.439 135.563 156.834 135.724 156.221 135.724C154.588 135.724 153.673 134.657 153.673 133.374C153.673 132.204 154.475 131.052 155.976 131.052ZM155.013 132.94H156.901C156.985 132.449 156.646 131.987 156.032 131.987C155.475 131.987 155.06 132.364 155.013 132.94Z" fill="#046B2F"/>
<path d="M160.015 135.629H158.581V131.147C158.581 130.694 158.543 130.156 158.477 129.401H159.921V134.242C159.921 134.686 159.968 135.252 160.015 135.629Z" fill="#046B2F"/>
<path d="M162.106 135.629H160.672V131.147C160.672 130.694 160.634 130.156 160.568 129.401H162.012V134.242C162.012 134.686 162.059 135.252 162.106 135.629Z" fill="#046B2F"/>
<path d="M165.332 134.959H165.237C164.888 135.488 164.426 135.724 163.869 135.724C163.038 135.724 162.453 135.205 162.453 134.459C162.453 133.714 163.048 133.289 164.256 133.091C164.964 132.977 165.247 132.826 165.247 132.496C165.247 132.185 165.002 132.005 164.549 132.005C163.973 132.005 163.35 132.307 162.793 132.808V131.666C163.284 131.288 164.001 131.052 164.69 131.052C165.851 131.052 166.587 131.685 166.587 132.704V134.242C166.587 134.771 166.644 135.28 166.729 135.629H165.407L165.332 134.959ZM165.285 133.77V133.374C165.086 133.61 164.832 133.723 164.445 133.827C163.992 133.94 163.784 134.091 163.784 134.346C163.784 134.62 164.011 134.799 164.36 134.799C164.86 134.799 165.285 134.412 165.285 133.77Z" fill="#046B2F"/>
<path d="M167.247 129.401H168.682V131.892H168.776C169.031 131.364 169.559 131.052 170.173 131.052C170.626 131.052 170.994 131.213 171.287 131.524C171.579 131.836 171.73 132.241 171.73 132.742V134.242C171.73 134.723 171.758 135.129 171.825 135.629H170.39V133.034C170.39 132.496 170.116 132.138 169.578 132.138C169.003 132.138 168.682 132.534 168.682 133.11V135.629H167.351V131.147C167.351 130.609 167.313 129.957 167.247 129.401Z" fill="#046B2F"/>
<path d="M174.513 131.052C175.145 131.052 175.664 131.241 176.06 131.618C176.457 131.996 176.655 132.487 176.655 133.1C176.655 133.298 176.627 133.506 176.579 133.742H173.522C173.569 134.374 174.145 134.705 174.862 134.705C175.4 134.705 176.004 134.506 176.391 134.195V135.29C175.975 135.563 175.371 135.724 174.758 135.724C173.125 135.724 172.21 134.657 172.21 133.374C172.21 132.204 173.012 131.052 174.513 131.052ZM173.55 132.94H175.438C175.522 132.449 175.183 131.987 174.569 131.987C174.012 131.987 173.597 132.364 173.55 132.94Z" fill="#046B2F"/>
<path d="M179.687 134.959H179.593C179.244 135.488 178.781 135.724 178.224 135.724C177.394 135.724 176.809 135.205 176.809 134.459C176.809 133.714 177.403 133.289 178.611 133.091C179.319 132.977 179.602 132.826 179.602 132.496C179.602 132.185 179.357 132.005 178.904 132.005C178.328 132.005 177.705 132.307 177.148 132.808V131.666C177.639 131.288 178.356 131.052 179.045 131.052C180.206 131.052 180.942 131.685 180.942 132.704V134.242C180.942 134.771 180.999 135.28 181.084 135.629H179.763L179.687 134.959ZM179.64 133.77V133.374C179.442 133.61 179.187 133.723 178.8 133.827C178.347 133.94 178.139 134.091 178.139 134.346C178.139 134.62 178.366 134.799 178.715 134.799C179.215 134.799 179.64 134.412 179.64 133.77Z" fill="#046B2F"/>
<path d="M183.141 135.629H181.706V131.147C181.706 130.694 181.669 130.156 181.603 129.401H183.047V134.242C183.047 134.686 183.094 135.252 183.141 135.629Z" fill="#046B2F"/>
<path d="M186.708 134.365V135.441C186.406 135.629 186.038 135.724 185.651 135.724C184.698 135.724 184.084 135.129 184.084 134.176V132.166H183.348V131.288H183.584C184.263 131.288 184.565 130.892 184.65 129.844H185.415V131.147H186.679V132.166H185.424V134.016C185.424 134.44 185.632 134.667 186.009 134.667C186.245 134.667 186.472 134.563 186.708 134.365Z" fill="#046B2F"/>
<path d="M187.065 129.401H188.5V131.892H188.594C188.849 131.364 189.378 131.052 189.991 131.052C190.444 131.052 190.812 131.213 191.105 131.524C191.397 131.836 191.548 132.241 191.548 132.742V134.242C191.548 134.723 191.577 135.129 191.643 135.629H190.208V133.034C190.208 132.496 189.934 132.138 189.396 132.138C188.821 132.138 188.5 132.534 188.5 133.11V135.629H187.169V131.147C187.169 130.609 187.131 129.957 187.065 129.401Z" fill="#046B2F"/>
<path d="M145.208 144.281L147.444 138.052H149.256L151.502 144.281H150.077L149.596 142.893H147.067L146.585 144.281H145.208ZM149.209 141.789L148.331 139.316H148.313L147.444 141.789H149.209Z" fill="#046B2F"/>
<path d="M155.306 142.638V143.941C154.919 144.215 154.381 144.375 153.815 144.375C152.38 144.375 151.304 143.431 151.304 142.025C151.304 140.657 152.314 139.703 153.767 139.703C154.334 139.703 154.853 139.864 155.268 140.138V141.44C154.881 141.053 154.371 140.836 153.871 140.836C153.126 140.836 152.654 141.355 152.654 142.034C152.654 142.742 153.154 143.243 153.909 143.243C154.409 143.243 154.919 143.016 155.306 142.638Z" fill="#046B2F"/>
<path d="M159.516 142.638V143.941C159.129 144.215 158.592 144.375 158.025 144.375C156.591 144.375 155.515 143.431 155.515 142.025C155.515 140.657 156.525 139.703 157.978 139.703C158.544 139.703 159.063 139.864 159.479 140.138V141.44C159.092 141.053 158.582 140.836 158.082 140.836C157.336 140.836 156.864 141.355 156.864 142.034C156.864 142.742 157.365 143.243 158.12 143.243C158.62 143.243 159.129 143.016 159.516 142.638Z" fill="#046B2F"/>
<path d="M162.028 139.703C162.661 139.703 163.18 139.892 163.576 140.27C163.972 140.647 164.171 141.138 164.171 141.751C164.171 141.95 164.142 142.157 164.095 142.393H161.037C161.085 143.025 161.66 143.356 162.377 143.356C162.915 143.356 163.519 143.158 163.906 142.846V143.941C163.491 144.215 162.887 144.375 162.274 144.375C160.641 144.375 159.725 143.309 159.725 142.025C159.725 140.855 160.528 139.703 162.028 139.703ZM161.066 141.591H162.953C163.038 141.1 162.698 140.638 162.085 140.638C161.528 140.638 161.113 141.015 161.066 141.591Z" fill="#046B2F"/>
<path d="M166.068 143.507H165.974V144.281C165.974 144.479 165.983 144.724 166.011 145.007C166.04 145.29 166.059 145.517 166.087 145.696H164.634V141.147C164.634 140.798 164.596 140.26 164.53 139.798H165.974V140.572H166.068C166.342 140.015 166.908 139.703 167.559 139.703C168.626 139.703 169.456 140.591 169.456 142.034C169.456 143.469 168.626 144.375 167.559 144.375C166.889 144.375 166.342 144.064 166.068 143.507ZM167.059 140.77C166.37 140.77 165.926 141.279 165.926 142.044C165.926 142.808 166.379 143.299 167.059 143.299C167.729 143.299 168.125 142.837 168.125 142.044C168.125 141.251 167.729 140.77 167.059 140.77Z" fill="#046B2F"/>
<path d="M172.769 143.016V144.092C172.466 144.281 172.098 144.375 171.711 144.375C170.758 144.375 170.145 143.78 170.145 142.827V140.817H169.409V139.939H169.645C170.324 139.939 170.626 139.543 170.711 138.495H171.476V139.798H172.74V140.817H171.485V142.667C171.485 143.092 171.693 143.318 172.07 143.318C172.306 143.318 172.533 143.214 172.769 143.016Z" fill="#046B2F"/>
<path d="M175.121 139.703C175.753 139.703 176.272 139.892 176.669 140.27C177.065 140.647 177.263 141.138 177.263 141.751C177.263 141.95 177.235 142.157 177.188 142.393H174.13C174.177 143.025 174.753 143.356 175.47 143.356C176.008 143.356 176.612 143.158 176.999 142.846V143.941C176.584 144.215 175.98 144.375 175.366 144.375C173.734 144.375 172.818 143.309 172.818 142.025C172.818 140.855 173.62 139.703 175.121 139.703ZM174.158 141.591H176.046C176.131 141.1 175.791 140.638 175.178 140.638C174.621 140.638 174.205 141.015 174.158 141.591Z" fill="#046B2F"/>
<path d="M180.944 144.281V143.507H180.85C180.539 144.082 180.038 144.375 179.359 144.375C178.302 144.375 177.462 143.488 177.462 142.044C177.462 140.591 178.302 139.703 179.359 139.703C180.038 139.703 180.548 139.996 180.85 140.572H180.944V139.798C180.944 139.222 180.916 138.571 180.841 138.052H182.285V142.893C182.285 143.394 182.322 143.875 182.388 144.281H180.944ZM179.869 143.299C180.557 143.299 180.992 142.799 180.992 142.034C180.992 141.27 180.548 140.77 179.869 140.77C179.189 140.77 178.793 141.242 178.793 142.034C178.793 142.827 179.189 143.299 179.869 143.299Z" fill="#046B2F"/>
<path d="M149.521 148.361V145.917H150.946V152.145H149.521V149.597H147.237V152.145H145.812V145.917H147.237V148.361H149.521Z" fill="#046B2F"/>
<path d="M153.699 147.568C154.332 147.568 154.851 147.757 155.247 148.134C155.643 148.512 155.842 149.003 155.842 149.616C155.842 149.814 155.813 150.022 155.766 150.258H152.708C152.755 150.89 153.331 151.22 154.048 151.22C154.586 151.22 155.19 151.022 155.577 150.711V151.806C155.162 152.079 154.558 152.24 153.945 152.24C152.312 152.24 151.396 151.173 151.396 149.89C151.396 148.719 152.199 147.568 153.699 147.568ZM152.737 149.456H154.624C154.709 148.965 154.369 148.502 153.756 148.502C153.199 148.502 152.784 148.88 152.737 149.456Z" fill="#046B2F"/>
<path d="M157.748 152.145H156.304V149.012C156.304 148.635 156.267 148.153 156.201 147.662H157.512V148.701H157.607C157.767 147.983 158.267 147.596 158.862 147.596C159.06 147.596 159.287 147.644 159.476 147.747V149.069C159.202 148.908 158.938 148.823 158.683 148.823C158.041 148.823 157.645 149.286 157.645 150.079V150.758C157.645 151.239 157.673 151.655 157.748 152.145Z" fill="#046B2F"/>
<path d="M161.696 147.568C162.329 147.568 162.848 147.757 163.244 148.134C163.641 148.512 163.839 149.003 163.839 149.616C163.839 149.814 163.811 150.022 163.763 150.258H160.706C160.753 150.89 161.328 151.22 162.046 151.22C162.584 151.22 163.188 151.022 163.575 150.711V151.806C163.159 152.079 162.555 152.24 161.942 152.24C160.309 152.24 159.394 151.173 159.394 149.89C159.394 148.719 160.196 147.568 161.696 147.568ZM160.734 149.456H162.621C162.706 148.965 162.367 148.502 161.753 148.502C161.196 148.502 160.781 148.88 160.734 149.456Z" fill="#046B2F"/>
<path fill-rule="evenodd" clip-rule="evenodd" d="M154.737 115.463V112.808H158.692V115.474C158.692 117.126 157.965 118.68 156.709 119.737C155.464 118.68 154.737 117.126 154.737 115.463ZM164.84 110.131C164.84 110.142 164.84 110.142 164.84 110.153V115.463C164.84 117.336 163.914 119.076 162.35 120.112L159.794 121.82L158.857 121.192C160.367 119.682 161.226 117.633 161.226 115.463V110.153C161.226 110.142 161.226 110.142 161.226 110.131H152.214C152.214 110.142 152.214 110.142 152.214 110.153V115.463C152.214 117.633 153.084 119.693 154.583 121.192L153.646 121.82L151.09 120.112C149.537 119.076 148.601 117.336 148.601 115.463V110.153C148.601 110.142 148.601 110.142 148.601 110.131H146.078C146.078 110.142 146.078 110.142 146.078 110.153V115.463C146.078 118.184 147.433 120.707 149.691 122.216L153.657 124.86L156.731 122.811L159.805 124.86L163.76 122.216C166.018 120.707 167.374 118.184 167.374 115.474V110.153C167.374 110.142 167.374 110.142 167.374 110.131H164.84Z" fill="#008136"/>
</g>
<line y1="-0.5" x2="53.9874" y2="-0.5" transform="matrix(-0.524564 -0.851371 0.805328 -0.592829 260.627 80.4526)" stroke="#667185"/>
<line x1="35.9048" y1="34.6763" x2="232.307" y2="34.6763" stroke="#667185"/>
<line y1="-0.5" x2="53.9874" y2="-0.5" transform="matrix(0.524564 -0.851371 -0.805328 -0.592829 435.934 76.0933)" stroke="#667185"/>
<line y1="-0.5" x2="196.402" y2="-0.5" transform="matrix(-1 -8.74228e-08 -8.74228e-08 1 660.656 30.8169)" stroke="#667185"/>
<line y1="-0.5" x2="53.9874" y2="-0.5" transform="matrix(-0.524564 0.851371 0.805328 0.592829 260.627 218.333)" stroke="#667185"/>
<line y1="-0.5" x2="196.402" y2="-0.5" transform="matrix(1 8.74228e-08 8.74228e-08 -1 35.9048 263.609)" stroke="#667185"/>
<line y1="-0.5" x2="53.9874" y2="-0.5" transform="matrix(0.524564 0.851371 -0.805328 0.592829 435.934 213.973)" stroke="#667185"/>
<line x1="660.656" y1="259.75" x2="464.253" y2="259.75" stroke="#667185"/>
<line x1="35.7354" y1="144.172" x2="139.735" y2="144.172" stroke="#667185"/>
<line y1="-0.5" x2="224.722" y2="-0.5" transform="matrix(-1 0 0 1 660.656 140.674)" stroke="#667185"/>
<circle cx="28.7354" cy="35.1763" r="28.7354" fill="#CCF3D9"/>
<circle cx="649.735" cy="28.7354" r="28.7354" fill="#CCF3D9"/>
<circle cx="28.7354" cy="143.567" r="28.7354" fill="#CCF3D9"/>
<circle cx="649.735" cy="143.567" r="28.7354" fill="#CCF3D9"/>
<circle cx="28.7354" cy="263.609" r="28.7354" fill="#CCF3D9"/>
<circle cx="649.735" cy="261.128" r="28.7354" fill="#CCF3D9"/>
<defs>
<clipPath id="clip0_351_2701">
<rect width="438" height="213" fill="white" transform="translate(129.735 46.2495)"/>
</clipPath>
</defs>
</svg>
