<svg width="220" height="36" viewBox="0 0 220 36" fill="none" xmlns="http://www.w3.org/2000/svg">
<g clip-path="url(#clip0_285_40902)">
<path d="M46.6978 12.1689H51.4628L54.2486 22.6521H54.3952L57.0343 12.1689H61.946L64.5851 22.6521H64.7317L67.5175 12.1689H72.2826L67.1509 28.0037H62.6058L59.5268 16.8607L56.4478 28.077H51.8294L46.6978 12.1689Z" fill="white"/>
<path d="M84.9646 13.8553C86.3574 15.1749 87.0905 16.9343 87.0905 19.1336C87.0905 19.8666 87.0172 20.5997 86.7973 21.4061H75.9476C76.0942 23.6787 78.1468 24.7783 80.7126 24.7783C82.6187 24.7783 84.7446 24.0453 86.1375 22.9456V26.831C84.6713 27.784 82.5454 28.3705 80.3461 28.3705C74.5547 28.3705 71.3291 24.6317 71.3291 20.0866C71.3291 15.9813 74.1881 11.876 79.4664 11.876C81.739 11.876 83.5717 12.5358 84.9646 13.8553ZM82.7653 18.5471C83.0585 16.7877 81.8856 15.1749 79.6863 15.1749C77.707 15.1749 76.2408 16.4944 76.0942 18.5471H82.7653Z" fill="white"/>
<path d="M88.1908 28.0772V12.1692C88.1908 10.5564 88.0441 8.65035 87.8242 6.01123H92.9558V23.1655C92.9558 24.705 93.1025 26.7576 93.3224 28.0772H88.1908Z" fill="white"/>
<path d="M95.0814 28.0772V12.1692C95.0814 10.5564 94.9348 8.65035 94.7148 6.01123H99.8465V23.1655C99.8465 24.705 99.9931 26.7576 100.213 28.0772H95.0814Z" fill="white"/>
<path d="M110.696 25.6581C109.45 27.5641 107.837 28.3705 105.858 28.3705C102.926 28.3705 100.873 26.5378 100.873 23.8987C100.873 21.2596 102.999 19.7934 107.251 19.0603C109.743 18.6938 110.77 18.1073 110.77 16.9344C110.77 15.8347 109.89 15.1749 108.277 15.1749C106.225 15.1749 104.025 16.2746 102.046 18.034V14.002C103.805 12.6824 106.298 11.8027 108.79 11.8027C112.896 11.8027 115.535 14.0753 115.535 17.6674V23.0923C115.535 24.9983 115.755 26.7578 116.048 28.004H111.356L111.063 25.6581H110.696ZM110.916 20.0866C110.183 20.893 109.304 21.3329 107.911 21.6994C106.298 22.066 105.565 22.6525 105.565 23.5322C105.565 24.4852 106.371 25.145 107.617 25.145C109.377 25.145 110.916 23.7521 110.916 21.4795V20.0866Z" fill="white"/>
<path d="M122.426 25.2916V28.0041C122.426 28.7372 122.426 29.5436 122.573 30.5699C122.646 31.5962 122.719 32.4026 122.866 32.9891H117.734V16.8611C117.734 15.6149 117.588 13.7088 117.368 12.096H122.499V14.8085H122.866C123.819 12.8291 125.872 11.7295 128.144 11.7295C131.883 11.7295 134.888 14.8818 134.888 20.0134C134.888 25.0717 131.956 28.2973 128.144 28.2973C125.798 28.2973 123.819 27.1977 122.866 25.2183H122.426V25.2916ZM122.279 20.16C122.279 22.8724 123.892 24.6319 126.311 24.6319C128.657 24.6319 130.05 23.0191 130.05 20.16C130.05 17.301 128.657 15.6149 126.311 15.6149C123.819 15.6149 122.279 17.4476 122.279 20.16Z" fill="white"/>
<path d="M144.639 25.6581C143.392 27.5641 141.78 28.3705 139.8 28.3705C136.868 28.3705 134.815 26.5378 134.815 23.8987C134.815 21.2596 136.941 19.7934 141.193 19.0603C143.686 18.6938 144.712 18.1073 144.712 16.9344C144.712 15.8347 143.832 15.1749 142.219 15.1749C140.167 15.1749 137.967 16.2746 135.988 18.034V14.002C137.748 12.6824 140.24 11.8027 142.733 11.8027C146.838 11.8027 149.477 14.0753 149.477 17.6674V23.0923C149.477 24.9983 149.697 26.7578 149.99 28.004H145.298L145.005 25.6581H144.639ZM144.785 20.0866C144.052 20.893 143.172 21.3329 141.78 21.6994C140.167 22.066 139.434 22.6525 139.434 23.5322C139.434 24.4852 140.24 25.145 141.486 25.145C143.246 25.145 144.785 23.7521 144.785 21.4795V20.0866Z" fill="white"/>
<path d="M151.603 28.0776V17.008C151.603 15.6884 151.456 14.0023 151.236 12.2429H155.855V15.9083H156.221C156.808 13.3425 158.567 12.0229 160.693 12.0229C161.426 12.0229 162.232 12.1696 162.892 12.5361V17.2279C161.939 16.6414 160.986 16.3482 160.106 16.3482C157.834 16.3482 156.441 17.961 156.441 20.82V23.2392C156.441 24.9253 156.514 26.3915 156.808 28.1509H151.603V28.0776Z" fill="white"/>
<path d="M174.329 27.4174C173.229 28.0772 171.983 28.4438 170.59 28.4438C167.218 28.4438 165.018 26.3178 165.018 22.9456V15.8346H162.379V12.7556H163.186C165.605 12.7556 166.631 11.3628 166.924 7.62402H169.637V12.2425H174.109V15.8346H169.637V22.3591C169.637 23.8986 170.37 24.6317 171.689 24.6317C172.496 24.6317 173.302 24.2651 174.182 23.5321V27.4174H174.329Z" fill="white"/>
<path d="M179.533 12.1693V14.8084H179.9C180.633 13.1956 182.392 11.8027 184.958 11.8027C186.644 11.8027 188.037 12.3159 189.137 13.4155C190.236 14.5152 190.749 15.9813 190.749 17.7408V23.0923C190.749 24.8517 190.896 26.7578 191.116 28.004H186.058V18.8404C186.058 16.861 184.958 15.7614 183.125 15.7614C181.292 15.7614 179.973 17.0077 179.973 19.0603V28.0773H175.208V17.0077C175.208 16.4212 175.208 15.6881 175.061 14.7351C174.988 13.7821 174.915 12.9757 174.841 12.2426H179.533V12.1693Z" fill="white"/>
<path d="M205.558 13.8553C206.951 15.1749 207.684 16.9343 207.684 19.1336C207.684 19.8666 207.611 20.5997 207.391 21.4061H196.541C196.688 23.6787 198.741 24.7783 201.306 24.7783C203.212 24.7783 205.338 24.0453 206.731 22.9456V26.831C205.265 27.784 203.139 28.3705 200.94 28.3705C195.148 28.3705 191.923 24.6317 191.923 20.0866C191.923 15.9813 194.782 11.876 200.06 11.876C202.333 11.876 204.165 12.5358 205.558 13.8553ZM203.359 18.5471C203.652 16.7877 202.479 15.1749 200.28 15.1749C198.301 15.1749 196.835 16.4944 196.688 18.5471H203.359Z" fill="white"/>
<path d="M208.784 28.0776V17.008C208.784 15.6884 208.637 14.0023 208.417 12.2429H213.036V15.9083H213.402C213.989 13.3425 215.748 12.0229 217.874 12.0229C218.607 12.0229 219.341 12.1696 220.074 12.5361V17.2279C219.121 16.6414 218.168 16.3482 217.288 16.3482C215.015 16.3482 213.622 17.961 213.622 20.82V23.2392C213.622 24.9253 213.696 26.3915 213.989 28.1509H208.784V28.0776Z" fill="white"/>
<path fill-rule="evenodd" clip-rule="evenodd" d="M27.2709 31.3029C33.4289 27.051 37.021 21.2596 37.021 15.1016V0H0V15.0283C0 21.2596 3.51883 26.9777 9.75008 31.2296L18.5472 35.8481L27.2709 31.3029Z" fill="white"/>
<path fill-rule="evenodd" clip-rule="evenodd" d="M30.35 28.8835C32.0361 27.3441 33.429 25.658 34.4553 23.8985C34.2354 23.6053 34.0154 23.2388 33.7955 22.9455C32.9891 21.8459 32.1827 20.9662 31.3763 20.0865L30.9365 19.6466L31.0831 19.5C31.8162 18.8402 32.6226 18.1071 33.209 17.1541C33.7955 16.2011 34.1621 14.9549 34.1621 13.3421V13.1954C34.0154 11.6559 33.5756 10.4097 32.9158 9.31006C32.1827 8.13712 31.1564 7.33072 29.9834 6.74425C29.4703 6.52433 28.9571 6.3044 28.3706 6.23109C27.7842 6.08447 27.271 6.08447 26.6845 6.08447C26.0981 6.08447 25.5116 6.15778 24.9984 6.3044C24.4853 6.45102 23.8988 6.59764 23.459 6.81756C22.286 7.40403 21.333 8.21043 20.5266 9.31006C19.8668 10.3364 19.427 11.5826 19.3537 13.0488C19.2803 14.515 19.5736 15.7612 20.1601 16.7876C20.5999 17.5207 21.1131 18.1804 21.6262 18.7669C19.427 20.8929 17.4476 20.3797 15.6149 18.8402C16.0548 18.3271 16.5679 17.6673 17.0078 16.8609C17.5942 15.7612 18.0341 14.3684 17.8875 12.8289C17.7409 11.3627 17.301 10.1165 16.5679 9.09014C15.7615 7.9905 14.7352 7.18411 13.5623 6.67094C13.0491 6.45102 12.5359 6.3044 11.9495 6.23109C11.4363 6.15778 10.8498 6.08447 10.2634 6.08447C9.67688 6.08447 9.16372 6.15778 8.57725 6.3044C8.06409 6.45102 7.55092 6.59764 7.03776 6.81756C5.86482 7.40403 4.83849 8.21043 4.1054 9.38337C3.51893 10.483 3.07908 11.7293 3.07908 13.1954C3.00577 14.8815 3.44562 16.1278 4.0321 17.2274C4.61857 18.1804 5.42496 18.9868 6.15805 19.6466L5.64489 20.1598C4.69188 21.1861 3.59224 22.2857 2.56592 23.9718C3.66555 25.7313 5.05842 27.4174 6.81783 28.9569C6.81783 28.8835 6.89114 28.7369 6.89114 28.6636C7.331 27.4174 7.99078 26.2444 8.72387 25.2914C9.45695 24.3384 10.2634 23.6053 11.0697 23.0188L11.8028 23.532C16.0548 26.5377 20.5266 26.4643 24.8518 23.532C25.1451 23.3121 25.4383 23.1654 25.6582 23.0188C25.7315 22.9455 25.8781 22.8722 25.9515 22.8722C26.9045 23.6053 27.7842 24.4117 28.444 25.3647C29.2504 26.391 29.8368 27.4907 30.2034 28.6636L30.35 28.8835ZM26.5379 16.7143C26.0248 16.1278 25.5116 15.468 25.0718 14.8815C24.6319 14.2218 24.3387 13.6353 24.3387 13.1221C24.3387 12.609 24.4853 12.2424 24.7052 11.9492C24.9251 11.5826 25.2917 11.3627 25.6582 11.2161C25.8048 11.1428 26.0248 11.0695 26.1714 11.0695C26.3913 11.0695 26.5379 10.9962 26.7579 10.9962C26.9045 10.9962 27.1244 10.9962 27.3443 11.0695C27.5643 11.1428 27.7109 11.1428 27.8575 11.2161C28.224 11.3627 28.5173 11.5826 28.7372 11.8759C28.9571 12.1691 29.0304 12.4623 29.0304 12.9022C29.0304 13.3421 28.9571 13.7819 28.7372 14.2218C28.5173 14.6616 28.2973 15.1015 27.9308 15.5413C27.6376 15.8346 27.3443 16.1278 26.9778 16.421C26.9045 16.5676 26.7579 16.641 26.5379 16.7143ZM10.5566 16.641C10.3367 16.4943 10.1167 16.3477 9.97012 16.1278C9.60357 15.8346 9.31034 15.5413 9.0171 15.1748C8.72387 14.8815 8.50394 14.5883 8.35732 14.2951C8.2107 14.0751 8.13739 13.9285 8.13739 13.7819C8.06409 13.1954 8.13739 12.7556 8.28401 12.389C8.43063 12.0225 8.72387 11.7293 9.09041 11.5093C9.31034 11.3627 9.53026 11.2894 9.75019 11.2161C10.0434 11.1428 10.2634 11.1428 10.5566 11.1428C10.8498 11.1428 11.0697 11.1428 11.363 11.2161C11.5829 11.2894 11.8028 11.3627 12.0228 11.5093C12.316 11.6559 12.6092 11.9492 12.7559 12.3157C12.9025 12.6823 12.9758 13.1221 12.9025 13.7086C12.9025 13.9285 12.7559 14.1485 12.6092 14.3684C12.3893 14.7349 12.0961 15.1015 11.8028 15.468C11.5096 15.8346 11.2164 16.1278 10.9231 16.421L10.5566 16.641Z" fill="black"/>
</g>
<defs>
<clipPath id="clip0_285_40902">
<rect width="220" height="35.8481" fill="white"/>
</clipPath>
</defs>
</svg>
