<svg width="679" height="297" viewBox="0 0 679 297" fill="none" xmlns="http://www.w3.org/2000/svg">
<circle cx="348.735" cy="149.036" r="128.74" fill="#E1FCEA"/>
<g clip-path="url(#clip0_349_1622)">
<path d="M343.417 9.87055C336.03 13.3559 335.319 23.4793 338.124 32.0302C340.12 38.207 334.881 38.5321 333.656 47.2342C333.225 50.3662 333.54 53.5559 334.576 56.5428C335.613 59.5298 337.341 62.2292 339.62 64.4209C341.898 66.6126 344.663 68.2344 347.688 69.1538C350.713 70.0732 353.912 70.2643 357.025 69.7113C370.06 67.2996 357.441 40.3466 362.227 30.949C367.013 21.5514 351.355 6.1357 343.417 9.87055Z" fill="#263238"/>
<path d="M368.23 222.765L376.629 223.377C375.472 230.068 374.361 240.623 374.361 240.623H367.7C367.7 240.623 368.479 227.339 368.23 222.765Z" fill="#CE7A63"/>
<path d="M324.508 222.765L332.824 223.377C330.949 230.068 328.734 240.623 328.734 240.623H322.073C322.073 240.623 324.274 227.339 324.508 222.765Z" fill="#CE7A63"/>
<path d="M360.519 247.23C366.31 247.23 365.894 247.14 369.16 247.034C371.95 246.928 372.593 247.283 374.83 247.23C376.705 247.193 376.766 245.401 376.342 243.344C376.184 242.55 375.934 241.628 375.707 240.486C375.643 240.17 375.47 239.887 375.219 239.684C374.968 239.481 374.654 239.372 374.331 239.375H367.565C367.316 239.376 367.07 239.434 366.847 239.546C366.624 239.657 366.43 239.819 366.28 240.018C365.475 241.073 364.463 241.953 363.306 242.603C362.149 243.254 360.871 243.66 359.551 243.798C356.391 244.214 358.197 247.23 360.519 247.23Z" fill="#02BA50"/>
<path d="M315.042 247.23C320.833 247.23 320.425 247.14 323.684 247.034C326.473 246.928 327.116 247.283 329.354 247.23C331.229 247.193 331.289 245.401 330.866 243.344C330.7 242.55 330.458 241.628 330.223 240.487C330.162 240.17 329.991 239.886 329.741 239.683C329.491 239.48 329.177 239.371 328.855 239.375H322.051C321.802 239.375 321.557 239.433 321.335 239.544C321.113 239.656 320.921 239.818 320.773 240.018C319.967 241.072 318.955 241.951 317.798 242.601C316.641 243.251 315.364 243.658 314.044 243.798C310.929 244.214 312.736 247.23 315.042 247.23Z" fill="#02BA50"/>
<path d="M333.202 92.166C333.202 92.166 327.91 133.098 328.394 159.091C326.398 183.488 323.192 230.159 323.192 230.159C323.29 231.406 329.868 230.915 331.04 230.159C331.04 230.159 346.108 198.662 343.658 159.091C360.397 117.811 359.399 92.166 359.399 92.166H333.202Z" fill="#263238"/>
<path opacity="0.2" d="M354.735 125.22C353.435 130.55 351.764 136.463 349.632 142.897C349.012 129.938 345.504 112.587 345.39 111.997L354.735 125.22Z" fill="#344054"/>
<path d="M340.333 92.166C340.333 92.166 352.301 138.36 357.041 161.049C362.023 184.872 369.002 214.335 367.626 230.167C368.956 230.923 373.719 230.998 376.411 230.167C376.411 230.167 386.663 185.038 373.629 162.123C378.346 105.692 363.414 92.1887 363.414 92.1887L340.333 92.166Z" fill="#263238"/>
<path d="M367.043 226.87C366.991 227.962 366.857 229.049 366.643 230.121C366.623 230.21 366.622 230.302 366.639 230.392C366.657 230.482 366.693 230.567 366.744 230.642C366.796 230.717 366.863 230.781 366.94 230.829C367.018 230.877 367.104 230.909 367.194 230.922C370.393 231.437 375.072 230.688 376.562 230.423C376.7 230.396 376.827 230.328 376.927 230.229C377.026 230.129 377.094 230.002 377.121 229.864L377.681 226.84C377.695 226.746 377.689 226.649 377.662 226.558C377.635 226.466 377.589 226.382 377.527 226.31C377.464 226.238 377.387 226.18 377.3 226.141C377.213 226.102 377.118 226.083 377.023 226.084L367.724 226.265C367.557 226.267 367.396 226.33 367.271 226.441C367.146 226.552 367.065 226.704 367.043 226.87Z" fill="#263238"/>
<path opacity="0.1" d="M367.043 226.87C366.991 227.962 366.857 229.049 366.643 230.121C366.623 230.21 366.622 230.302 366.639 230.392C366.657 230.482 366.693 230.567 366.744 230.642C366.796 230.717 366.863 230.781 366.94 230.829C367.018 230.877 367.104 230.909 367.194 230.922C370.393 231.437 375.072 230.688 376.562 230.423C376.7 230.396 376.827 230.328 376.927 230.229C377.026 230.129 377.094 230.002 377.121 229.864L377.681 226.84C377.695 226.746 377.689 226.649 377.662 226.558C377.635 226.466 377.589 226.382 377.527 226.31C377.464 226.238 377.387 226.18 377.3 226.141C377.213 226.102 377.118 226.083 377.023 226.084L367.724 226.265C367.557 226.267 367.396 226.33 367.271 226.441C367.146 226.552 367.065 226.704 367.043 226.87Z" fill="white"/>
<path d="M322.557 226.727C322.467 227.573 322.3 229.086 322.142 230.197C322.128 230.283 322.131 230.372 322.152 230.457C322.173 230.542 322.21 230.622 322.262 230.693C322.314 230.763 322.38 230.822 322.455 230.867C322.531 230.912 322.614 230.941 322.701 230.953C325.586 231.192 328.487 231.159 331.365 230.855C331.507 230.841 331.642 230.785 331.752 230.693C331.861 230.601 331.94 230.478 331.978 230.341L332.787 227.316C332.814 227.221 332.82 227.121 332.803 227.023C332.786 226.925 332.747 226.832 332.688 226.752C332.63 226.672 332.554 226.606 332.466 226.56C332.378 226.513 332.281 226.488 332.182 226.485L323.276 226.129C323.103 226.12 322.933 226.177 322.8 226.287C322.666 226.398 322.58 226.555 322.557 226.727Z" fill="#263238"/>
<path opacity="0.1" d="M322.557 226.727C322.467 227.573 322.3 229.086 322.142 230.197C322.128 230.283 322.131 230.372 322.152 230.457C322.173 230.542 322.21 230.622 322.262 230.693C322.314 230.763 322.38 230.822 322.455 230.867C322.531 230.912 322.614 230.941 322.701 230.953C325.586 231.192 328.487 231.159 331.365 230.855C331.507 230.841 331.642 230.785 331.752 230.693C331.861 230.601 331.94 230.478 331.978 230.341L332.787 227.316C332.814 227.221 332.82 227.121 332.803 227.023C332.786 226.925 332.747 226.832 332.688 226.752C332.63 226.672 332.554 226.606 332.466 226.56C332.378 226.513 332.281 226.488 332.182 226.485L323.276 226.129C323.103 226.12 322.933 226.177 322.8 226.287C322.666 226.398 322.58 226.555 322.557 226.727Z" fill="white"/>
<path d="M292.558 60.6995L294.017 62.514C294.288 62.8493 294.636 63.1154 295.03 63.2902C295.424 63.465 295.855 63.5436 296.285 63.5195L300.375 63.2776C301.181 63.2296 301.963 62.9889 302.657 62.5758C303.35 62.1627 303.934 61.5893 304.36 60.9036L304.904 60.0417C302.681 56.8663 297.941 55.0745 297.941 55.0745L296.641 54.4168C296.112 54.1319 295.492 54.0683 294.917 54.2397C294.341 54.4112 293.857 54.8039 293.571 55.3316L292.225 57.8794C292.001 58.3309 291.912 58.8382 291.971 59.339C292.03 59.8399 292.234 60.3127 292.558 60.6995Z" fill="#CE7A63"/>
<path d="M300.722 46.6516L293.785 48.1248C293.184 48.2523 292.801 48.8424 292.929 49.4429L294.732 57.9329C294.859 58.5333 295.449 58.9166 296.05 58.7891L302.987 57.3159C303.587 57.1884 303.97 56.5983 303.843 55.9979L302.04 47.5079C301.912 46.9075 301.322 46.5241 300.722 46.6516Z" fill="#02BA50"/>
<path d="M279.727 30.4584L279.167 30.9658L280.989 32.9778L281.549 32.4703L279.727 30.4584Z" fill="#02BA50"/>
<path d="M306.322 38.1828L303.112 41.9233L303.686 42.4158L306.896 38.6752L306.322 38.1828Z" fill="#02BA50"/>
<path d="M283.447 34.5709L282.887 35.0784L290.773 43.7875L291.333 43.2801L283.447 34.5709Z" fill="#02BA50"/>
<path d="M280.106 43.2826L279.858 43.9966L289.282 47.2786L289.531 46.5646L280.106 43.2826Z" fill="#02BA50"/>
<path d="M299.035 45.1899L294.731 46.104C294.466 46.1603 294.296 46.4213 294.353 46.6868L295.05 49.9704C295.106 50.2359 295.367 50.4054 295.633 50.349L299.937 49.4349C300.203 49.3785 300.372 49.1176 300.316 48.8521L299.618 45.5685C299.562 45.303 299.301 45.1335 299.035 45.1899Z" fill="#02BA50"/>
<path d="M299.11 42.7221L293.653 43.8812C293.403 43.9342 293.244 44.179 293.297 44.4282L293.772 46.6616C293.824 46.9108 294.069 47.0698 294.318 47.0169L299.776 45.8578C300.026 45.8049 300.185 45.56 300.132 45.3109L299.657 43.0774C299.604 42.8283 299.36 42.6692 299.11 42.7221Z" fill="#263238"/>
<path opacity="0.8" d="M302.266 48.5575L294.73 50.158L296.018 56.2223L303.554 54.6218L302.266 48.5575Z" fill="white"/>
<path d="M341.315 56.9798C341.095 57.3502 340.959 57.5468 340.785 57.819L340.286 58.575L339.288 59.9888C338.616 60.9263 337.92 61.826 337.202 62.7106C335.765 64.4722 334.268 66.1884 332.666 67.8063C329.436 71.1513 325.766 74.0407 321.756 76.395C320.728 76.9847 319.677 77.5366 318.588 78.0431L317.764 78.406L317.56 78.4968L317.446 78.5497L317.265 78.6177C317.018 78.7186 316.766 78.8044 316.509 78.8748C315.502 79.1774 314.452 79.3078 313.402 79.2604C311.633 79.1634 309.91 78.6616 308.366 77.7936C307.143 77.1174 305.99 76.3195 304.926 75.4121C303.1 73.8084 301.416 72.0504 299.891 70.1576C299.135 69.2504 298.439 68.3507 297.744 67.4283C297.396 66.9671 297.056 66.5059 296.723 66.0296C296.391 65.5533 296.066 65.1224 295.68 64.5175L305.327 59.2555C305.448 59.5654 305.66 60.0569 305.864 60.4576C306.068 60.8583 306.287 61.2968 306.514 61.7126C306.952 62.5465 307.434 63.3566 307.958 64.1395C308.901 65.6276 310.013 67.0026 311.27 68.2372C311.766 68.7265 312.316 69.1577 312.91 69.5225C313.188 69.7015 313.495 69.8295 313.817 69.9005H313.885L314.037 69.8325L314.649 69.5603C315.458 69.1823 316.259 68.7589 317.046 68.3053C318.627 67.3565 320.131 66.2847 321.544 65.0997C322.982 63.8765 324.338 62.5607 325.604 61.1607C326.881 59.7236 328.068 58.2086 329.158 56.6244C329.694 55.8684 330.224 55.0367 330.715 54.2278C330.964 53.8195 331.199 53.4188 331.426 53.0105L331.743 52.4133C331.834 52.2318 331.962 51.9823 331.993 51.8916L341.315 56.9798Z" fill="#02BA50"/>
<path opacity="0.7" d="M341.315 56.9798C341.095 57.3502 340.959 57.5468 340.785 57.819L340.286 58.575L339.288 59.9888C338.616 60.9263 337.92 61.826 337.202 62.7106C335.765 64.4722 334.268 66.1884 332.666 67.8063C329.436 71.1513 325.766 74.0407 321.756 76.395C320.728 76.9847 319.677 77.5366 318.588 78.0431L317.764 78.406L317.56 78.4968L317.446 78.5497L317.265 78.6177C317.018 78.7186 316.766 78.8044 316.509 78.8748C315.502 79.1774 314.452 79.3078 313.402 79.2604C311.633 79.1634 309.91 78.6616 308.366 77.7936C307.143 77.1174 305.99 76.3195 304.926 75.4121C303.1 73.8084 301.416 72.0504 299.891 70.1576C299.135 69.2504 298.439 68.3507 297.744 67.4283C297.396 66.9671 297.056 66.5059 296.723 66.0296C296.391 65.5533 296.066 65.1224 295.68 64.5175L305.327 59.2555C305.448 59.5654 305.66 60.0569 305.864 60.4576C306.068 60.8583 306.287 61.2968 306.514 61.7126C306.952 62.5465 307.434 63.3566 307.958 64.1395C308.901 65.6276 310.013 67.0026 311.27 68.2372C311.766 68.7265 312.316 69.1577 312.91 69.5225C313.188 69.7015 313.495 69.8295 313.817 69.9005H313.885L314.037 69.8325L314.649 69.5603C315.458 69.1823 316.259 68.7589 317.046 68.3053C318.627 67.3565 320.131 66.2847 321.544 65.0997C322.982 63.8765 324.338 62.5607 325.604 61.1607C326.881 59.7236 328.068 58.2086 329.158 56.6244C329.694 55.8684 330.224 55.0367 330.715 54.2278C330.964 53.8195 331.199 53.4188 331.426 53.0105L331.743 52.4133C331.834 52.2318 331.962 51.9823 331.993 51.8916L341.315 56.9798Z" fill="white"/>
<path d="M330.398 57.5393C330.223 62.0205 330.291 66.5079 330.602 70.9817C330.844 76.8184 332.114 82.9574 333.702 92.408C336.9 94.2754 353.064 93.5042 363.407 92.166C362.779 83.8874 363.807 74.4217 369.417 55.7928C370.718 51.4758 367.814 47.3251 363.187 46.8866C361.948 46.7657 360.632 46.6674 359.286 46.6069C354.564 46.2928 349.825 46.2928 345.103 46.6069C343.591 46.743 341.958 46.9244 340.431 47.121C334.919 47.8392 330.564 52.3604 330.398 57.5393Z" fill="#02BA50"/>
<path d="M333.142 94.3964C343.57 95.5482 354.095 95.5279 364.518 94.3359C364.623 94.3124 364.722 94.2667 364.808 94.2019C364.894 94.1371 364.965 94.0547 365.016 93.9602C365.068 93.8658 365.099 93.7614 365.107 93.6541C365.115 93.5467 365.1 93.439 365.062 93.3379C364.805 92.7331 364.548 92.1358 364.306 91.531C364.254 91.3988 364.16 91.2871 364.038 91.2122C363.917 91.1374 363.775 91.1034 363.634 91.1152C353.608 92.219 343.493 92.219 333.467 91.1152C333.376 91.1036 333.283 91.111 333.195 91.1367C333.106 91.1625 333.024 91.2061 332.953 91.265C332.882 91.3238 332.824 91.3966 332.783 91.4787C332.741 91.5609 332.717 91.6507 332.711 91.7427C332.643 92.3702 332.583 92.9902 332.522 93.6177C332.512 93.7095 332.52 93.8026 332.545 93.8914C332.571 93.9803 332.613 94.0633 332.671 94.1356C332.728 94.208 332.8 94.2682 332.881 94.313C332.962 94.3577 333.05 94.3861 333.142 94.3964Z" fill="#02BA50"/>
<path d="M358.288 30.6467C357.056 35.183 355.544 43.5751 358.507 46.6219C358.507 46.6219 359.407 51.0901 347.167 50.6743C337.739 50.3568 344.331 46.6219 344.331 46.6219C349.518 45.4047 349.669 41.632 349.042 38.0862L358.288 30.6467Z" fill="#CE7A63"/>
<path d="M358.832 45.9112C358.832 45.9112 353.464 50.6818 351.862 62.1812C348.837 84.1518 353.442 174.113 353.442 174.113C353.442 174.113 373.099 167.695 380.236 161.548C380.568 155.394 368.684 98.7057 369.727 82.4356C370.77 66.1656 372.789 51.9898 370.687 48.9278C368.585 45.8658 358.832 45.9112 358.832 45.9112Z" fill="#02BA50"/>
<path opacity="0.7" d="M358.832 45.9112C358.832 45.9112 353.464 50.6818 351.862 62.1812C348.837 84.1518 353.442 174.113 353.442 174.113C353.442 174.113 373.099 167.695 380.236 161.548C380.568 155.394 368.684 98.7057 369.727 82.4356C370.77 66.1656 372.789 51.9898 370.687 48.9278C368.585 45.8658 358.832 45.9112 358.832 45.9112Z" fill="white"/>
<path d="M344.71 46.365C336.529 56.8664 336.59 125.122 338.956 174.136C331.691 173.259 323.926 158.524 323.926 158.524C323.926 158.524 331.789 106.531 330.277 84.53C328.765 62.5292 328.976 54.81 332.545 50.7425C336.113 46.675 344.71 46.365 344.71 46.365Z" fill="#02BA50"/>
<path opacity="0.7" d="M344.71 46.365C336.529 56.8664 336.59 125.122 338.956 174.136C331.691 173.259 323.926 158.524 323.926 158.524C323.926 158.524 331.789 106.531 330.277 84.53C328.765 62.5292 328.976 54.81 332.545 50.7425C336.113 46.675 344.71 46.365 344.71 46.365Z" fill="white"/>
<path d="M358.144 45.5181C356.738 46.7278 350.017 52.7761 350.924 77.7256C351.604 74.9055 354.704 61.5387 357.978 55.1728C357.311 54.7062 356.523 54.4435 355.71 54.4168C356.593 53.9429 357.606 53.7653 358.598 53.9102C359.52 52.0503 361.41 48.1416 363.247 46.0398C361.274 44.7696 358.144 45.5181 358.144 45.5181Z" fill="white"/>
<path d="M338.722 77.7255C338.722 77.7255 340.181 54.5376 344.989 46.2665C343.125 45.842 341.169 46.1477 339.523 47.1209C338.517 48.3305 337.202 52.9802 337.202 53.9857C337.977 53.7933 338.795 53.8844 339.508 54.2428C338.675 54.4028 337.875 54.7019 337.141 55.1274C336.824 56.768 336.673 65.5305 338.722 77.7255Z" fill="white"/>
<path d="M361.91 74.5426H355.415C355.299 74.535 355.185 74.5027 355.082 74.448C354.979 74.3933 354.889 74.3173 354.818 74.2251C354.746 74.1329 354.695 74.0266 354.668 73.9132C354.64 73.7998 354.637 73.6819 354.659 73.5673L354.924 70.4826C354.933 70.2352 355.032 69.9995 355.201 69.819C355.371 69.6384 355.6 69.5251 355.846 69.4998H362.341C362.457 69.5084 362.571 69.5416 362.674 69.5971C362.777 69.6526 362.867 69.7293 362.938 69.8221C363.01 69.9149 363.061 70.0216 363.088 70.1355C363.115 70.2493 363.118 70.3676 363.097 70.4826L362.824 73.5673C362.815 73.8127 362.717 74.0464 362.549 74.2256C362.381 74.4047 362.154 74.5173 361.91 74.5426Z" fill="white"/>
<path opacity="0.1" d="M358.107 74.5426H356.338L357.699 69.4998H359.468L358.107 74.5426Z" fill="#02BA50"/>
<path opacity="0.1" d="M360.564 74.5426H358.802L360.163 69.4998H361.925L360.564 74.5426Z" fill="#02BA50"/>
<path d="M358.946 70.0289C358.629 70.0289 358.394 69.8475 358.432 69.6131L358.636 68.1993C358.679 68.0679 358.765 67.955 358.88 67.8793C358.996 67.8037 359.134 67.7699 359.271 67.7835C359.589 67.7835 359.823 67.9649 359.793 68.1993L359.589 69.6131C359.544 69.7443 359.456 69.8566 359.339 69.932C359.223 70.0074 359.084 70.0415 358.946 70.0289Z" fill="#02BA50"/>
<path opacity="0.2" d="M354.515 33.6785L349.034 38.0786C349.191 38.9089 349.274 39.7513 349.283 40.5963C351.249 40.3165 354.077 38.1845 354.44 36.1432C354.611 35.3327 354.637 34.498 354.515 33.6785Z" fill="#344054"/>
<path d="M362.189 21.4836C360.806 28.855 360.375 32.0002 356.141 35.5309C349.813 40.8232 341.118 38.0409 340.264 30.5259C339.508 23.7593 341.905 12.842 349.503 10.4076C351.119 9.81687 352.864 9.67106 354.556 9.98537C356.248 10.2997 357.825 11.0626 359.121 12.1944C360.417 13.3261 361.386 14.7853 361.926 16.4193C362.465 18.0534 362.556 19.8024 362.189 21.4836Z" fill="#CE7A63"/>
<path d="M349.026 27.5696C347.091 27.5696 345.473 25.6039 345.397 23.1316C345.352 21.9848 345.681 20.8544 346.335 19.9109C346.614 19.4945 346.986 19.1488 347.422 18.9008C347.857 18.6528 348.344 18.5094 348.845 18.4819H348.928C350.863 18.4819 352.481 20.4552 352.557 22.9199C352.625 25.4224 351.045 27.5091 349.109 27.5696H349.026ZM348.928 18.86H348.852C348.411 18.8866 347.982 19.0151 347.599 19.2355C347.216 19.4559 346.889 19.7621 346.645 20.1301C346.024 21.0124 345.718 22.0773 345.775 23.1543C345.843 25.4224 347.363 27.2672 349.102 27.2218C350.841 27.1764 352.247 25.2561 352.179 22.9653C352.111 20.6669 350.69 18.86 348.928 18.86Z" fill="white"/>
<path d="M345.594 22.9199C345.553 22.9199 345.513 22.9067 345.481 22.8821C345.481 22.8821 344.906 22.4587 344.619 22.7612C344.603 22.7832 344.583 22.8016 344.56 22.8152C344.536 22.8287 344.51 22.8371 344.483 22.8398C344.456 22.8424 344.429 22.8393 344.404 22.8305C344.378 22.8218 344.355 22.8077 344.335 22.7891C344.315 22.7705 344.3 22.748 344.29 22.7229C344.28 22.6979 344.275 22.6709 344.276 22.6439C344.277 22.6169 344.284 22.5905 344.296 22.5663C344.308 22.5422 344.326 22.521 344.347 22.5041C344.755 22.0656 345.39 22.3453 345.708 22.5797C345.748 22.6098 345.774 22.6546 345.781 22.7042C345.788 22.7538 345.775 22.8042 345.745 22.8443C345.727 22.8666 345.704 22.8849 345.678 22.8979C345.652 22.9109 345.623 22.9184 345.594 22.9199Z" fill="white"/>
<path d="M341.148 26.874C339.213 26.874 337.595 24.9083 337.519 22.4436C337.444 19.9789 338.986 17.8544 340.959 17.7939H341.042C342.978 17.7939 344.596 19.7597 344.671 22.2319C344.747 24.7042 343.205 26.8211 341.231 26.874H341.148ZM341.042 18.172H340.974C339.205 18.2249 337.829 20.1301 337.897 22.4285C337.965 24.7269 339.409 26.496 341.148 26.496H341.216C342.985 26.4431 344.361 24.5378 344.293 22.2395C344.225 19.9411 342.774 18.172 341.042 18.172Z" fill="white"/>
<path d="M357.041 14.6111C354.017 21.3398 359.044 24.4396 359.793 26.5565C360.844 32.3932 347.545 43.9833 351.476 62.1359C357.207 51.9898 365.085 52.4737 365.939 45.6466C366.794 38.6154 363.271 35.062 367.013 28.3408C370.755 21.6196 372.079 13.6282 365.501 12.3807C358.923 11.1333 357.041 14.6111 357.041 14.6111Z" fill="#263238"/>
<path d="M361.025 53.7815C360.998 53.7828 360.972 53.778 360.947 53.7675C360.922 53.7571 360.9 53.7412 360.882 53.7211C360.847 53.6857 360.828 53.6382 360.828 53.5888C360.828 53.5393 360.847 53.4918 360.882 53.4564C364.7 49.9938 364.987 45.4726 365.297 40.6793C365.501 37.5417 365.713 34.2908 366.96 31.2363C369.153 25.8684 370.975 18.3231 368.873 14.747C368.573 14.2157 368.149 13.7648 367.637 13.4331C367.124 13.1013 366.54 12.8984 365.932 12.8418C365.883 12.8343 365.838 12.8082 365.807 12.7689C365.776 12.7296 365.761 12.6799 365.766 12.6301C365.767 12.6048 365.774 12.5802 365.786 12.5577C365.798 12.5353 365.815 12.5156 365.835 12.5C365.855 12.4843 365.878 12.473 365.902 12.4667C365.927 12.4605 365.952 12.4595 365.977 12.4638C366.643 12.5242 367.284 12.7457 367.846 13.1093C368.407 13.4728 368.871 13.9675 369.198 14.5505C371.368 18.2475 369.644 25.6719 367.308 31.38C366.083 34.4042 365.879 37.5947 365.675 40.702C365.365 45.5709 365.07 50.1677 361.139 53.7362C361.106 53.7625 361.067 53.7784 361.025 53.7815Z" fill="#263238"/>
<path d="M358.765 15.4275C353.782 15.9946 344.974 15.4275 342.948 12.8419C340.922 10.2562 343.561 3.76936 349.42 2.7487C354.183 1.93218 357.041 7.79151 357.041 7.79151C357.041 7.79151 361.577 5.52338 365.531 10.7174C369.137 15.4275 361.275 20.7652 358.765 15.4275Z" fill="#263238"/>
<path d="M360.639 25.0673L352.285 23.6308C352.26 23.6272 352.236 23.6186 352.215 23.6054C352.194 23.5922 352.175 23.5748 352.161 23.5542C352.147 23.5336 352.137 23.5103 352.132 23.4857C352.128 23.4612 352.128 23.4359 352.134 23.4115C352.143 23.3625 352.171 23.3191 352.212 23.2907C352.253 23.2624 352.304 23.2515 352.353 23.2603L360.669 24.6968C360.712 24.7055 360.75 24.7287 360.778 24.7624C360.806 24.7962 360.821 24.8384 360.821 24.882C360.821 24.9256 360.806 24.9679 360.778 25.0016C360.75 25.0354 360.712 25.0586 360.669 25.0673H360.639Z" fill="white"/>
<path d="M350.516 22.7159C350.425 23.3359 350.024 23.8197 349.631 23.7895C349.238 23.7592 348.981 23.23 349.064 22.6101C349.147 21.9901 349.555 21.4987 349.949 21.5289C350.342 21.5592 350.599 22.0884 350.516 22.7159Z" fill="#263238"/>
<path d="M342.986 22.2699C342.895 22.8898 342.502 23.3737 342.101 23.3435C341.7 23.3132 341.451 22.784 341.542 22.164C341.632 21.5441 342.026 21.0602 342.426 21.0905C342.827 21.1207 343.076 21.6424 342.986 22.2699Z" fill="#263238"/>
<path d="M342.593 21.1357L341.187 20.5913C341.187 20.5913 341.777 21.8237 342.593 21.1357Z" fill="#263238"/>
<path d="M344.929 23.4492C344.18 24.8333 343.258 26.1163 342.184 27.2672C342.88 28.0913 344.301 27.8418 344.301 27.8418L344.929 23.4492Z" fill="#BA4D3C"/>
<path d="M347.484 30.4048C347.139 30.4391 346.792 30.4391 346.448 30.4048C346.424 30.4029 346.401 30.3963 346.38 30.3853C346.36 30.3743 346.341 30.3591 346.326 30.3407C346.311 30.3223 346.3 30.301 346.294 30.2783C346.288 30.2555 346.286 30.2317 346.289 30.2082C346.297 30.1588 346.323 30.114 346.362 30.0831C346.401 30.0522 346.451 30.0375 346.501 30.0419C347.282 30.1012 348.066 29.9846 348.797 29.7007C349.527 29.4167 350.184 28.9727 350.72 28.4013C350.736 28.3844 350.756 28.3709 350.779 28.3618C350.801 28.3526 350.824 28.3479 350.848 28.3479C350.872 28.3479 350.896 28.3526 350.918 28.3618C350.94 28.3709 350.96 28.3844 350.977 28.4013C350.994 28.4181 351.007 28.4382 351.016 28.4602C351.025 28.4823 351.03 28.5059 351.03 28.5298C351.03 28.5537 351.025 28.5773 351.016 28.5994C351.007 28.6214 350.994 28.6415 350.977 28.6583C350.068 29.6519 348.824 30.274 347.484 30.4048Z" fill="#263238"/>
<path d="M361.751 28.9456C361.371 29.5553 360.869 30.0789 360.275 30.4826C359.681 30.8862 359.009 31.1611 358.303 31.2893C356.549 31.5313 356.035 29.4899 356.851 27.6074C357.607 25.9139 359.369 23.7516 360.979 24.3791C362.59 25.0066 362.786 27.3352 361.751 28.9456Z" fill="#CE7A63"/>
<path d="M352.958 19.9337C352.912 19.9251 352.869 19.9063 352.831 19.8789C352.793 19.8514 352.761 19.8159 352.739 19.775C352.531 19.3801 352.228 19.0433 351.857 18.7951C351.486 18.547 351.059 18.3952 350.614 18.3536C350.567 18.3539 350.521 18.3442 350.478 18.3252C350.435 18.3062 350.396 18.2782 350.365 18.2432C350.333 18.2082 350.31 18.1669 350.295 18.1221C350.281 18.0772 350.276 18.0299 350.282 17.9831C350.291 17.8842 350.338 17.7926 350.412 17.7267C350.487 17.6608 350.583 17.6254 350.682 17.6278C351.246 17.6703 351.79 17.8548 352.263 18.1641C352.737 18.4734 353.124 18.8976 353.389 19.3969C353.432 19.4834 353.439 19.5831 353.409 19.6749C353.38 19.7666 353.315 19.8432 353.23 19.8884C353.19 19.9141 353.146 19.9314 353.099 19.9392C353.052 19.947 353.004 19.9451 352.958 19.9337Z" fill="#263238"/>
<path d="M341.557 17.4161C341.486 17.4235 341.414 17.4083 341.352 17.3725C341.29 17.3367 341.241 17.2823 341.211 17.217C341.182 17.1516 341.174 17.0787 341.189 17.0085C341.203 16.9384 341.24 16.8746 341.293 16.8263C341.67 16.3702 342.147 16.0073 342.687 15.766C343.227 15.5247 343.816 15.4115 344.407 15.4352C344.454 15.4406 344.499 15.4555 344.539 15.479C344.579 15.5024 344.614 15.5339 344.642 15.5715C344.67 15.6091 344.689 15.652 344.7 15.6974C344.71 15.7429 344.711 15.7901 344.702 15.8359C344.686 15.9335 344.633 16.0211 344.554 16.0813C344.476 16.1416 344.377 16.1701 344.279 16.161C343.811 16.1494 343.346 16.2448 342.92 16.44C342.494 16.6352 342.119 16.9251 341.822 17.2875C341.753 17.3624 341.658 17.4083 341.557 17.4161Z" fill="#263238"/>
<path d="M350.123 21.5817L348.717 21.0374C348.717 21.0374 349.307 22.2621 350.123 21.5817Z" fill="#263238"/>
<path d="M362.53 100.218L363.066 97.9498C363.165 97.5291 363.362 97.138 363.642 96.8092C363.922 96.4804 364.277 96.2234 364.677 96.0597L368.457 94.5098C369.204 94.205 370.014 94.0837 370.817 94.1561C371.621 94.2284 372.396 94.4923 373.076 94.9256L373.938 95.47C373.303 99.288 369.803 102.955 369.803 102.955L368.926 104.112C368.751 104.354 368.53 104.559 368.276 104.716C368.021 104.873 367.738 104.978 367.443 105.025C367.148 105.072 366.847 105.06 366.556 104.99C366.266 104.921 365.992 104.794 365.75 104.618L363.444 102.902C363.049 102.591 362.752 102.172 362.589 101.696C362.427 101.219 362.406 100.706 362.53 100.218Z" fill="#CE7A63"/>
<path d="M369.886 48.3987C370.287 48.6557 370.514 48.8221 370.801 49.0338L371.602 49.631C372.124 50.0317 372.638 50.3871 373.114 50.8331C374.123 51.6396 375.098 52.4763 376.04 53.3432C377.948 55.0674 379.758 56.8974 381.461 58.8245C383.187 60.7818 384.768 62.8613 386.194 65.0467C386.905 66.1581 387.593 67.3149 388.198 68.4792C388.833 69.6654 389.406 70.8844 389.914 72.1309L390.284 73.0759L390.33 73.1969L390.413 73.4313L390.556 73.8924C390.632 74.2024 390.708 74.5124 390.753 74.8148C390.929 75.899 390.929 77.0043 390.753 78.0885C390.461 79.7352 389.915 81.3267 389.135 82.8062C387.858 85.2058 386.338 87.4682 384.599 89.5577C383.004 91.5763 381.325 93.4362 379.624 95.2582C378.77 96.1655 377.923 97.0727 377.046 97.9573L375.723 99.2804C375.262 99.7264 374.853 100.15 374.332 100.641L367.323 92.1811C367.709 91.9165 368.193 91.5612 368.624 91.2285L369.939 90.1852C370.809 89.482 371.678 88.7714 372.51 88.0153C374.155 86.5538 375.717 85.0015 377.19 83.3657C378.549 81.88 379.739 80.2469 380.735 78.4967C381.076 77.8924 381.33 77.2435 381.491 76.5688C381.491 76.3723 381.491 76.2815 381.491 76.3269C381.489 76.3419 381.489 76.3573 381.491 76.3723C381.488 76.3872 381.488 76.4027 381.491 76.4176V76.3345L381.212 75.6313C379.573 71.7857 377.229 68.2805 374.301 65.2962C372.817 63.7351 371.22 62.2847 369.523 60.9566C368.676 60.2912 367.799 59.6562 366.922 59.0513C366.476 58.7489 366.038 58.4465 365.592 58.1743L364.927 57.7812L364.344 57.4561L369.886 48.3987Z" fill="#02BA50"/>
<path opacity="0.7" d="M369.886 48.3987C370.287 48.6557 370.514 48.8221 370.801 49.0338L371.602 49.631C372.124 50.0317 372.638 50.3871 373.114 50.8331C374.123 51.6396 375.098 52.4763 376.04 53.3432C377.948 55.0674 379.758 56.8974 381.461 58.8245C383.187 60.7818 384.768 62.8613 386.194 65.0467C386.905 66.1581 387.593 67.3149 388.198 68.4792C388.833 69.6654 389.406 70.8844 389.914 72.1309L390.284 73.0759L390.33 73.1969L390.413 73.4313L390.556 73.8924C390.632 74.2024 390.708 74.5124 390.753 74.8148C390.929 75.899 390.929 77.0043 390.753 78.0885C390.461 79.7352 389.915 81.3267 389.135 82.8062C387.858 85.2058 386.338 87.4682 384.599 89.5577C383.004 91.5763 381.325 93.4362 379.624 95.2582C378.77 96.1655 377.923 97.0727 377.046 97.9573L375.723 99.2804C375.262 99.7264 374.853 100.15 374.332 100.641L367.323 92.1811C367.709 91.9165 368.193 91.5612 368.624 91.2285L369.939 90.1852C370.809 89.482 371.678 88.7714 372.51 88.0153C374.155 86.5538 375.717 85.0015 377.19 83.3657C378.549 81.88 379.739 80.2469 380.735 78.4967C381.076 77.8924 381.33 77.2435 381.491 76.5688C381.491 76.3723 381.491 76.2815 381.491 76.3269C381.489 76.3419 381.489 76.3573 381.491 76.3723C381.488 76.3872 381.488 76.4027 381.491 76.4176V76.3345L381.212 75.6313C379.573 71.7857 377.229 68.2805 374.301 65.2962C372.817 63.7351 371.22 62.2847 369.523 60.9566C368.676 60.2912 367.799 59.6562 366.922 59.0513C366.476 58.7489 366.038 58.4465 365.592 58.1743L364.927 57.7812L364.344 57.4561L369.886 48.3987Z" fill="white"/>
<path d="M459.998 122.604H235.688V131.715H459.998V122.604Z" fill="#02BA50"/>
<path opacity="0.6" d="M459.998 122.604H235.688V131.715H459.998V122.604Z" fill="white"/>
<path opacity="0.3" d="M459.998 122.604H440.364V131.715H459.998V122.604Z" fill="#02BA50"/>
<path d="M455.999 131.715H239.68V250.103H455.999V131.715Z" fill="#02BA50"/>
<path opacity="0.5" d="M455.999 131.715H239.68V250.103H455.999V131.715Z" fill="white"/>
<path opacity="0.3" d="M456.006 131.715H444.363V250.103H456.006V131.715Z" fill="#02BA50"/>
<path opacity="0.3" d="M455.999 131.715H239.68V134.716H455.999V131.715Z" fill="#02BA50"/>
<path opacity="0.3" d="M342.336 219.741C359.931 219.741 374.195 205.477 374.195 187.881C374.195 170.286 359.931 156.021 342.336 156.021C324.74 156.021 310.476 170.286 310.476 187.881C310.476 205.477 324.74 219.741 342.336 219.741Z" fill="#02BA50"/>
<path d="M340.287 219.741C357.882 219.741 372.146 205.477 372.146 187.881C372.146 170.286 357.882 156.021 340.287 156.021C322.691 156.021 308.427 170.286 308.427 187.881C308.427 205.477 322.691 219.741 340.287 219.741Z" fill="#02BA50"/>
<path d="M339.258 219.741C356.854 219.741 371.118 205.477 371.118 187.881C371.118 170.286 356.854 156.021 339.258 156.021C321.663 156.021 307.399 170.286 307.399 187.881C307.399 205.477 321.663 219.741 339.258 219.741Z" fill="white"/>
<path d="M342.509 168.829H336.007C334.817 168.829 333.853 169.794 333.853 170.984V204.779C333.853 205.969 334.817 206.933 336.007 206.933H342.509C343.699 206.933 344.664 205.969 344.664 204.779V170.984C344.664 169.794 343.699 168.829 342.509 168.829Z" fill="#02BA50"/>
<path d="M358.31 191.124V184.623C358.31 183.432 357.346 182.468 356.156 182.468H322.361C321.171 182.468 320.206 183.432 320.206 184.623V191.124C320.206 192.314 321.171 193.279 322.361 193.279H356.156C357.346 193.279 358.31 192.314 358.31 191.124Z" fill="#02BA50"/>
<path d="M446.231 117.562H387.985L395.523 81.2563H453.761L446.231 117.562Z" fill="#02BA50"/>
<path opacity="0.3" d="M446.231 117.562H387.985L395.523 81.2563H453.761L446.231 117.562Z" fill="white"/>
<path opacity="0.3" d="M433.008 108.534H408.565L411.808 92.907H436.251L433.008 108.534Z" fill="white"/>
<path opacity="0.3" d="M407.106 108.534H408.565L411.808 92.907H410.349L407.106 108.534Z" fill="#02BA50"/>
<path opacity="0.3" d="M421.599 101.427H417.214L417.872 117.561H422.249L421.599 101.427Z" fill="#02BA50"/>
<path opacity="0.7" d="M388.968 117.562H387.985L395.523 81.2563H396.506L388.968 117.562Z" fill="white"/>
<path d="M421.599 122.597H432.123L428.373 100.717H417.849L421.599 122.597Z" fill="#02BA50"/>
<path opacity="0.2" d="M421.599 122.597H432.123L428.373 100.717H417.849L421.599 122.597Z" fill="white"/>
<path d="M420.654 122.597H421.599L417.849 100.717H416.904L420.654 122.597Z" fill="#02BA50"/>
<path d="M421.093 121.357H412.882L410.735 122.597H421.093V121.357Z" fill="#02BA50"/>
<path d="M313.379 107.317H299.453V122.597H313.379V107.317Z" fill="#02BA50"/>
<path d="M305.078 107.317H313.379L315.836 103.597H307.535L305.078 107.317Z" fill="#02BA50"/>
<path opacity="0.3" d="M299.46 122.604H307.762V107.325H299.46V122.604Z" fill="white"/>
<path opacity="0.3" d="M313.379 112.715H302.432V119.512H313.379V112.715Z" fill="white"/>
<path d="M307.755 107.317H299.453L296.996 103.597H305.297L307.755 107.317Z" fill="#02BA50"/>
<path opacity="0.3" d="M307.755 107.317H299.453L296.996 103.597H305.297L307.755 107.317Z" fill="white"/>
</g>
<line x1="249.305" y1="68.2543" x2="231.877" y2="38.747" stroke="#667185"/>
<line x1="35.9048" y1="38.6797" x2="232.307" y2="38.6797" stroke="#667185"/>
<line x1="443.333" y1="61.7035" x2="463.851" y2="33.8369" stroke="#667185"/>
<line y1="-0.5" x2="196.402" y2="-0.5" transform="matrix(-1 -8.74228e-08 -8.74228e-08 1 660.656 34.8203)" stroke="#667185"/>
<line x1="243.17" y1="250.248" x2="232.742" y2="268.547" stroke="#667185"/>
<line y1="-0.5" x2="196.402" y2="-0.5" transform="matrix(1 8.74228e-08 8.74228e-08 -1 35.9048 267.612)" stroke="#667185"/>
<line y1="-0.5" x2="20.2101" y2="-0.5" transform="matrix(0.424446 0.905453 -0.78219 0.62304 445.612 250)" stroke="#667185"/>
<line x1="651.976" y1="267.897" x2="454.189" y2="267.897" stroke="#667185"/>
<line x1="35.902" y1="148.537" x2="219.733" y2="147.5" stroke="#667185"/>
<line x1="660.659" y1="145.177" x2="477.739" y2="146.5" stroke="#667185"/>
<circle cx="28.7354" cy="39.1797" r="28.7354" fill="#E1FCEA"/>
<circle cx="649.735" cy="32.7388" r="28.7354" fill="#E1FCEA"/>
<circle cx="28.7354" cy="147.571" r="28.7354" fill="#E1FCEA"/>
<circle cx="649.735" cy="147.571" r="28.7354" fill="#E1FCEA"/>
<circle cx="28.7354" cy="267.612" r="28.7354" fill="#E1FCEA"/>
<circle cx="649.735" cy="265.131" r="28.7354" fill="#E1FCEA"/>
<defs>
<clipPath id="clip0_349_1622">
<rect width="225" height="256" fill="white" transform="translate(235.735)"/>
</clipPath>
</defs>
</svg>
